/* XPM */
static char *ffefc65bcef7404fd5aae0c21875a6864ICyy9fkiLoh8kBr[] = {
/* columns rows colors chars-per-pixel */
"40 40 150 2 ",
"   c #0F0E0F",
".  c #120E0E",
"X  c #11100F",
"o  c #0F0E11",
"O  c #100F12",
"+  c #0F1014",
"@  c #111113",
"#  c #181616",
"$  c #171816",
"%  c #1B1A16",
"&  c #161619",
"*  c #1C1C1D",
"=  c #221F1C",
"-  c #23211C",
";  c #1E1E20",
":  c #232324",
">  c #2A2623",
",  c #2B2C23",
"<  c #272729",
"1  c #2B2B2C",
"2  c #35352B",
"3  c #3A3A2F",
"4  c #2F2F31",
"5  c #302F30",
"6  c #333334",
"7  c #3A3A31",
"8  c #363739",
"9  c #3B3A3C",
"0  c #413F36",
"q  c #45443A",
"w  c #4B463B",
"e  c #47493E",
"r  c #4D4A3E",
"t  c #3F3F41",
"y  c #434345",
"u  c #464648",
"i  c #4B4B4C",
"p  c #545147",
"a  c #575449",
"s  c #4F4F50",
"d  c #535355",
"f  c #5C5D52",
"g  c #575759",
"h  c #595758",
"j  c #5B5B5C",
"k  c #605A51",
"l  c #666456",
"z  c #686757",
"x  c #67645A",
"c  c #696A5B",
"v  c #5F5F61",
"b  c #646365",
"n  c #686667",
"m  c #676768",
"M  c #6B6B6C",
"N  c #726F62",
"B  c #706E6F",
"V  c #757263",
"C  c #78766B",
"Z  c #7D7B6D",
"A  c #6F6F71",
"S  c #716F70",
"D  c #747374",
"F  c #787676",
"G  c #7B7B75",
"H  c #777778",
"J  c #797778",
"K  c #7C7B7C",
"L  c #837E73",
"P  c #807E7E",
"I  c #848174",
"U  c #84827C",
"Y  c #8A877C",
"T  c #89887C",
"R  c #7F7F81",
"E  c #817F80",
"W  c #848383",
"Q  c #8C8884",
"!  c #878689",
"~  c #89878B",
"^  c #878888",
"/  c #8B8B8C",
"(  c #908B87",
")  c #938F8D",
"_  c #9A968B",
"`  c #9C9A8E",
"'  c #8F8E91",
"]  c #908F93",
"[  c #939294",
"{  c #9B9791",
"}  c #9A9991",
"|  c #969699",
" . c #99979C",
".. c #9B9B9D",
"X. c #A09E95",
"o. c #A4A196",
"O. c #A2A19D",
"+. c #AAA69A",
"@. c #9F9FA1",
"#. c #A2A2A4",
"$. c #AAA7A6",
"%. c #AEAAA3",
"&. c #A6A6A9",
"*. c #A8A7AC",
"=. c #ABABAC",
"-. c #B2AEAB",
";. c #AFB1A5",
":. c #B3B4AC",
">. c #AEAEB0",
",. c #B1AFB3",
"<. c #B2AFBB",
"1. c #B4B3B5",
"2. c #B7B7B7",
"3. c #BBB7B4",
"4. c #B7B7B9",
"5. c #B7B6BA",
"6. c #BAB5BB",
"7. c #BBBBBC",
"8. c #BBBBBD",
"9. c #BDBDBD",
"0. c #C0C1BB",
"q. c #BEBEC0",
"w. c #C3C3C4",
"e. c #CDCAC0",
"r. c #C6C6C8",
"t. c #CBCBCC",
"y. c #CBCCCC",
"u. c #CDCDCD",
"i. c #D8D5CD",
"p. c #CECED0",
"a. c #CFD0D2",
"s. c LightGray",
"d. c #D3D3D4",
"f. c #D7D7D9",
"g. c #DBDBDC",
"h. c gainsboro",
"j. c #E1DFDA",
"k. c #DFDFE0",
"l. c #E3E3E3",
"z. c gray90",
"x. c #E9E7E5",
"c. c #E9E9E7",
"v. c #E3E3E9",
"b. c #EAEAEB",
"n. c gray93",
"m. c #EFEEF3",
"M. c #F3F3F3",
"N. c #F3F3F4",
"B. c #F7F7F7",
"V. c white",
/* pixels */
"V.V.V.V.V.V.V.V.V.V.V.V.V.V.V.M.h.y.7.2.9.u.l.M.V.V.V.V.V.V.V.V.V.V.V.V.V.V.V.V.",
"V.V.V.V.V.V.V.V.V.V.V.V.n.2.J i 9 5 1 1 4 8 9 h W 7.b.V.V.V.V.V.V.V.V.V.V.V.V.V.",
"V.V.V.V.V.V.V.V.V.V.z.| i < < 8 u h b m M n j i 9 8 i | k.V.V.V.V.V.V.V.V.V.V.V.",
"V.V.V.V.V.V.V.V.B.=.u < 6 d M J P W W W ^ ^ / [ / K v t i @.M.V.V.V.V.V.V.V.V.V.",
"V.V.V.V.V.V.V.z.D < 6 d D K K K P W W W W ^ / [ [ | ..[ M t D 7.n.V.V.V.V.V.V.V.",
"V.V.V.V.V.V.h.h : y M G J J K E W W W W ^ / ' [ [ | ....#./ d < g 9.V.V.V.V.V.V.",
"V.V.V.V.V.h.d : i D F G F J K P W W W W ^ / [ [ [ | ....#.&.#.m < 9 *.V.V.V.V.V.",
"V.V.V.V.M.m ; 6 M D F F J K K E W W W ^ ^ / [ | | ....@.#.&.*.*.D 1 y 5.V.V.V.V.",
"V.V.V.V...: : 6 B D F F J K P U W W W ^ / / [ | | ....#.#.&.*.=.=.M < h g.V.V.V.",
"V.V.V.u.9 < : : j F D J J K P U W W W ~ ' ] [ | ....@.#.&.*.=.>.1.=.s 6 W B.V.V.",
"V.V.M.b < 1 : : i F F J J K P W W W Q ( ) [ |  .....#.&.&.*.=.>.1.5...8 i w.V.V.",
"V.V.=.: < < : < h D D D D K E W W T L V N C Y { ....#.&.*.=.=.&.=.5.7.M 1 W B.V.",
"V.M.d * < < 1 i D D n d S R W Y c 7 = # @ # - q Z X.&.=.=.=...s d #.q.&.8 i s.V.",
"V.w.< 6 j n M D D M h b J W I q # o o @ o O o   # p ` =.>.1.! 6 8 D 9.w.v 4 ..V.",
"V.R : j D D D D S j j F K L 3   @ @ @ + @ @ @ @ o X r o.,.1.&.i 8 i =.r.[ < M M.",
"M.i 6 M D D D D D n D G U w   @ @ @ @ o o o @ @ @ @ @ z -.5.5.J 6 9 / t.1.8 i f.",
"f.6 y D D D D D F F J P V # o @ @ @ @ : 1 * o @ @ @ o > _ 6.7.#.9 8 M r.w.i 8 2.",
"2.< i D D D F F J J K U w o @ @ @ & v =.=./ y @ @ @ @ X c 3.7.7.d 6 g w.u.n 4 #.",
"&.* d D D D F J J J K I , o @ @ @ g 7.=.#.W W 9 @ @ @ o e :.w.p.M 8 i 9.d.H 1 [ ",
"..* d D D D J J J K P G - o @ @ & ..>.r.>./ A g @ @ @ @ 3 ;.s.l.H 8 i 7.f.W 1 ' ",
"#.* h D D F J J K K U Z - O @ @ * &.=.7...' m h # @ @ @ 7 :.v.b.D 8 s 9.g.W 1 | ",
"=.: d F F J J K K E U I > o + @ @ K >./ ' D b y @ @ # @ q 0.m.c.b 9 d w.g.J 1 #.",
"w.< i F J J K K E W W Y 0   @ @ o 1 W ^ K D g ; @ # & # x i.N.f.y 9 b p.g.n 8 2.",
"l.9 9 F J K K E W W ! Q l @ O @ @ o * u d t * @ @ # & > _ x.m.=.6 t K g.d.i u s.",
"B.v 1 D K K W W W W ~ / Y 2 o @ @ & o o o o @ @ # & * k e.z.l.m 6 u @.k.w.6 n b.",
"V...: b K E W W W ^ / ' ) V - o * & o @ O O @ # # # q +.l.h.2.8 t g r.l.| < / B.",
"V.g.6 i K W W W ^ / / [ | [ N > # @ @ + O @ @ # $ 0 ` h.h.f.b 6 y ^ k.f.d 8 9.V.",
"V.V.D 1 D W W ^ ^ / [ [ | ..} Z q % @ O . . # , f +.j.c.k.^ 6 t g 9.*.v < M n.V.",
"V.V.t.1 i W W ^ / [ [ | ....#.O.` I l p r a V ` 0.l.m.b...8 9 u | W : < u 2.V.V.",
"V.V.V.K < M ^ / [ [ | ....@.#.&.*.=.$.$.%.-.7.u.v.N.b.| 8 9 u W 5.1 < t K M.V.V.",
"V.V.V.l.i 9 W [ [ | | ....@.#.&.&.=.>.<.6.7.w.g.b.u.D 6 9 y H s.&.: 9 d t.V.V.V.",
"V.V.V.V.w.9 i ^ | | ....@.#.#.&.&.=.*.>.1.2.2.=.W u 6 9 u W p.l.@.: u *.V.V.V.V.",
"V.V.V.V.V.=.8 d [ ......#.#.#.&.*.H i d g d y 9 6 8 9 g ..d.h.t.d 1 ^ B.V.V.V.V.",
"V.V.V.V.V.V.=.9 d ' @.#.#.#.&.&.#.u 1 1 1 4 6 8 9 d ! q.f.h.7.s < H z.V.V.V.V.V.",
"V.V.V.V.V.V.V.w.d u W #.&.&.*.=.=.K d i i d j H ..9.s.f.s.[ 9 6 J l.V.V.V.V.V.V.",
"V.V.V.V.V.V.V.V.l.! 9 g ' *.>.>.1.1.>.=.>.2.9.w.y.a.r.#.d < y [ b.V.V.V.V.V.V.V.",
"V.V.V.V.V.V.V.V.V.V.K * 4 d R @.>.5.7.9.q.q.9.5.#.K i < 6 n 2.B.V.V.V.V.V.V.V.V.",
"V.V.V.V.V.V.V.V.V.V.M.^ 8 < < 8 i j n M M b s 9 < : 6 j ..z.V.V.V.V.V.V.V.V.V.V.",
"V.V.V.V.V.V.V.V.V.V.V.V.t.W g y 8 6 1 1 < < 1 8 i D 1.z.V.V.V.V.V.V.V.V.V.V.V.V.",
"V.V.V.V.V.V.V.V.V.V.V.V.V.V.z.w.*.| W K R W ..7.g.B.V.V.V.V.V.V.V.V.V.V.V.V.V.V."
};
