/* XPM */
static char *_2414210a66a40db907d8e58382aaf285q6dxIeF2GiONfIK[] = {
/* columns rows colors chars-per-pixel */
"40 40 144 2 ",
"   c #0E0E0F",
".  c #120E0D",
"X  c #12110E",
"o  c #0F0E11",
"O  c #100F13",
"+  c #0F1013",
"@  c #111113",
"#  c #191717",
"$  c #1B1916",
"%  c #161619",
"&  c #1B1B1C",
"*  c #211E1B",
"=  c #25241F",
"-  c #1F1F20",
";  c #232324",
":  c #2C2B24",
">  c #272729",
",  c #2B2B2C",
"<  c #3B3A2F",
"1  c #2F2F30",
"2  c #323234",
"3  c #393730",
"4  c #393B31",
"5  c #363638",
"6  c #3B3B3D",
"7  c #433E37",
"8  c #454339",
"9  c #4B473C",
"0  c #46483A",
"q  c #4A493F",
"w  c #3F3F41",
"e  c #424244",
"r  c #4E4D41",
"t  c #464648",
"y  c #494749",
"u  c #4B4B4C",
"i  c #525344",
"p  c #57544A",
"a  c #59564C",
"s  c #5F5D4D",
"d  c #4F4F50",
"f  c #4F5051",
"g  c #535354",
"h  c #575759",
"j  c #595758",
"k  c #5A5A5B",
"l  c #615E53",
"z  c #676457",
"x  c #646658",
"c  c #716E5F",
"v  c #5F5F61",
"b  c #636364",
"n  c #686667",
"m  c #6D6F61",
"M  c #676769",
"N  c #6B6A6B",
"B  c #706D60",
"V  c #747165",
"C  c #7A7567",
"Z  c #70706E",
"A  c #797769",
"S  c #7E7A6C",
"D  c #6F6F70",
"F  c #757475",
"G  c #787676",
"H  c #7A7976",
"J  c #767678",
"K  c #797778",
"L  c #7C7A7B",
"P  c #807B6F",
"I  c #837F74",
"U  c #807E7E",
"Y  c #828274",
"T  c #84827D",
"R  c #8A867C",
"E  c #8B897F",
"W  c #7F7F81",
"Q  c #817F81",
"!  c #848384",
"~  c #888584",
"^  c #8B8983",
"/  c #868688",
"(  c #8B8B8C",
")  c #918D8B",
"_  c #939387",
"`  c #94928F",
"'  c #9B998C",
"]  c #8F8E91",
"[  c #908F91",
"{  c #939294",
"}  c #9A9796",
"|  c #9E9B94",
" . c #979799",
".. c #9B9B9C",
"X. c #A2A095",
"o. c #ACA79C",
"O. c #9E9EA0",
"+. c #A3A3A4",
"@. c #A9A6A7",
"#. c #AFAEA4",
"$. c #A6A6A9",
"%. c #ABAAAC",
"&. c #B0ADA7",
"*. c #B1ADAA",
"=. c #B5B1AA",
"-. c #B7B9AF",
";. c #AFAFB1",
":. c #B1ADB3",
">. c #B3B3B4",
",. c #BABBB1",
"<. c #B6B5B9",
"1. c #BAB6BD",
"2. c #BABABC",
"3. c #C0C0BF",
"4. c #CAC6BD",
"5. c #BEBEC0",
"6. c #C3C2C4",
"7. c #CCC8C0",
"8. c #C7C7C9",
"9. c #C7C8CA",
"0. c #CBCBCC",
"q. c #CFCFD1",
"w. c #D3D3D4",
"e. c #D4D4D6",
"r. c #D7D8D7",
"t. c #D7D7D9",
"y. c gray86",
"u. c #DADADC",
"i. c #DDDDDF",
"p. c #E1E1DA",
"a. c #DEDEE0",
"s. c #E0E0E1",
"d. c #E3E4E5",
"f. c #E7E7E7",
"g. c #E9E7E5",
"h. c #E7E6EC",
"j. c gray91",
"k. c #EDEDED",
"l. c #EEEEF3",
"z. c #F0EFF1",
"x. c #F1F1F1",
"c. c #F5F5F6",
"v. c #F9F9F9",
"b. c white",
/* pixels */
"b.b.b.b.b.b.b.b.b.b.b.b.b.b.k.w.>.../ L W ] +.6.s.v.b.b.b.b.b.b.b.b.b.b.b.b.b.b.",
"b.b.b.b.b.b.b.b.b.b.b.x.6.{ N u 6 2 , > > , 2 e k / 2.j.b.b.b.b.b.b.b.b.b.b.b.b.",
"b.b.b.b.b.b.b.b.b.c.<.D e 1 , 6 g M L ! W J b u 2 > 5 b +.f.b.b.b.b.b.b.b.b.b.b.",
"b.b.b.b.b.b.b.b.f.L 5 , 5 M  .;.5.6.9.0.q.w.e.q.5. .k , 2 b <.v.b.b.b.b.b.b.b.b.",
"b.b.b.b.b.b.b.f.b > 5 F +.2.2.5.2.2.>.>.>.2.8.w.u.a.t.>.b > e ..x.b.b.b.b.b.b.b.",
"b.b.b.b.b.b.b.L ; g  .>.>.>.;.( N h u t t u k J ..6.u.s.u..., e ( k.b.b.b.b.b.b.",
"b.b.b.b.b.b.<.6 b +.%.%.;.>.W 5 5 2 2 2 2 5 5 6 e h / 6.i.i.h , e L k.b.b.b.b.b.",
"b.b.b.b.b.>.e N +.@.@.%.%.;.! 5 6 u v N F N g 6 5 6 e h ..t.! % 5 e ( x.b.b.b.b.",
"b.b.b.b.9.e b O.+.+.$.@.@.%.@.{ ..;.2.2.0.y.i.3.L 6 2 w t W >.y % > 6 ..v.b.b.b.",
"b.b.b.j.j g  .O.O.+.+.$.@.@.%.>.>.1.1.2.6.w.h.c.x.8.N 2 6 e F <./ k > e 6.b.b.b.",
"b.b.b.( 5 / ......O.+.+.$.@.%.;.>.>.=.#.#.-.9.s.z.l.a.( 5 5 e ! y.i. ., N j.b.b.",
"b.b.w.6 b  . . .....O.+.+.$.%.%.' V r < 4 0 x _ 4.g.d.i...5 6 y ..i.t.j 2 @.b.b.",
"b.b.L 5 / { {  . .....O.+.+.X.c : @     o @ % = a o.p.i.u.( 2 w j 6.i.@., b j.b.",
"b.s.6 j ] [ { {  . .......| p # o @ @ @ @ @ % % # 7 ' p.s.u.b 2 e ( y.w.d 6 2.b.",
"b.@., F ( ( ] { {  . ...| l X o @ @ @ @ @ @ @ % % % 8 o.g.l.6.6 6 j 6.u./ > ( v.",
"b.D 5 ! ( ( ( ] { { { } I $ o @ @ @ o @ @ @ @ @ % % % l 7.k.l.F 2 e +.y.>., v f.",
"j.e y / / ( ( ( ( ] { ` r   @ @ @ @ 2 h j e - @ @ % % : ' s.c.>.5 6 L w.6.6 e 0.",
"0.2 j / / / ( ( ( ] ) E : o @ @ o 6 / L N b g & @ @ % $ m 0.h.e.y 5 b 9.0.g 2 %.",
"2., b ! ! ! / / ( ( ) P $   @ @ % ( { ( { F N e o @ @ @ i ,.e.r.k 2 g 5.0.b , ] ",
"@.> b ! ! ! / / / / ^ C # O + o ; ;.$.>...{ F j @ O @ X 8 &.6.8.b 2 u <.8.N > W ",
"..; b Q Q ! ! ! / / ^ A $ o @ @ & $.%.8.>.( / g o O O . 9 &.2.2.k 2 u >.6.M > L ",
"+.> b U U U Q ! ! ! ! Y ; o @ @ o j 2.>.@.O.W > o @ @ O s *.1.>.f 1 g >.5.b > / ",
">.> g L L L U U T T ! E 8 o @ @ @ % j +.%./ 1 o @ @ o $ H :.>.+.w , k <.2.g 1 ..",
"e.2 y L L L L L L U Q ~ c # o @ @ @ o % & @ o @ & @   < ' %.;.( 2 2 F 2.>.w 6 <.",
"k.y 5 F L H L L L L W Q E 9   O @ @ @ @ @ @ @ O % % * A @.%.%.! , 5  .2.+.1 d e.",
"b.F , N H G G L L L K L T I < O O @ @ + + @ @ @ o & z | $.$.@.+.L / ;.2.W , N x.",
"b.>.: g H G G G K K b b L U I q $ o o O O o o @ : B ' +.+.+.+.$.%.%.>.>.g 1 ..b.",
"b.j.y 2 Z G F F F G N g N H L R V q : * * = 3 s R } ..O.+.+.+.+.$.%.>. .1 e 0.b.",
"b.b. .; g F G G G F F b j N K L T R Y S S I E ) {  .....O.+.+.+.$.%.%.k > N c.b.",
"b.b.f.y > y g y y b F F b n G L L L U T ~ ~ ( ] { {  .....O.+.+.+.%./ , 5 2.b.b.",
"b.b.b.>., ; ; & ; , b F F F G K L L L Q ! / / ( ( {  . .....O.+.+...w > L c.b.b.",
"b.b.b.v.! ; ; > ; ; u F F F G G L L L U ! ! / ( ( { {  . .....+...d & b f.b.b.b.",
"b.b.b.b.x.F > , > ; g F F F F G G L L L U ! / / ( ( ` {  ..... .k e ( j.b.b.b.b.",
"b.b.b.b.b.x.F > > ; j F F F F F F G L L L ! ! / ~ ( ( { {  .( g u 0.b.b.b.b.b.b.",
"b.b.b.b.b.b.k.F ; - y F F F F F F G L L L U ! ! / ( ( { ( L e u 9.b.b.b.b.b.b.b.",
"b.b.b.b.b.b.b.x.( , ; u N F F F F F G L L L U ! / / / L g 2 b y.b.b.b.b.b.b.b.b.",
"b.b.b.b.b.b.b.b.b.2.d - , y b N F F G L L L L L L N y , 6 ..x.b.b.b.b.b.b.b.b.b.",
"b.b.b.b.b.b.b.b.b.b.k...y ; ; , 6 u g j j g u e , > 8 / y.b.b.b.b.b.b.b.b.b.b.b.",
"b.b.b.b.b.b.b.b.b.b.b.b.k.2.L u 2 > ; ; ; , 5 u F %.f.b.b.b.b.b.b.b.b.b.b.b.b.b.",
"b.b.b.b.b.b.b.b.b.b.b.b.b.b.b.x.y.6.>.@.;.6.y.k.b.b.b.b.b.b.b.b.b.b.b.b.b.b.b.b."
};
