/* XPM */
static char *result[] = {
/* columns rows colors chars-per-pixel */
"40 40 130 2 ",
"   c #0E0E0F",
".  c #120E0D",
"X  c #12110E",
"o  c #0F0E11",
"O  c #100F13",
"+  c #0F1013",
"@  c #111113",
"#  c #191717",
"$  c #1B1A16",
"%  c #161619",
"&  c #1B1A1C",
"*  c #211E1B",
"=  c #25241F",
"-  c #1F1F21",
";  c #242324",
":  c #2C2B24",
">  c #272729",
",  c #2B2B2C",
"<  c #3B3A2F",
"1  c #2F2F30",
"2  c #323234",
"3  c #393730",
"4  c #363638",
"5  c #3B3B3C",
"6  c #423E37",
"7  c #444339",
"8  c #4A473C",
"9  c #46483A",
"0  c #4A493F",
"q  c #3F3F41",
"w  c #424244",
"e  c #484647",
"r  c #4E4C41",
"t  c #474748",
"y  c #484748",
"u  c #4B4B4C",
"i  c #575449",
"p  c #59554C",
"a  c #5E5D4D",
"s  c #4F4F51",
"d  c #535354",
"f  c #585657",
"g  c #575759",
"h  c #595758",
"j  c #5A5A5C",
"k  c #615D52",
"l  c #676356",
"z  c #636558",
"x  c #6F6C5F",
"c  c #5F5F61",
"v  c #646364",
"b  c #6C6E60",
"n  c #676769",
"m  c #6A6A6B",
"M  c #716F61",
"N  c #706F6D",
"B  c #797366",
"V  c #79776A",
"C  c #7E7A6D",
"Z  c #6F6F71",
"A  c #757475",
"S  c #787677",
"D  c #7A7975",
"F  c #777779",
"G  c #797778",
"H  c #7C7B7B",
"J  c #827E73",
"K  c #807E7E",
"L  c #7F8073",
"P  c #848375",
"I  c #83817C",
"U  c #8A867F",
"Y  c #8A887E",
"T  c #7F7F81",
"R  c #817F80",
"E  c #848384",
"W  c #888485",
"Q  c #8A8982",
"!  c #878689",
"~  c #8A878A",
"^  c #8B8B8C",
"/  c #918D8C",
"(  c #929286",
")  c #96938D",
"_  c #9A978A",
"`  c #9A988B",
"'  c #8F8F91",
"]  c #938F96",
"[  c #939394",
"{  c #999695",
"}  c #9D9A93",
"|  c #979699",
" . c #9A9A9C",
".. c #A19F94",
"X. c #ABA69B",
"o. c #9E9EA0",
"O. c #9FA0A0",
"+. c #A2A2A4",
"@. c #A8A5A6",
"#. c #AEACA4",
"$. c #A6A6A9",
"%. c #ABAAAC",
"&. c #B1ACA9",
"*. c #B6B8AE",
"=. c #AEAEB1",
"-. c #B0ACB2",
";. c #B2AFBA",
":. c #B2B2B4",
">. c #B7B6B9",
",. c #B9B6BB",
"<. c #BBBBBC",
"1. c #CAC6BE",
"2. c #BFBFC1",
"3. c #C3C2C4",
"4. c #C9C9C7",
"5. c #C6C6C9",
"6. c #CACBCB",
"7. c #CECED1",
"8. c #D3D3D4",
"9. c #D7D7D9",
"0. c #DBDBDC",
"q. c #E0DFD9",
"w. c #DFDFE1",
"e. c #E4E4E4",
"r. c #E8E6E4",
"t. c #E6E5ED",
"y. c #ECECEC",
"u. c #EEEEF1",
"i. c #F2F2F3",
"p. c #FFFFFF",
/* pixels */
"p.p.p.p.p.p.p.p.p.p.p.p.p.p.p.p.y.9.1.%.@.-.3.0.u.p.p.p.p.p.p.p.p.p.p.p.p.p.p.p.",
"p.p.p.p.p.p.p.p.p.p.p.p.p.e.=.S u 4 > ; = = ; 2 u H <.y.p.p.p.p.p.p.p.p.p.p.p.p.",
"p.p.p.p.p.p.p.p.p.p.p.0.Q q ; 1 w u d j h d u 5 , - ; y  .y.p.p.p.p.p.p.p.p.p.p.",
"p.p.p.p.p.p.p.p.p.u.| q , y n D H H H H G G A A N z y , ; u <.p.p.p.p.p.p.p.p.p.",
"p.p.p.p.p.p.p.p.9.v 2 d F ! E E E H K G G G A A A A N n y ; , ! i.p.p.p.p.p.p.p.",
"p.p.p.p.p.p.p.4.s w F ^ ' ~ ! Q E E K H H G G A A A A A A t - ; A y.p.p.p.p.p.p.",
"p.p.p.p.p.p.6.s d ^ | ) ' / ^ Q E E E H K G G G A A A A A h ; ; ; A y.p.p.p.p.p.",
"p.p.p.p.y.! t j |  .| | ' ' ^ ^ E E E K K G G G G G A A A s ; > 1 ; A i.p.p.p.p.",
"p.p.p.e.n & s  .O.o. .[ [ [ ] ^ ~ W E R K H D H A G A A S u ; = ; ; ; T p.p.p.p.",
"p.p.i.H > q [ $.O.o. .o.| [ ] ^ ~ ! W R R T H D G S A A A n 1 = & = ; > %.p.p.p.",
"p.p.<.4 1 E %.$.O.o.o. . .| [ [ ' ~ E U I K H H G G v v A A v e t d y > y e.p.p.",
"p.i.Z > j %.$.$.$.O.o.o. . .| ] / Q J C C P I I H G m f v A A A D A A d ; | p.p.",
"p.6.w 1 [ =.%.$.$.O.o.o.o.o.{ P a 3 = * * : 8 M J K G n f m G G A D S m 3 y y.p.",
"p. .1 d :.=.=.%.$.$.+.$.o.{ b : @ o   o O   o # r J J K v k G G S D D D i > :.p.",
"u.Z > T <.=.E F $.$.$.$.} l & o O o O + o O O O O 6 J R G A K G F S S S n , A p.",
"8.i 1 o.<.[ 4 1 T %.%.$.V = % % @ @ O + O O O O O . r R R R G K H H S F A 4 u y.",
">.q q =.2.Z 1 2 ~ -.%._ <   @ & @ + @ & % + @ @ + + # x I L T T H H H H H t 3 8.",
"| 1 s 2.>.c 1 q +.;.-.J # o + @   , ! %.O.j % + + @   7 Y E R E T H E H H d > >.",
"E > c 2.:.s 1 s -.,.&.a @ @ o o ; T o.$.=.>.g o @ +   = L I E E T E T T I j ; +.",
"L > n 2.:.u 1 c ,.<.#.8 . O @ o s E ~ :.5.=.O.- + @   $ V Q E E E T E L E v ; O.",
"T > n 5.:.u 2 c 5.3.#.7 # @ @ + j A '  .:.$.=.- o + O # B Q W E E E I E E v ; %.",
"' > c 5.2.d 2 j 9.8.*.i @ @ @ o w m Z ' ' [ ' % @ O . $ C ^ ! ! ! E E E E v , >.",
"%.2 d 6.5.v 4 u 8.t.6.x & @ @ @ - d v m F E q o o @ o : Y ^ ] ! ^ ! ~ E E f 2 7.",
"6.w q 3.7.H 5 4 >.i.w.` : @ % @ + - w j g 1 o o @ o   r ) ' ) ' ^ ^ ! E Q y w r.",
"t.j , =.9.O.w 4 A u.y.3.a & % @ @ @ @ @ @ o O @ + o & J { [ [ ] ' ' ~ ~ E 4 Z p.",
"p.^ > ! 0.3.j 5 q 3.u.e.X.7 & @ % @ @ O @ O X O o @ a  . .| [ [ ' ' ' ^ A , $.p.",
"p.<.5 s 8.9.! w 2 v 0.w.q._ 6 # @ % @ @ @ X . O # i `  . . .| | [ [ ' ' j q w.p.",
"p.t.n > $.w.3.g q 1 ^ 0.w.q.X.p ; @ O o     # : x ..+.X. . . .| [ [ [ ! 4 L p.p.",
"p.p.%.2 j 9.0.O.t q 2  .0.e.r.1.( z 9 < 3 0 B ` %.%.$.+.+. . . .| [ [ v 5 8.p.p.",
"p.p.y.n > [ 0.9.T w 4 4 ' w.u.u.w.4.*.#.@.%.:.-.=.%.%.+.+.+.+. . . .! 4 ! p.p.p.",
"p.p.p.2.w > j E :.F w q 1 n 5.u.i.t.8.3.2.2.2.:.=.%.$.%.$.+.O.o.o.| s j y.p.p.p.",
"p.p.p.p.O.q > & u =.T t q 1 q L 2.0.0.6.2.:.%. .' $.%.%.$.$.$.+.o.v w 4.p.p.p.p.",
"p.p.p.p.i.' w 4 % E 8. .g w 4 4 5 d m Z Z c s q 4 T =.%.%.%.$.+.m w :.p.p.p.p.p.",
"p.p.p.p.p.y.H w > j 0.w.2.E g w q 4 2 2 2 1 1 4 2 T =.=.%.=.+.v q >.p.p.p.p.p.p.",
"p.p.p.p.p.p.y.^ w ,  .0.w.9.3.o.F c s t t s g n ! =.:.:.=.| d ; H p.p.p.p.p.p.p.",
"p.p.p.p.p.p.p.u. .w > c ;.8.w.0.7.5.<.:.=.:.>.2.2.2.,.$.Z 4 > v r.p.p.p.p.p.p.p.",
"p.p.p.p.p.p.p.p.i.>.v 1 1 j [ 2.7.8.7.7.6.5.3.<.=.' n 4 , 4 H e.p.p.p.p.p.p.p.p.",
"p.p.p.p.p.p.p.p.p.p.e.$.c 4 > 1 u n F T T F n d 4 1 1 w Z >.i.p.p.p.p.p.p.p.p.p.",
"p.p.p.p.p.p.p.p.p.p.p.p.t.>.! j w 2 , > , , 2 5 s Z ' 3.u.p.p.p.p.p.p.p.p.p.p.p.",
"p.p.p.p.p.p.p.p.p.p.p.p.p.p.i.e.3.+.' T H E  .:.7.y.p.p.p.p.p.p.p.p.p.p.p.p.p.p."
};
