/* XPM */
static char *result[] = {
/* columns rows colors chars-per-pixel */
"40 40 131 2 ",
"   c #0E0E0F",
".  c #120E0D",
"X  c #12110E",
"o  c #0F0E11",
"O  c #100F13",
"+  c #0F1013",
"@  c #111113",
"#  c #191717",
"$  c #1B1A16",
"%  c #161619",
"&  c #1B1A1C",
"*  c #211E1B",
"=  c #25241F",
"-  c #1F1F21",
";  c #242324",
":  c #2C2B24",
">  c #272729",
",  c #2B2B2C",
"<  c #3B3A2F",
"1  c #2F2F30",
"2  c #323234",
"3  c #393730",
"4  c #393B31",
"5  c #363738",
"6  c #3B3B3D",
"7  c #433E37",
"8  c #454339",
"9  c #4A473C",
"0  c #4A493F",
"q  c #3F3F41",
"w  c #424244",
"e  c #484647",
"r  c #4E4D41",
"t  c #464648",
"y  c #484749",
"u  c #4B4B4C",
"i  c #525344",
"p  c #575449",
"a  c #59564C",
"s  c #5F5D4D",
"d  c #4F4F50",
"f  c #535354",
"g  c #575759",
"h  c #595758",
"j  c #5A5A5C",
"k  c #615E53",
"l  c #676456",
"z  c #636658",
"x  c #6F6C5F",
"c  c #5F5F61",
"v  c #646364",
"b  c #6C6F61",
"n  c #676769",
"m  c #6B6A6B",
"M  c #706F6D",
"N  c #747267",
"B  c #797467",
"V  c #7E7A6D",
"C  c #6F6F71",
"Z  c #757475",
"A  c #787677",
"S  c #7A7975",
"D  c #777778",
"F  c #797778",
"G  c #7C7B7B",
"H  c #837F74",
"J  c #807E7E",
"K  c #818174",
"L  c #84827C",
"P  c #8B877F",
"I  c #8B897F",
"U  c #7F7F81",
"Y  c #817F81",
"T  c #848484",
"R  c #888482",
"E  c #8B8982",
"W  c #878689",
"Q  c #8A878A",
"!  c #8B8B8C",
"~  c #918E8C",
"^  c #939386",
"/  c #96938D",
"(  c #9B998B",
")  c #8F8F91",
"_  c #938F96",
"`  c #939394",
"'  c #9A9795",
"]  c #9D9B93",
"[  c #979799",
"{  c #9A9A9C",
"}  c #A19F94",
"|  c #ABA79C",
" . c #9E9EA0",
".. c #A2A2A4",
"X. c #A9A6A6",
"o. c #AEADA5",
"O. c #A6A6A9",
"+. c #ABAAAC",
"@. c #B0ABA6",
"#. c #B1ADA9",
"$. c #B4B0A9",
"%. c #B7B8AE",
"&. c #AFAEB1",
"*. c #B0ACB3",
"=. c #B2AFBA",
"-. c #B3B3B4",
";. c #B9BAB1",
":. c #B7B6B9",
">. c #B9B6BB",
",. c #BBBABC",
"<. c #BFC0BE",
"1. c #CBC7BE",
"2. c #BEBEC0",
"3. c #C3C2C4",
"4. c #C7C7C9",
"5. c #CBCBCC",
"6. c #CFCFD1",
"7. c #D3D3D4",
"8. c #D7D7D8",
"9. c #D7D8DA",
"0. c #DBDBDC",
"q. c #E1E0DA",
"w. c #DEDEE0",
"e. c #E4E4E4",
"r. c #E8E7E5",
"t. c #E7E6ED",
"y. c #EBEBEB",
"u. c #EEEEF1",
"i. c #F0EFF1",
"p. c #F2F2F3",
"a. c #FFFFFF",
/* pixels */
"a.a.a.a.a.a.a.a.a.a.a.a.a.a.a.y.7.:... .+.;.6.r.a.a.a.a.a.a.a.a.a.a.a.a.a.a.a.a.",
"a.a.a.a.a.a.a.a.a.a.a.a.y.-.D u 2 > ; = ; , 2 t C O.w.a.a.a.a.a.a.a.a.a.a.a.a.a.",
"a.a.a.a.a.a.a.a.a.a.r.` e > > 5 y g z v n v j u 5 , 6 G 7.a.a.a.a.a.a.a.a.a.a.a.",
"a.a.a.a.a.a.a.a.a.*.e ; 3 p n Z G G Y U L T T T T Z j 4 6 ! r.a.a.a.a.a.a.a.a.a.",
"a.a.a.a.a.a.a.p.Y > > f M S F F G G J Y T T T T W ! ) W v 5 g 5.a.a.a.a.a.a.a.a.",
"a.a.a.a.a.a.y.Z ; ; e Z A A A Z G G G J T T W W ! ! ) ` [ T d t &.a.a.a.a.a.a.a.",
"a.a.a.a.a.y.Z ; ; - a A Z S F J G G T T T T Q ! ! ) ` ` [ { [ v w ,.a.a.a.a.a.a.",
"a.a.a.a.p.Z ; 1 ; - e Z Z S F F J T J T T T Q ~ ) ` ` ` [ {  . .m q G e.a.a.a.a.",
"a.a.a.a.! - > > ; ; e A Z F J G G J T T W Q Q ! ` ` [ [ [  . .....v ; v e.a.a.a.",
"a.a.a.,., * ; - ; , v Z F Z F J L L T T T Q ! _ ` [ [ { {  . ...O...f > G p.a.a.",
"a.a.y.u ; e h d d v A C m v A U U T L I E ~ ~ ` ` [ { {  . ...O.+.&.[ 5 5 :.a.a.",
"a.a.{ ; u Z Z Z A Z Z n f v G Y R I K B B H I / [ { {  . ...O.+.+.+.-.C , C i.a.",
"a.y.y , m Z Z Z Z M v h n H J R x 8 = $ # $ : 0 H ]  .} ....+.+.+.&.:...5 q 3.a.",
"a.,.; u Z Z Z Z A A n m F J H 9 #   +   O       & k ' ..+.+.+.+.&.-.-.,.n 2 ) a.",
"a.G - z Z C Z A A F Z Z H H 7 . + + +   + @ o @ @ X p } O.+.+.+.U U &.,.[ , m y.",
"p.u , m Z Z Z Z A F G J J 9 . O   + + + o + @ O @ @ # b +.&.&.) 5 5 W 2.&.6 d 6.",
"0.2 7 Z Z Z Z A F G G L b $ o + @ + + & ; % + o + + o : ( -.-.{ q 2 m 2.2.d q &.",
"3.; u Z Z A F F F G G L 0   @ @ @ $ g ..&.! q o o + @ @ N -.>.+.d 2 f :.4.n 1 { ",
"*.= f Z G G G G J G L K : o @ @ + j ,.+.O.` W 1 o + +   r #.2.>.c 1 d -.4.D 1 W ",
"+.- h G Z G G G J T L V * O   @ % ..&.4.:.! D g + @ @   < X.2.,.C 2 t &.6.U > D ",
"#.; h G G G Y J J Y R H & O @ + & +...-. .) m g @ @ @ + 4 o.3.5.C 2 t &.6.U > U ",
"3.> g G G G T T T W Y H =   @ O % T  .! ` Z v w + @ X   9 %.7.0.C 2 d 2.7.D , ) ",
"9.2 u G G T R R T Q Q P < o   @   , U T C m g - @ % @ # l 5.t.0.g 5 c 4.7.v 2 ..",
"i.u w G T T T W Q ! ~ ~ s @ @ + @ + ; f g w - + % @ % = ^ w.p.<.5 q D 7.6.u w 3.",
"a.Z 1 F R T E ! ! ` ` _ L :   % & @ o o @ + + + @ % # a 1.i.i.G 2 w  .0.2.2 c e.",
"a.$.> n W W ! ! ! ` ` [ ' x # # @ + @ o @ @ @ + % % 7 | r.u.4.q 6 g 3.w.[ ; W p.",
"a.e.w y W E ! ) _ ` [ [ { ^ l = o o @ @ @ % % % & 8 ( q.e.w.n 2 w T 9.8.g 2 :.a.",
"a.a.T , G ) ) ` [ [ [  .....] V < # . .   X $ : k | q.0.0.! 2 q j 2.w.-.1 v r.a.",
"a.a.9.q f ) / ` [ [  . .....O.O.( S s 9 9 i x ( 4.r.w.w.{ 2 q t [ w.9.v 2 ..a.a.",
"a.a.a.{ 2 D [ [ [ [  .......O.&.&.&.@.@.#.;.5.w.y.t.w.! 2 6 w U 8.0.{ > v e.a.a.",
"a.a.a.u.v w ! {  . . .....O.O.+.&.=.>.>.3.7.t.p.y.3.v 2 q t Z -.T g , w :.a.a.a.",
"a.a.a.a.9.d f [ .. .......O...T Q ..-.>.4.9.7.:.Z 6 1 q t U -.y & , w { p.a.a.a.",
"a.a.a.a.a.4.u c { ..O.O.O.+.G 1 1 w d c c c t 5 2 5 w g { 9.W & 5 w ! i.a.a.a.a.",
"a.a.a.a.a.a.5.t d { +.+.+.+.T 5 1 , 1 1 1 1 2 q w c W 3.0.0.j > w U y.a.a.a.a.a.",
"a.a.a.a.a.a.a.T & q T &.&.&.&.` D c d y d f c U  .3.w.w.8.` > 6 ) y.a.a.a.a.a.a.",
"a.a.a.a.a.a.a.y.n > , j [ &.,.,.,.,.-.-.-.2.4.7.9.w.7.O.j > t { p.a.a.a.a.a.a.a.",
"a.a.a.a.a.a.a.a.e.G 5 > 1 f U  .-.,.2.3.4.4.5.3.&.W d > 2 m 2.a.a.a.a.a.a.a.a.a.",
"a.a.a.a.a.a.a.a.a.p.,.C w 2 > 1 q f c n n v f 6 , > 6 v +.y.a.a.a.a.a.a.a.a.a.a.",
"a.a.a.a.a.a.a.a.a.a.a.p.5.[ C d 6 , > > > > 2 w c W 2.t.a.a.a.a.a.a.a.a.a.a.a.a.",
"a.a.a.a.a.a.a.a.a.a.a.a.a.a.i.7.,.{ T G U ) +.5.e.a.a.a.a.a.a.a.a.a.a.a.a.a.a.a."
};
