/* XPM */
static char *result[] = {
/* columns rows colors chars-per-pixel */
"40 40 133 2 ",
"   c #0E0E0F",
".  c #120E0F",
"X  c #10100E",
"o  c #0F0E11",
"O  c #100F12",
"+  c #0F1013",
"@  c #111113",
"#  c #1A1614",
"$  c #1C1B17",
"%  c #161618",
"&  c #1B1B1C",
"*  c #201E19",
"=  c #1F201B",
"-  c #23221D",
";  c #1E1E20",
":  c #242324",
">  c #2E2B24",
",  c #262628",
"<  c #2B2A2C",
"1  c #3A372F",
"2  c #37392F",
"3  c #2F2F31",
"4  c #312F30",
"5  c #333335",
"6  c #3B3B31",
"7  c #363638",
"8  c #393738",
"9  c #3B3B3C",
"0  c #423F37",
"q  c #44443A",
"w  c #4A473C",
"e  c #4C4A3E",
"r  c #3E3E41",
"t  c #434345",
"y  c #474748",
"u  c #4B4B4C",
"i  c #524F46",
"p  c #565549",
"a  c #5D5A4D",
"s  c #4F4F51",
"d  c #504F50",
"f  c #535355",
"g  c #575759",
"h  c #595758",
"j  c #5A5A5B",
"k  c #625F52",
"l  c #605E5F",
"z  c #62615F",
"x  c #6C6A5B",
"c  c #5F5F60",
"v  c #636364",
"b  c #686667",
"n  c #676769",
"m  c #6B6B6C",
"M  c #726D62",
"N  c #737262",
"B  c #78756A",
"V  c #7E7B6D",
"C  c #757475",
"Z  c #787676",
"A  c #7A7A75",
"S  c #777779",
"D  c #797778",
"F  c #7C7B7B",
"G  c #817E72",
"H  c #807E7F",
"J  c #818274",
"K  c #82817C",
"L  c #89857C",
"P  c #8B897D",
"I  c #7F7E80",
"U  c #817F80",
"Y  c #848384",
"T  c #888386",
"R  c #8C8984",
"E  c #868588",
"W  c #8A878A",
"Q  c #8B8B8C",
"!  c #938F8A",
"~  c #939487",
"^  c #93928F",
"/  c #9B978B",
"(  c #9A998C",
")  c #8F8F91",
"_  c #918F91",
"`  c #939294",
"'  c #9C9992",
"]  c #979699",
"[  c #9B9B9D",
"{  c #A19E97",
"}  c #A29F9C",
"|  c #9FA194",
" . c #A2A29D",
".. c #AAA59A",
"X. c #9F9FA1",
"o. c #A3A3A5",
"O. c #A8A7A4",
"+. c #ACA9A4",
"@. c #A7A7A9",
"#. c #A7A8AA",
"$. c #ABABAC",
"%. c #B3AFAC",
"&. c #B5B7AE",
"*. c #AEAEB1",
"=. c #B0AEB9",
"-. c #B3B2B4",
";. c #BAB6B3",
":. c #BABBB3",
">. c #B6B5BA",
",. c #BAB6BC",
"<. c #BBBBBC",
"1. c #C1BDB3",
"2. c #C2C2BD",
"3. c #BFBFC1",
"4. c #C2C2C4",
"5. c #CDCAC1",
"6. c #C7C7C9",
"7. c #CBCBCC",
"8. c #CECFD0",
"9. c #D4D4D4",
"0. c #DDDBD5",
"q. c #D7D7D9",
"w. c #DCDCDD",
"e. c #DFDFE2",
"r. c #E3E3E3",
"t. c #E8E6E4",
"y. c #E6E5EC",
"u. c #E9E7EF",
"i. c #ECECEC",
"p. c #EEEDF2",
"a. c #F0EFF2",
"s. c #F3F3F3",
"d. c #FFFFFF",
/* pixels */
"d.d.d.d.d.d.d.d.d.d.d.d.d.d.d.8.[ F m n m I ` -.9.s.d.d.d.d.d.d.d.d.d.d.d.d.d.d.",
"d.d.d.d.d.d.d.d.d.d.d.d.d.t.I r < < < < < 3 3 9 s m X.9.d.d.d.d.d.d.d.d.d.d.d.d.",
"d.d.d.d.d.d.d.d.d.d.d.r.$.g , t c m I E E I m s 7 < < y Q q.d.d.d.d.d.d.d.d.d.d.",
"d.d.d.d.d.d.d.d.d.i.] u t v Q o.$.-.>.,.<.3.4.3.-.` j 3 , s o.p.d.d.d.d.d.d.d.d.",
"d.d.d.d.d.d.d.d.3.g 9 m ` o.@.$.$.*.-.-.*.$.>.3.6.8.6.$.v < 7 I r.d.d.d.d.d.d.d.",
"d.d.d.d.d.d.s.[ 9 s E [ X.X.o.@.$.$.*.o.g y g m ) -.6.9.8.X.t < m q.d.d.d.d.d.d.",
"d.d.d.d.d.s.W 3 j _ ] ] [ X.X.o.#.#.$.] 7 5 5 5 9 y S -.9.q.3.g , n q.d.d.d.d.d.",
"d.d.d.d.d.Q < v ` ` ` ] [ [ X.o.#.$.$.#.S j u r 5 5 9 s ) 8.w.8.v , C t.d.d.d.d.",
"d.d.d.d.o.< h Q ) ^ ` ] [ [ X.o.@.#.$.$.=.-.&.o.I f 5 9 t S 7.w.8.j < Q s.d.d.d.",
"d.d.d.7.7 y Y Q Q ) ` ` ] [ [ o.o.$.$.*.-.=.,.<.6.6.` r 9 r C 7.e.4.r r 3.d.d.d.",
"d.d.s.z 5 C Y W Q ) ) ` ] ] [ [ o.O.#.+.+.%.;.<.4.q.y.>.y 7 t F 9.e.` , S a.d.d.",
"d.d.-., j Y Y W Q Q ) ` ` [ [ } ' G k e w i x ~ &.8.u.s.>.9 9 y [ e.] ; y 3.d.d.",
"d.s.f 4 A Y U Y R Q Q ) ` ` ( A 6 # X o +   X - p | 9.s.a.[ 3 r j 4.I ; r C s.d.",
"d.<.: f H Y Y Y E R Q ) ^ ^ x = . + + + + X + + @ 2 ~ w.a.e.n 5 t E ) % 9 f 9.d.",
"d.A , m H U Y Y Y E Q Q ~ N $ o @ + @ + + @ % X % @ 2 ..r.r.-.7 r g *.y ; 9 @.d.",
"i.u 7 Z F H H Y Y E E R L > o + o @     X + + @ @ % % a 5.r.q.v 7 t o.4.c ; C s.",
"9.5 y F D H U U K Y R P k @ O + @ o : y g r & o + % % < / r.w.] 3 t I e.7.r f w.",
"-.< h F F F H U Y Y Y P 1   + +   < ) Q S m j ; + + % $ M 0.r.2.7 r n q.e.j r 4.",
"[ , l A D D F H H K Y J : . @ + % F *.` ) C v t % @ % % p 2.i.w.y 9 j 6.q.m 7 -.",
"' : z D D D F F F U Y V = O o @ % @.*.3.X.) n g % + @ % q 1.a.y.j 7 g 6.e.S 3 o.",
") , z A Z Z D G F I U G * O @ @ % ` $.6.#.) C j @ @ @ % q :.i.i.c 7 f 4.w.C 3 o.",
"[ , j A C A D D D F U L > o O @ @ g 4.$.[ Y Y 7 o @ @ X e 2.y.r.j 7 j 6.q.m 5 +.",
";., y A C C D D b z F Y w O O @ @ % v $.$.I t + @ o O # N 2.w.9.u 7 v 7.8.g 7 >.",
"9.5 , d b C C C b h A H M $ O O @ @ + & < & o + O O . > / 4.7.$.9 7 S 9.4.9 y 7.",
"a.p ; : , 8 v C m h m G U i O O @ @ O o o o # O @ O # x %.,.1.C 5 9 ] 8.#.< j y.",
"d.) ; : ; : t C C l v D H G 6 O o + + O @ o & % O @ p  .,.,.@.t 5 s >.6.F ; S s.",
"d.9.7 < , - 5 C C m m Z D H G w # O O o o o # % * a / $.=.=.n 3 5 I 4.<.y < o.d.",
"d.s.n , , : t C C C G Z D H H G x 0 - $ % $ - y V { $.$.*.U 5 3 s *.3.` , y w.d.",
"d.d.-., : < n C C C Z Z F F I K L L J B N V P (  .@.@.#.o.t 3 7 ) <.>.s , Y d.d.",
"d.d.s.h & 9 C C C C Z Z D D I U T T W ! _ ] [ X.X.o.@.@.@.g 9 S -.3.Y , y 7.d.d.",
"d.d.d.<., 5 n C C C C D D F F U Y E W ) ) ] ] X.X.o.o.o.#.o.[ *.<.o.7 7 ` d.d.d.",
"d.d.d.d.Y - y C C C C C D D H F U T W Q ) ` ] [ X.X.o.@.@.$.*.>.$.s < n i.d.d.d.",
"d.d.d.d.i.j : s m C C C A A I U K R E Q ) ` ] ] | X.X.o.@.#.*.$.j < f 8.d.d.d.d.",
"d.d.d.d.d.w.p ; u m C C C A F U Y Y R Q ) ) ^ ] [ X.o.o.@.*.X.f , y >.d.d.d.d.d.",
"d.d.d.d.d.d.w.h & 9 v C D D D F I Y Y Q Q ) ` ] ] X.X.@.@.E t , t $.d.d.d.d.d.d.",
"d.d.d.d.d.d.d.i.F : , u m D D I I K Y Y Q ) ) ] ] X.X.Q g , , u <.d.d.d.d.d.d.d.",
"d.d.d.d.d.d.d.d.d.;.d & , y z C F Y E Q Q ) ` ` Q S g r , y R w.d.d.d.d.d.d.d.d.",
"d.d.d.d.d.d.d.d.d.d.a.#.h < ; 3 r d g c l l f t 9 t C 3.9.y.d.d.d.d.d.d.d.d.d.d.",
"d.d.d.d.d.d.d.d.d.d.d.d.s.8.} m d 0 5 5 2 t g Z #.q.d.d.d.d.d.d.d.d.d.d.d.d.d.d.",
"d.d.d.d.d.d.d.d.d.d.d.d.d.d.d.d.i.r.q.8.q.r.s.d.d.d.d.d.d.d.d.d.d.d.d.d.d.d.d.d."
};
