/* XPM */
static char *result[] = {
/* columns rows colors chars-per-pixel */
"40 40 131 2 ",
"   c #0E0E0F",
".  c #110E0F",
"X  c #14120F",
"o  c #0F0E11",
"O  c #100F13",
"+  c #0F1013",
"@  c #111113",
"#  c #191717",
"$  c #1A1A16",
"%  c #161619",
"&  c #1B1B1C",
"*  c #23221B",
"=  c #1E1E20",
"-  c #201F20",
";  c #242324",
":  c #2C2B23",
">  c #262628",
",  c #2B2A2C",
"<  c #38342E",
"1  c #37392F",
"2  c #39382F",
"3  c #2F2F31",
"4  c #333335",
"5  c #363738",
"6  c #383738",
"7  c #3B3A3C",
"8  c #414136",
"9  c #454139",
"0  c #48473B",
"q  c #4B493E",
"w  c #3F3F41",
"e  c #434345",
"r  c #4C4C43",
"t  c #474749",
"y  c #4B4B4C",
"u  c #524D45",
"i  c #535146",
"p  c #595947",
"a  c #555349",
"s  c #57594A",
"d  c #4E4E50",
"f  c #4F5052",
"g  c #535355",
"h  c #565658",
"j  c #595758",
"k  c #5B5A5C",
"l  c #636154",
"z  c #646458",
"x  c #69655A",
"c  c #6E695E",
"v  c #5F5F61",
"b  c #636364",
"n  c #696767",
"m  c #666668",
"M  c #6C6C6D",
"N  c #716E62",
"B  c #706E6F",
"V  c #747264",
"C  c #7A7567",
"Z  c #6F6F70",
"A  c #716F70",
"S  c #757374",
"D  c #787776",
"F  c #7B7B75",
"G  c #777779",
"H  c #797778",
"J  c #7C7B7C",
"K  c #827D74",
"L  c #807E7E",
"P  c #848174",
"I  c #84827B",
"U  c #8A857C",
"Y  c #88887E",
"T  c #7E7E80",
"R  c #817F81",
"E  c #848384",
"W  c #8B8785",
"Q  c #8D8981",
"!  c #868688",
"~  c #88868A",
"^  c #8B8B8C",
"/  c #928D86",
"(  c #919484",
")  c #95928D",
"_  c #99958A",
"`  c #9A998C",
"'  c #8F8F90",
"]  c #918F93",
"[  c #929294",
"{  c #9A9793",
"}  c #9E9E93",
"|  c #979799",
" . c #9B9B9C",
".. c #A39F96",
"X. c #9FA095",
"o. c #A4A39D",
"O. c #9E9EA1",
"+. c #A3A3A4",
"@. c #A9A6A4",
"#. c #A6A6A9",
"$. c #A8A7AC",
"%. c #ABABAD",
"&. c #B4B0A7",
"*. c #B4B3AE",
"=. c #AEAEB1",
"-. c #B0ACB4",
";. c #B3B3B4",
":. c #B6B5BA",
">. c #B9B7BB",
",. c #BBBBBC",
"<. c #C1BEB4",
"1. c #C1C2BD",
"2. c #CAC6BD",
"3. c #CBC9BE",
"4. c #BFBFC1",
"5. c #C3C3C4",
"6. c #C7C7C9",
"7. c #CBCBCC",
"8. c #D0D0CD",
"9. c #CECED0",
"0. c #D2D2D4",
"q. c #DAD9D0",
"w. c #D6D5D8",
"e. c #DBDBDC",
"r. c #E0E1DF",
"t. c #DDDDE0",
"y. c #E3E3E3",
"u. c #EBEBEB",
"i. c #EEEEF3",
"p. c #F3F3F4",
"a. c #FFFFFF",
/* pixels */
"a.a.a.a.a.a.a.a.a.a.a.a.a.a.a.a.a.a.p.y.y.u.u.p.a.a.a.a.a.a.a.a.a.a.a.a.a.a.a.a.",
"a.a.a.a.a.a.a.a.a.a.a.p.6.#.^ #. .S k y t t i v E =.e.a.a.a.a.a.a.a.a.a.a.a.a.a.",
"a.a.a.a.a.a.a.a.a.p.,.m 5 ; & 4 d k b m m k a w , > 5 Z 4.p.a.a.a.a.a.a.a.a.a.a.",
"a.a.a.a.a.a.a.a.r.E 7 > 4 g J [  . . .| [ ' ^ E F m y , > z 5.a.a.a.a.a.a.a.a.a.",
"a.a.a.a.a.a.a.7.m 3 , k [ #.$.+.O.O. .| [ ^ ^ ! E E J B d > > ^ i.a.a.a.a.a.a.a.",
"a.a.a.a.a.a.5.h , w ^ =.-.%.#.+.O. .| | [ ' ^ ! E E L L H b 6 & x y.a.a.a.a.a.a.",
"a.a.a.a.a.5.g > y +.>.;.%.%.+.+.+. . .| [ ' ^ ! E E R J H D B t & g e.a.a.a.a.a.",
"a.a.a.a.7.g > d %.>.;.+.#.#.+.+.O.O. .| | ) ^ ^ ! R R J J D D S y & k u.a.a.a.a.",
"a.a.a.u.m > t %.4.=.G e M #.#.+.+.O. .| [ [ ^ W ! R L L K H H A Z t & F a.a.a.a.",
"a.a.a.| 3 4 O.4.;.M 4 , t +.#.#.+.+.O. .| ] ' ^ E E L L H H H H S M 7 ; %.a.a.a.",
"a.a.w.y ; T 5.,.G 4 3 7 E %.#.#.+.+.} | [ ] ^ ~ ! R L L H H S S S S b , y u.a.a.",
"a.a.| > d 4.5.' w 3 w ' -.-.%.@.` P V N N K U Y R R L L H H H S S S A y ; +.a.a.",
"a.y.k > | 7.;.f 3 5 ^ >.;.=...V 8 ; # @ % & 2 x U K L J K H H H S A S b ; g p.a.",
"a.:.5 y 6.9.E 5 3 G 4.>.;.{ a $   @ # @ o o . # 9 K L J J H H S S S S z > > 6.a.",
"a.^ > E w.4.g 5 y 5.7.,...q X O o @ & @ + @ @ o . < K L H H H H S S A 7 ; & ] a.",
"u.b , ;.w.+.w 4 T y.0.;.l @ O @ @ @ O o o + + o X . r K R H M M S D y ; > ; b a.",
"w.y w 9.w.T 7 5 ;.i.w.` : @ @ O o o & 4 > + + @ + + # N L H k b S A 4 ; ; , y u.",
"5.w k w.9.M 7 w 0.i.8.c % @ @ O % y J O.=.M % + + @ o r I F b v S A 6 - - > 4 9.",
";.4 Z t.7.k 5 y t.i.2.r % % @ o w J T [ #.5.k + @ o o : K F n j A D k , - ; > =.",
"%.4 G r.6.h 7 f e.u.<.8 % @ @ % h Z ' +.4.=.[ % + @ o * K L B j S D H n y , ;  .",
";.4 k e.6.g 7 y w.y.1.9 % % @ % g m ' O.4.=.| % @ O o * K R J A D D D S D t ; | ",
"1.e > E 6.k 7 e 7.r.3.u % % @ @ e m Z ' | :.S + @ o o : K R R J J D D D D j ; o.",
"w.g , > #.m 7 7 ,.r.q.c $ % @ @ = k S T O.^ ; o + . O 8 Y R L L J F D D D s > ;.",
"y.v 7 % ^ L e 3 | y.r._ ; @ % @ o % 7 d w % o + + + @ z Q R R J J J D D D t 4 7.",
"a.F 7 =  .#.t 4 m y.i.2.a % @ @ @ @ o     + @ + + o < U E E R J L J D D S 5 y u.",
"a.+.5 7 6.6.h w 5 5.i.y.} 1 @ @ @ + + + + + . +   * C Q Q E E E L L J J M > D a.",
"a.7.w y w.e.! w 3 G u.i.9.( 1 @   O + + + @ +   * N / W ! E E L L J J J a > ;.a.",
"a.u.m , ;.r.4.h w 5 ;.i.e.1.} s * @ o     X $ 0 P ) ] ^ ^ E E E E R J S 4 y u.a.",
"a.a.+.3 v w.t.[ e 7 d 4.e.6.,.&._ V p r i x Y { | [ ' ^ ! ! W E R R L j * | a.a.",
"a.a.y.b , +.t.0.F 7 5 g -.5.,.,.:.*.%.@.o.o.X.O.| [ [ ' ^ ! E E E R A , y u.a.a.",
"a.a.a.;.7 w 4.e.5.M 7 5 e L -.>.:.-.=.%.#.+.O. . .[ [ ' ^ ^ ! E E J e > :.a.a.a.",
"a.a.a.p.! , k 6.w.5.M 7 5 5 y J | %.%.%.$.+.O. . .| [ ' ' ^ W E I g > ^ a.a.a.a.",
"a.a.a.a.y.M > b 6.0.5.! y 5 3 5 7 E %.$.#.+.O.O. .| [ ' ' ^ ^ E k > S p.a.a.a.a.",
"a.a.a.a.a.0.k > h :.9.6.$.S y 5 4 S %.%.$.#.+.O. .| [ [ ' ' E g : S u.a.a.a.a.a.",
"a.a.a.a.a.a.7.k > w  .5.5.4.$.E J +.=.%.%.+.+.O. .| | [ [ J t , ! i.a.a.a.a.a.a.",
"a.a.a.a.a.a.a.w.S 3 , m $.4.4.4.>.;.=.=.%.#.+.O.O. . .! b 4 t %.a.a.a.a.a.a.a.a.",
"a.a.a.a.a.a.a.a.y.[ y > 3 v [ =.>.>.;.=.%.%.#.+.| E v w w E e.a.a.a.a.a.a.a.a.a.",
"a.a.a.a.a.a.a.a.a.a.6.E f 3 , w h Z J E E G M h t w g ' w.a.a.a.a.a.a.a.a.a.a.a.",
"a.a.a.a.a.a.a.a.a.a.a.a.0.| M t 5 , , , > > e E +.6.i.a.a.a.a.a.a.a.a.a.a.a.a.a.",
"a.a.a.a.a.a.a.a.a.a.a.a.a.a.u.5.O.T m v M | e.a.a.a.a.a.a.a.a.a.a.a.a.a.a.a.a.a."
};
