/* XPM */
static char *result[] = {
/* columns rows colors chars-per-pixel */
"40 40 140 2 ",
"   c #0E0E0F",
".  c #120E0F",
"X  c #10100E",
"o  c #0F0E11",
"O  c #100F12",
"+  c #0F1013",
"@  c #111113",
"#  c #1A1614",
"$  c #171816",
"%  c #1B1A16",
"&  c #161619",
"*  c #1C1C1C",
"=  c #201E19",
"-  c #1F201B",
";  c #23221D",
":  c #1F1F21",
">  c #211F20",
",  c #242324",
"<  c #2E2B24",
"1  c #262628",
"2  c #282729",
"3  c #2B2B2C",
"4  c #3A372F",
"5  c #37392F",
"6  c #2F2F31",
"7  c #312F30",
"8  c #333335",
"9  c #3B3B31",
"0  c #363739",
"q  c #393738",
"w  c #3B3B3D",
"e  c #423F37",
"r  c #45453B",
"t  c #4A463B",
"y  c #4B493D",
"u  c #3F3F40",
"i  c #403F42",
"p  c #434345",
"a  c #474749",
"s  c #4B4B4C",
"d  c #524F46",
"f  c #515343",
"g  c #555549",
"h  c #5C574E",
"j  c #5C5A4A",
"k  c #4E4E50",
"l  c #545355",
"z  c #585657",
"x  c #575759",
"c  c #57585A",
"v  c #5A5A5C",
"b  c #615D51",
"n  c #605E5F",
"m  c #61605F",
"M  c #686759",
"N  c #6C695A",
"B  c #5F5F60",
"V  c #636364",
"C  c #686667",
"Z  c #676768",
"A  c #6B6B6C",
"S  c #716E62",
"D  c #747460",
"F  c #767468",
"G  c #7D7B6E",
"H  c #6F6F71",
"J  c #716F71",
"K  c #757474",
"L  c #787676",
"P  c #7B7B75",
"I  c #767678",
"U  c #797778",
"Y  c #7C7B7C",
"T  c #817D71",
"R  c #807F7E",
"E  c #7F8074",
"W  c #838377",
"Q  c #888376",
"!  c #85837C",
"~  c #89857D",
"^  c #8B887D",
"/  c #7F7E80",
"(  c #807F80",
")  c #848383",
"_  c #8B8785",
"`  c #8A8984",
"'  c #878789",
"]  c #89878A",
"[  c #8B8B8C",
"{  c #928E89",
"}  c #929386",
"|  c #96958B",
" . c #999689",
".. c #9A988C",
"X. c #8E8E90",
"o. c #918F92",
"O. c #929294",
"+. c #9B9791",
"@. c #9E9E95",
"#. c #969699",
"$. c #9B9B9D",
"%. c #A19D99",
"&. c #A0A09C",
"*. c #A8A399",
"=. c #9F9FA0",
"-. c #A2A2A4",
";. c #AAA7A4",
":. c #ABA9A0",
">. c #A6A6A9",
",. c #A9A7AB",
"<. c #AAAAAC",
"1. c #B2ADAB",
"2. c #B4B5AC",
"3. c #AFAEB1",
"4. c #AFADB8",
"5. c #B3B3B4",
"6. c #B9B5B1",
"7. c #BCBBB3",
"8. c #B6B3BA",
"9. c #BAB6BC",
"0. c #BBBBBC",
"q. c #C0C1BB",
"w. c #CCC9BF",
"e. c #BEBEC0",
"r. c #C2C2C3",
"t. c #C6C6C8",
"y. c #CBCBCD",
"u. c #CECFD1",
"i. c #D3D3D4",
"p. c #DBDAD3",
"a. c #D7D7D9",
"s. c #DBDBDC",
"d. c #E2E2DF",
"f. c #DEDEE0",
"g. c #E3E3E3",
"h. c #E6E5EB",
"j. c #ECECEC",
"k. c #EEEDF1",
"l. c #F3F3F3",
"z. c #FFFFFF",
/* pixels */
"z.z.z.z.z.z.z.z.z.z.z.z.z.z.z.l.s.t.5.-.-.>.8.y.g.z.z.z.z.z.z.z.z.z.z.z.z.z.z.z.",
"z.z.z.z.z.z.z.z.z.z.z.z.l.a.-.I l w 8 7 6 8 w p c K -.a.z.z.z.z.z.z.z.z.z.z.z.z.",
"z.z.z.z.z.z.z.z.z.z.k.e.K l w , w v H L H Z l u 1 , 3 a ) u.z.z.z.z.z.z.z.z.z.z.",
"z.z.z.z.z.z.z.z.l.e.I a u q : v y.s.s.s.f.a.u.e.>.I a 1 1 a O.g.z.z.z.z.z.z.z.z.",
"z.z.z.z.z.z.z.g.[ u , , : & a e.f.i.y.r.r.t.y.u.u.t.0.X.k 1 8 A y.z.z.z.z.z.z.z.",
"z.z.z.z.z.z.s.K 3 u o.#./ [ 3.-.) Z v x l c V Y $.5.e.r.8.) 0 3 l 7.z.z.z.z.z.z.",
"z.z.z.z.z.a.Z 2 c r.f.f.r.' c p i u w 8 8 8 0 8 w k / <.0.0.-.k 3 a <.z.z.z.z.z.",
"z.z.z.z.f.A 1 V u.f.a.#.c i w 8 8 0 a c V c s w 8 8 8 k X.5.0.<.v 2 p 9.z.z.z.z.",
"z.z.z.l.( 3 c y.f.y.Y a u 8 0 V #.e.p.h.h.g.i.<.H i 6 6 w K 3.8.>.l 1 k s.z.z.z.",
"z.z.z.-.0 i e.f.t.H i 0 6 V 5.a.s.g.k.j.j.h.s.y.e.-.Z 8 6 w #.3.3.=.p , ' z.z.z.",
"z.z.a.l 3 =.a.u.I u w u $.f.f.d.d.p.r.7.6.7.q.0.0.9.3.( a c -.>.,.<.) 3 a h.z.z.",
"z.z.' 1 V u.u.X.i 0 a 5.l.k.g.w. .S g 9 r f S  .<.8.5.<.=.-.>.>.>.>.>.c 1 u.z.z.",
"z.i.a 6 ,.i.3.k u u 5.l.k.p.*.h < * # @ & @ # < N %.<.<.>.>.-.-.-.-.>.' i 0.z.z.",
"z.$.3 v t.t.I w 8 X.h.h.i.| 5 $ & & @ & & @ O . # g ..,.>.>.-.-.-.=.=.$.l K z.z.",
"j.H 2 O.t.5.a 8 l t.a.y.@.5 $ $ & @ @ @ @ o O O o @ j @.>.-.=.-.=.=.=.=.I p s.z.",
"i.s 0 5.t.[ w 8 / t.r.2.g @ @ @ @ @ @ & @ o @ + @ O * G =.=.=.=.$.$.#.$.' w >.z.",
"5.u k e.e.A 8 u =.e.0.} ; O X @ @ : i c c 8 + + + $ @ y | =.$.$.#.#.#.#.X.a L z.",
"o.6 A e.5.l 8 k 3.9.6.M X @ @ O * v B Z K ) i + @ * + < ^ $.#.#.#.O.O.O.X.g x l.",
"/ 6 Y e.,.a 8 v 5.8.1.d o o O + u A K X.X.) / * + + + % G O.#.O.O.O.| O.X.v p g.",
"A 3 ' 0.3.v 8 L 5.4.:.r o o @ + l I X.$.>.$.,.3 + + o $ D O.O.X.X.[ [ ' [ B q p.",
"Z 6 ) 8.5.-.O.<.<.4.;.y o @ o   a ] o.e.r.,.<.: o . O = F [ X.[ [ ' ` ' ` v 0 u.",
"A 3 / 8.3.3.<.<.<.<.;.b   @ @ o : X.3.3.,.r.V + O O O > T ] ] ] ' ) ' ) ) z 8 i.",
"I 3 H 3.<.<.,.,.,.,.-.T % O @ + o 6 Y -.o.c & + O o O e ~ _ ) ) ) ) ) / ) s w g.",
"=.6 v <.<.<.>.>.-.-.&...9   o O + o + * & + + @ @ O # N ~ ( ) ( / ) ) ! Y i g k.",
"i.u i -.>.>.>.-.=.=.=.$.T - o O + + o @ O O O O O o t W W ( ( ( Y R Y Y K 3 A z.",
"z.E 1 [ >.-.=.=.=.=.$.$.+.M % o O + @ X O O O O o 9 P R Y / Y Y Y Y Y Y V , $.z.",
"z.f.c V -.=.=.=.$.$.#.#.#.| S < @ . . O O O . = y T R Y Y Y Y U P Y L L a 3 u.z.",
"z.z.<.p X.=.=.#.$.#.#.O.O.o.{ Q b 4 , = ; < e S ! Y Y P L Y U U L L L A 2 z l.z.",
"z.z.g.k Z $.#.#.#.O.O.O.[ X.[ ` ^ ^ E G T R R R U L L L L L L K K K K s ; ,.z.z.",
"z.z.z.#.u ' #.O.O.O.O.X.[ ` ] ' ) ) ) ! ( ( R L J n J L L L K K K K m 1 k j.z.z.",
"z.z.z.h.c s X.O.X.X.X.{ [ ' ) ) ) ) ! / ( I m z z n A K K K K K K A 0 , 9.z.z.z.",
"z.z.z.z.e.w B X.O.[ [ ' ' ` ) ) ) ) / Y R T C m A K K K K K K K H a * Y z.z.z.z.",
"z.z.z.z.z.#.3 m ` ' ' ) ' ) ) E ) Y Y Y Y Y U K I K J K K K K J s , z j.z.z.z.z.",
"z.z.z.z.z.z.' 3 x ) ' ) ! ) ) ( ) Y Y Y Y L K I V i 8 p C K Z a , s s.z.z.z.z.z.",
"z.z.z.z.z.z.l.' 3 a K ! ) ) ( / / Y I L L L L F q , , , 3 w 8 : v s.z.z.z.z.z.z.",
"z.z.z.z.z.z.z.z.-.q 6 v K / / / Y P L P L K L V , ; , , , * 2 ) j.z.z.z.z.z.z.z.",
"z.z.z.z.z.z.z.z.z.y.V 2 8 l Z L Y P P L L P K g , , 2 1 1 v 0.z.z.z.z.z.z.z.z.z.",
"z.z.z.z.z.z.z.z.z.z.l.<.l , , 0 a z B V m v a 2 : > 8 C 5.k.z.z.z.z.z.z.z.z.z.z.",
"z.z.z.z.z.z.z.z.z.z.z.z.l.0.Y s 8 2 , < , 2 2 8 l [ i.z.z.z.z.z.z.z.z.z.z.z.z.z.",
"z.z.z.z.z.z.z.z.z.z.z.z.z.z.z.j.i.5.$.O.O.$.5.i.j.z.z.z.z.z.z.z.z.z.z.z.z.z.z.z."
};
