/* XPM */
static char *_db617e2dbf141bc87146f0df89f1337Qtej4faQpmJicddI[] = {
/* columns rows colors chars-per-pixel */
"40 40 154 2 ",
"   c #0F0E0F",
".  c #110E0F",
"X  c #13120E",
"o  c #0E0E11",
"O  c #100F12",
"+  c #0F1013",
"@  c #111113",
"#  c #191615",
"$  c #1A1A16",
"%  c #161619",
"&  c #1B1B1C",
"*  c #24231D",
"=  c #1F1F21",
"-  c #201E20",
";  c #1F2020",
":  c #232324",
">  c #2B2723",
",  c #2C2C25",
"<  c #262628",
"1  c #2B2B2C",
"2  c #302D26",
"3  c #36332A",
"4  c #37392E",
"5  c #393B2D",
"6  c #2F2F31",
"7  c #323234",
"8  c #3C3B32",
"9  c #363638",
"0  c #37383A",
"q  c #3A3A3C",
"w  c #403F3F",
"e  c #45423A",
"r  c #48463C",
"t  c #4B493E",
"y  c #3E3F41",
"u  c #434345",
"i  c #484747",
"p  c #4D4941",
"a  c #474749",
"s  c #484749",
"d  c #474849",
"f  c #4B4B4C",
"g  c #534F47",
"h  c #545147",
"j  c #555748",
"k  c #58554B",
"l  c #4F4F51",
"z  c #504F50",
"x  c #535355",
"c  c #585657",
"v  c #5F5C51",
"b  c #565658",
"n  c #595758",
"m  c #5B5B5C",
"M  c #625F52",
"N  c #5F6252",
"B  c #646255",
"V  c #646158",
"C  c #68655A",
"Z  c #6E6C5E",
"A  c #646365",
"S  c #686766",
"D  c #6F6B60",
"F  c #676769",
"G  c #696768",
"H  c #6B6B6C",
"J  c #716D62",
"K  c #706E6F",
"L  c #727164",
"P  c #71706E",
"I  c #7C776A",
"U  c #7D7B6D",
"Y  c #6F6F70",
"T  c #716F70",
"R  c #757475",
"E  c #787676",
"W  c #797876",
"Q  c #777779",
"!  c #797778",
"~  c #7C7B7C",
"^  c #817D72",
"/  c #807E7F",
"(  c #848174",
")  c #84827C",
"_  c #89857C",
"`  c #8B897D",
"'  c #7E7D81",
"]  c #817F81",
"[  c #848384",
"{  c #8A8683",
"}  c #8E8B81",
"|  c #878788",
" . c #89868A",
".. c #8B8B8C",
"X. c #918C87",
"o. c #928F8B",
"O. c #949487",
"+. c #95938D",
"@. c #9B978C",
"#. c #9B9A8D",
"$. c #8E8E90",
"%. c #918F94",
"&. c #929294",
"*. c #969699",
"=. c #9A979A",
"-. c #9B9B9D",
";. c #A29F9D",
":. c #9FA191",
">. c #A4A295",
",. c #A3A29B",
"<. c #9F9FA1",
"1. c #A3A3A4",
"2. c #A9A7A2",
"3. c #A6A6A9",
"4. c #AAAAAC",
"5. c #B1AEAB",
"6. c #AEADB0",
"7. c #B1AFB5",
"8. c #B3B3B4",
"9. c #B6B5BA",
"0. c #BAB6BB",
"q. c #BBBBBD",
"w. c #BFC0BB",
"e. c #C3C0B5",
"r. c #C1C2BE",
"t. c #BFBEC1",
"y. c #C0BDC2",
"u. c #C3C3C5",
"i. c #CDCAC2",
"p. c #C6C7C8",
"a. c #CCCCCD",
"s. c #CFCFD0",
"d. c #D2D2D3",
"f. c #D5D5D6",
"g. c #DCD9D3",
"h. c #D6D6D8",
"j. c #D9D9DA",
"k. c #DCDCDE",
"l. c #DEDEE0",
"z. c #E0E0E1",
"x. c #E3E4E2",
"c. c #E7E6E2",
"v. c #E5E5E6",
"b. c #E7E7E8",
"n. c #EAEAEA",
"m. c #EDEDEE",
"M. c #EDEDF0",
"N. c #EEEDF4",
"B. c #F2F2F2",
"V. c #F4F4F5",
"C. c #F6F6F6",
"Z. c #F4F3F9",
"A. c #FBFBFB",
"S. c white",
/* pixels */
"S.S.S.S.S.S.S.S.S.S.S.S.S.S.m.d.q.4.-.| ..<.4.t.j.B.S.S.S.S.S.S.S.S.S.S.S.S.S.S.",
"S.S.S.S.S.S.S.S.S.S.S.C.d.1.Q b a a f u a a u f m ~ 4.j.A.S.S.S.S.S.S.S.S.S.S.S.",
"S.S.S.S.S.S.S.S.S.A.p.| b 9 < 7 u 7 : 1 1 : 7 y 1 < q m $.a.A.S.S.S.S.S.S.S.S.S.",
"S.S.S.S.S.S.S.S.j.$.x 1 1 m *.u.f.q.A 6 7 F t.d.0...l < 7 b &.v.S.S.S.S.S.S.S.S.",
"S.S.S.S.S.S.A.0.A 9 < A 8.h.z.z.k.h.p.4.6.p.h.k.l.l.d.1.b < 9 F u.S.S.S.S.S.S.S.",
"S.S.S.S.S.C.1.l < u 1.f.k.j.u.<.~ A m b x m F [ 1.p.h.j.a...7 < f 4.A.S.S.S.S.S.",
"S.S.S.S.A.-.u < m q.h.f.0.[ b u u y q q q q y u u m  .t.d.d.4.u : u 1.S.S.S.S.S.",
"S.S.S.S.8.f < A u.d.p.$.x y q 7 6 q a l l u q 6 7 q q b *.p.a.8.f : a 0.S.S.S.S.",
"S.S.S.a.m 1 m u.a.q.Y y q 7 d ~ 4.p.d.d.d.s.u.1.R u 7 0 y ~ q.u.6.a < m f.S.S.S.",
"S.S.n.~ 7 a 8.p.0.A q 9 u $.f.B.Z.M.b.x.x.v.M.C.M.a.[ q 7 9 H 0.u.1.9 7 [ B.S.S.",
"S.S.4.a 7 -.u.q.H q 7 x 8.v.N.M.c.g.i.e.e.i.g.c.m.N.v.3.u 7 9 Q 0.q.| < a 8.S.S.",
"S.z.F 1 H t.t.[ q 7 f 4.s.d.d.w.O.C p e e g D #.r.d.f.s.-.y 7 q $.0.9.b 1 F n.S.",
"S.1.u q 4.q.1.a 7 y -.q.y.r.:.j * % % % % % $ > N >.t.t.0...7 6 l 4.0.*.7 q 4.S.",
"b.H 1 F 0.0.~ 7 7 ~ 0.0.0.O.4 @ @ % % % % % % % # e @.0.0.8.A 1 7 | 9.8.b 1 H M.",
"0.u 1 &.9.8.$.u b 4.9.0.>.5 o @ @ @ @ @ @ @ @ @ @ X t >.9.7.-.u q &.8.8.[ < u u.",
"..7 u 4.8.6.4.1.3.7.8.5.V O @ @ @ @ @ % % @ @ @ @ O # J 4.6.4.<.=.4.4.6.-.7 7 -.",
"R < m 6.4.4.4.4.4.6.7.#.> o @ @ @ & u b b u % o O @ o 8 #.6.4.4.4.3.4.4.3.f <  .",
"R < Y 4.4.4.4.4.4.4.4.U # @ @ @ % b H A F Q b @ @ @ o $ ( 4.3.1.1.1.1.3.4.m : ..",
"..: ~ 4.3.3.3.3.3.3.2.M   @ @   7 ~ R $.&.~ [ < o @ @ # J 1.3.1.1.1.1.1.3.F : 4.",
"u.y ~ 3.1.1.1.1.1.1.,.k   @ @ o u  .&.1.1.&.$.7 o & & % B ,.1.1.<.<.<.1.1.Y x v.",
"p.u ~ 1.<.<.<.<.<.-.;.v   @ @ o q 4.<.p.u.1.6.1 o @ @ @ Z -.<.-.-.-.-.-.<.H x v.",
"u.q Q 1.-.-.-.-.-.-.-.L X @ @ @ % [ u.4.8.u.R @ @ @ o $ U =.-.=.=.=.=.-.-.A l v.",
"d.y F -.=.=.=.=.=.*.=.` * o @ @ o & F &.*.A & @ @ @ o 3 ` *.&.&.&.&.&.*.*.b b m.",
"v.f b *.&.&.&.&.&.&.&.+.h O @ + @ @ o % % o @ + + @ @ B o.%.&.&.&.&.&.&.&.u A C.",
"C.A y $.&.&.&.&.&.&.%.+._ 2 O @ @ @ @ @ @ @ @ @ O . 8 _ ..$...........&.| 7 | S.",
"S.$.6 ~ &.&.&.&.$...$...X.I >   O @ @ @ @ @ @ O . 3 ^ {  . . . . . .....H 1 8.S.",
"S.u.1 m $......... . . .{ } U 8 % o o o o o o # r ^ _ [ [ | | | | | |  .f q k.S.",
"S.m.b 7 [  . . . . .| | | [ [ ` Z e , * * , t L _ ) ) [ [ [ [ [ | | | R < Y A.S.",
"S.S.-.< m  .| | | | | | | [ [ [ { { _ ^ ^ ) ) ) ~ ~ ~ / / / [ [ [ [ [ f < q.S.S.",
"S.S.v.f 7 R | | [ [ [ [ [ ) [ ] ] ' ~ ~ ~ ~ ~ ~ ~ ~ ~ ~ ~ ~ ~ ~ ~ ~ F < A C.S.S.",
"S.S.S.4.< a / [ [ [ [ [ ] / ~ ~ ~ R G H H H R ~ ~ ~ ~ ~ ~ ~ ~ ~ ~ R q 7 u.S.S.S.",
"S.S.S.C.Y : b [ / ] / / ~ ~ ~ ~ ~ K m n m m R ! E E E E E ! ! ~ R s = ..S.S.S.S.",
"S.S.S.S.k.f : c ~ ~ ~ ~ ~ ~ ~ ~ ~ ! R T T K R E R R R R R R E R f & A m.S.S.S.S.",
"S.S.S.S.S.a.w : x ~ ~ ~ ~ E E E E R E E ! R R R R R R R R R T u & z k.S.S.S.S.S.",
"S.S.S.S.S.S.u.q ; u H ~ ~ E E E R R A i f A R R R R R R R A q & x j.S.S.S.S.S.S.",
"S.S.S.S.S.S.S.a.x & 7 m R W E R E A < : : 7 F R R R R F f < & F z.S.S.S.S.S.S.S.",
"S.S.S.S.S.S.S.S.n. .7 : 7 x S P A 7 - : < : q A H A f 1 & 7 =.C.S.S.S.S.S.S.S.S.",
"S.S.S.S.S.S.S.S.S.S.p.R 7 : > 7 1 < : 1 1 < : < 1 : & 7 R d.S.S.S.S.S.S.S.S.S.S.",
"S.S.S.S.S.S.S.S.S.S.S.A.d...x 7 < : = : : = = : 7 x ..f.S.S.S.S.S.S.S.S.S.S.S.S.",
"S.S.S.S.S.S.S.S.S.S.S.S.S.S.m.a.4.| R R Y R ..4.f.B.S.S.S.S.S.S.S.S.S.S.S.S.S.S."
};
