/* XPM */
static char *_a0614fa22274094c35c558917cef5317nUEu5DFOdVKu98V[] = {
/* columns rows colors chars-per-pixel */
"40 40 149 2 ",
"   c #0F0F0F",
".  c #12120F",
"X  c #0F0E11",
"o  c #110F12",
"O  c #0F1013",
"+  c #111113",
"@  c #191612",
"#  c #1D1B16",
"$  c #161619",
"%  c #1B1B1C",
"&  c #201E1F",
"*  c #22231D",
"=  c #1F1F21",
"-  c #232324",
";  c #2D2C24",
":  c #272728",
">  c #282728",
",  c #2B2B2C",
"<  c #36342D",
"1  c #2E2E30",
"2  c #333334",
"3  c #3B3A32",
"4  c #373739",
"5  c #3A3A3C",
"6  c #403E36",
"7  c #3F4137",
"8  c #46443A",
"9  c #4A473C",
"0  c #46483B",
"q  c #4C4A3E",
"w  c #3F3F40",
"e  c #424244",
"r  c #464648",
"t  c #4B4B4C",
"y  c #514E43",
"u  c #54524C",
"i  c #5C5B4B",
"p  c #4E4E50",
"a  c #535354",
"s  c #585657",
"d  c #575759",
"f  c #5A5A5B",
"g  c #615D52",
"h  c #605E5F",
"j  c #636254",
"k  c #656758",
"l  c #686759",
"z  c #6E695D",
"x  c #5E5E61",
"c  c #636365",
"v  c #686667",
"b  c #6F6D61",
"n  c #676768",
"m  c #6B6B6C",
"M  c #726E62",
"N  c #706E6F",
"B  c #737063",
"V  c #787665",
"C  c #71706F",
"Z  c #7C7A6E",
"A  c #6F6F70",
"S  c #757475",
"D  c #787676",
"F  c #7F7D71",
"G  c #777779",
"H  c #797778",
"J  c #7C7A7B",
"K  c #847F73",
"L  c #807E7F",
"P  c #838275",
"I  c #85837B",
"U  c #89857C",
"Y  c #8E887C",
"T  c #7F7E81",
"R  c #817F80",
"E  c #848384",
"W  c #888785",
"Q  c #8D8A84",
"!  c #878788",
"~  c #888489",
"^  c #8B8B8B",
"/  c #928E8B",
"(  c #929386",
")  c #9A978B",
"_  c #9A998B",
"`  c #8F8E91",
"'  c #918F95",
"]  c #939394",
"[  c #999694",
"{  c #9B9891",
"}  c #969699",
"|  c #9B9B9C",
" . c #A4A39A",
".. c #ACA69C",
"X. c #9E9EA0",
"o. c #A3A3A4",
"O. c #A8A5A1",
"+. c #A6A6A9",
"@. c #A8A7AA",
"#. c #A9A9AB",
"$. c #ABABAC",
"%. c #ABABAE",
"&. c #ADADAF",
"*. c #B5B4AD",
"=. c #BCBAAF",
"-. c #AEAEB1",
";. c #AFAFB1",
":. c #B0AFB4",
">. c #B1AEBA",
",. c #B2B1B4",
"<. c #B3B3B4",
"1. c #B3B3B5",
"2. c #B6B6B7",
"3. c #BBBCB5",
"4. c #B7B7B9",
"5. c #B6B5BB",
"6. c #BBB6BC",
"7. c #BBBABC",
"8. c #C0C1BA",
"9. c #CCC8BF",
"0. c #BFBFC0",
"q. c #C0BFC0",
"w. c #C1C1C3",
"e. c #CDCBC1",
"r. c #C7C7C9",
"t. c #C9C9CA",
"y. c #CBCBCD",
"u. c #CECECE",
"i. c #CECFD0",
"p. c #D3D3D4",
"a. c #DBD9D2",
"s. c #D7D7D9",
"d. c gray86",
"f. c #DBDBDC",
"g. c #E0DDD8",
"h. c #E5E5DF",
"j. c #DFDFE1",
"k. c #E3E3E3",
"l. c gray90",
"z. c #E6E6E6",
"x. c #E6E5EC",
"c. c gray91",
"v. c #ECEBEC",
"b. c #EEEDF1",
"n. c #F0EFF1",
"m. c #F2F2F2",
"M. c #F3F3F3",
"N. c #F9F9F9",
"B. c white",
/* pixels */
"B.B.B.B.B.B.B.B.B.B.B.B.B.B.B.N.c.f.u.t.u.d.c.N.B.B.B.B.B.B.B.B.B.B.B.B.B.B.B.B.",
"B.B.B.B.B.B.B.B.B.B.B.B.m.t.] c r 5 2 2 2 e p m } t.m.B.B.B.B.B.B.B.B.B.B.B.B.B.",
"B.B.B.B.B.B.B.B.B.B.c.| a , , 4 t f c m A m c s e w c $.t.z.B.B.B.B.B.B.B.B.B.B.",
"B.B.B.B.B.B.B.B.N.,.r - 2 a N J E ^ ^ ^ ] ] } } } E c e , r ! f.B.B.B.B.B.B.B.B.",
"B.B.B.B.B.B.B.z.D : , s D R E E E E ^ ^ ] ] } } | o.o.} m 4 : a 2.B.B.B.B.B.B.B.",
"B.B.B.B.B.B.d.s - r m J J L E E E ^ ^ ` ] ] } } | X.o.#.$.} a , r #.N.B.B.B.B.B.",
"B.B.B.B.B.d.t : a D H J J R E E E ^ ^ ` ] } } | | o.+.#.$.;.$.n , r &.B.B.B.B.B.",
"B.B.B.B.z.s : s D H H J L R E E ! ^ ^ ` ] } } | X.o.+.#.$.;.,.,.A , s t.B.B.B.B.",
"B.B.B.N.H - u D D D H J L E E E E ^ ^ ] ] } | | o.o.+.#.$.;.,.4.4.c , m z.B.B.B.",
"B.B.B.,.: 2 C D D D H J L E E E E ^ ` ' ] } | | o.+.+.#.&.+.} ;.7.,.t 2 } N.B.B.",
"B.B.m.a = 5 S D D D H J L I E E W Q / ] [ | | | o.+.#.$.$.c 4 n 2.w.| , t u.B.B.",
"B.B.2.: - , c D D D H J J E E E Q Y Z b l B U {  .@.$.&.$.a 2 5 E w.w.n , E N.B.",
"B.N.n : : & 5 S D H H J J E E I j < # + . . # 3 M  .;.:.,.] w 2 r $.t.#.1 r p.B.",
"B.p.2 , : - 2 m D S n H T E P 3 + X X o + + X X @ q _ ,.4.4.J 2 4 D r.r.f , o.B.",
"B.] = : - - e D S h f H E K < X X O O + + + + + + X 8  .6.6.,.p 2 r 2.p.] : D m.",
"m.f % - , 5 n D m s m J U 9   + + + + o X X + + + o o i *.7.w.E 2 5 ] p.4.2 d f.",
"f.5 : a n S D S c f D I M @ X + + + + : 2 - + + + +   * ( q.u.6.e 5 S p.i.t e r.",
"0., r S S D D S v n H U q X + + + $ m ,.+.E t $ + + + + k 8.d.d.a 5 x y.s.n 2 ,.",
"+.- s S S S D D D H J P ; X + + + d 7.$.| J J 5 o + + + 0 3.x.c.c 5 s r.f.G 1 o.",
"} - d S S D D D H H J F * X + + $ } &.r.#.` n f $ + + + 3 *.b.v.n 4 a w.j.E , | ",
"} - s S S D D D H H J F * X + + $ o.;.7.| ` c d $ + $ + 3 =.n.v.f 4 a w.j.E 1 o.",
"o.% s D S D D H H J J P ;   + + + S 4.] ^ G n e + + $ $ q 9.b.f.t 5 f t.k.G 2 $.",
"4.- r D D D D H J J J I 8 o O O X - ! ] E H f % + + $ $ z a.z.w.5 5 c p.f.c 5 6.",
"d.2 5 S D D H H J L E U z @ o + + X $ 5 t 5 $ + + $ $ ; ) h.j.| 2 e T f.u.e t p.",
"m.a , m D H H J J R E E U 3 X + + + + X X X X + $ $ $ g e.k.s.c 2 r o.7.f : D m.",
"B.E % h H H J J L E E ~ Q Z > X X $ % + + o o + $ $ 6 ..z.k.,.4 5 d ;.e - w o.B.",
"B.r.: r D H J L E E E ^ ^ / V ;   $ $ + + o + + $ 7 _ g.v.f.c 2 e ^ ` $ 5 p p.B.",
"B.m.f > m J J E E E ^ ^ ` ' ] I y - @   X o @ ; j  .p.v.b.] 2 w f r.E = w G m.B.",
"B.B.2.: t J L E E E ^ ^ ] ] } | ) P z i u g V ) *.i.x.m.;.5 5 r | j.| - r w.B.B.",
"B.B.m.n : n E E E ^ ^ ] ] } } X.o.+.+.O.O.$.,.6.w.d.z.#.w 5 e E p.k.^ - G m.B.B.",
"B.B.B.p.5 5 H E E ^ ^ ] } } | X.o.+.@.$.;.>.4.6.w.w.E 5 4 w G u.f.6.5 r r.B.B.B.",
"B.B.B.B.&., r E ^ ^ ^ ] } } | X.o.+.+.$.$.#.+.} A r 2 4 e T t.f.t.p , } N.B.B.B.",
"B.B.B.B.B.] , t E ^ ] } } } | o.o.o.+.o.c r w 2 2 2 4 a } u.d.r.d , H c.B.B.B.B.",
"B.B.B.B.B.N.] , t E ] } } | X.o.o.+.#.^ 1 , , 2 5 p T 4.i.p.,.t , m f.B.B.B.B.B.",
"B.B.B.B.B.B.N.+.5 5 H } | | X.o.+.+.#.o.c a x D } ,.r.y.r.^ 2 , S d.B.B.B.B.B.B.",
"B.B.B.B.B.B.B.B.u.c 2 d ! | o.+.#.#.$.;.;.;.2.6.w.w.6.} p : 5 E z.B.B.B.B.B.B.B.",
"B.B.B.B.B.B.B.B.B.m.&.f e d J } +.&.,.2.4.6.4.,.X.H r : : a $.m.B.B.B.B.B.B.B.B.",
"B.B.B.B.B.B.B.B.B.B.B.m.w.n % 2 r f m S S n s w , - , r ^ d.B.B.B.B.B.B.B.B.B.B.",
"B.B.B.B.B.B.B.B.B.B.B.B.B.c.E w , , , , , , 2 5 t m | d.B.B.B.B.B.B.B.B.B.B.B.B.",
"B.B.B.B.B.B.B.B.B.B.B.B.B.B.B.p.| H m n S E } 2.p.m.B.B.B.B.B.B.B.B.B.B.B.B.B.B."
};
