/* XPM */
static char *result[] = {
/* columns rows colors chars-per-pixel */
"40 40 133 2 ",
"   c #0E0E0F",
".  c #110E0F",
"X  c #14120F",
"o  c #0F0E11",
"O  c #110F13",
"+  c #0F1013",
"@  c #111113",
"#  c #191717",
"$  c #1A1A16",
"%  c #161619",
"&  c #1B1B1C",
"*  c #23221B",
"=  c #1E1E20",
"-  c #242324",
";  c #2C2B23",
":  c #262628",
">  c #2A2A2C",
",  c #38342E",
"<  c #37392F",
"1  c #39382F",
"2  c #2F2F31",
"3  c #333334",
"4  c #363738",
"5  c #383738",
"6  c #3B3B3C",
"7  c #414136",
"8  c #454139",
"9  c #48473B",
"0  c #4B4A3F",
"q  c #3F3F41",
"w  c #434344",
"e  c #4B4A43",
"r  c #474749",
"t  c #4B4B4C",
"y  c #545146",
"u  c #55534A",
"i  c #595949",
"p  c #4E4E50",
"a  c #4F5052",
"s  c #535354",
"d  c #585757",
"f  c #565658",
"g  c #595758",
"h  c #5B5B5C",
"j  c #646254",
"k  c #656558",
"l  c #69665A",
"z  c #6E695E",
"x  c #5F5F60",
"c  c #636364",
"v  c #6C6E61",
"b  c #666668",
"n  c #696768",
"m  c #6C6C6D",
"M  c #716E62",
"N  c #706E6F",
"B  c #757264",
"V  c #7A7568",
"C  c #6F6F71",
"Z  c #716F70",
"A  c #757374",
"S  c #787776",
"D  c #797977",
"F  c #767678",
"G  c #797778",
"H  c #7C7B7C",
"J  c #807E6E",
"K  c #837E75",
"L  c #807E7E",
"P  c #7F8072",
"I  c #848274",
"U  c #84827C",
"Y  c #89857C",
"T  c #89887F",
"R  c #7E7E80",
"E  c #817F80",
"W  c #848384",
"Q  c #8B8787",
"!  c #8D8983",
"~  c #878589",
"^  c #89868A",
"/  c #8B8B8C",
"(  c #928D87",
")  c #929484",
"_  c #96928E",
"`  c #9A968B",
"'  c #9A998D",
"]  c #8F8F91",
"[  c #918F93",
"{  c #929294",
"}  c #9B9794",
"|  c #9E9F93",
" . c #979699",
".. c #9B9B9C",
"X. c #A09D95",
"o. c #A2A196",
"O. c #A5A49D",
"+. c #9E9EA0",
"@. c #A2A2A4",
"#. c #A9A6A5",
"$. c #A7A7A9",
"%. c #ABABAD",
"&. c #B4B3AC",
"*. c #AFAEB1",
"=. c #B0AEB4",
"-. c #B3B3B4",
";. c #B8B2B5",
":. c #B6B4BA",
">. c #BAB7BC",
",. c #BBBBBD",
"<. c #C2BEB5",
"1. c #C2C3BE",
"2. c #CAC6BD",
"3. c #BFBFC1",
"4. c #BFC0C2",
"5. c #C3C3C4",
"6. c #C7C7C9",
"7. c #CBCBCC",
"8. c #D0D1CE",
"9. c #CECFD0",
"0. c #D3D3D4",
"q. c #DAD9D1",
"w. c #D6D6D9",
"e. c #DBDBDC",
"r. c #DEDEE1",
"t. c #E3E3E3",
"y. c #EBEBEC",
"u. c #F0EFEF",
"i. c #EFEEF4",
"p. c #F0EFF2",
"a. c #F3F3F3",
"s. c #F3F2F8",
"d. c #FFFFFF",
/* pixels */
"d.d.d.d.d.d.d.d.d.d.d.d.d.d.d.d.t.9.*... ...-.9.y.d.d.d.d.d.d.d.d.d.d.d.d.d.d.d.",
"d.d.d.d.d.d.d.d.d.d.d.d.p.6.[ b t 3 : - - - ; 3 t A >.y.d.d.d.d.d.d.d.d.d.d.d.d.",
"d.d.d.d.d.d.d.d.d.d.y.@.s > & - > - - > e g s e 5 > - e ..t.d.d.d.d.d.d.d.d.d.d.",
"d.d.d.d.d.d.d.d.d.&.t * - : - : - - = t S S S S A m s 3 - t ;.d.d.d.d.d.d.d.d.d.",
"d.d.d.d.d.d.d.y.D - > p c c 6 - - - > m S S S S G H H A d > : ] a.d.d.d.d.d.d.d.",
"d.d.d.d.d.d.t.g & 6 c Z A A N t 3 4 h S A S S S G G H L P A w : A y.d.d.d.d.d.d.",
"d.d.d.d.d.t.s & r N A Z A A A A m A A A S S G G H H L L L E H s - A u.d.d.d.d.d.",
"d.d.d.d.u.c & t Z A A A A A A A A A A A S S L L R U E E W E W W h > W d.d.d.d.d.",
"d.d.d.d.Q & r A A A A S A S G N c h g h A H H L R E U W R W W W W f 2 *.d.d.d.d.",
"d.d.d.5.> 5 N S A A A S S S S m x l n N G H W H U W W W W ~ ~ ~ ^ W r w e.d.d.d.",
"d.d.a.c - n G G G S G S D D G G S S D L E E R W W W W ~ ! / / / / ] R 2 W d.d.d.",
"d.d.,.: t H G H H G H H H H H H L Y L K K I T T W W ~ Q ~ / / ] ] ] { c q w.d.d.",
"d.d.C > C H H H L L L L L G H I M 0 ; * * ; 7 k Y ! Q / / / ] { { { { / 6 { d.d.",
"d.e.5 t H U R U L L L L L L K 0 # o O O o   o @ , V ( / { { { { { {  . .x f y.d.",
"d.%.: n W W W W E E W E Y J , . o @ O O + @ + + o * B _ {  . . . . .....W q 6.d.",
"d.W > H W ~ W W ~ W ~ W Y 8 . . O o @ @ @ @ + +   o ; P  . . . .......+. .r @.d.",
"a.x q W ~ ~ ~ / Q ^ ^ ! l # O + @ @ + % % o o + + +   9 } ..+...+.+.+.+.@.f ~ d.",
"u.p u / / / / / / [ / T 1   + o + % g { ..A - o + + @ $ Y o.+.+.+.@.@.@.$.m q e.",
"y.r x ] ) [ [ [ { { [ J * o o @ + m 5.*.*.>.~ = o + + . l @.@.@.@.$.$.$.%.H :  .",
"t.w c { { { { {  .{ { M % o @   : *.$.5.4. .+.q o + + o y O.$.$.$.$.$.%.*.R : m ",
"y.p b  . . . . . ... .M @ O .   3 ..{ @.+.] R p o o @   0 #.%.%.$.%.%.*.*.W > x ",
"u.h x .. .........+...B # # & @ = R R ] ] A A q o @ o o i &.*.%.*.*.*.*.-.R > b ",
"d.C h ..+.+.+.+.O.@.@.I - # @ O + t R C c b h % @ o O @ B *.-.%.W C @.*.,.C > R ",
"d.+.u ..+.+.@.+.+.@.$.' 7 O O O @ @ 6 h s w = o @ @ O * ` :.:...6 3 H ,.,.f 5 ..",
"d.@.4 { @.@.@.@.@.$.$.$.B # O O O O o % # @ @ @ @ @ + i &.>.>.G 3 4 ^ 3.*.q r 5.",
"d.] = R $.$.$.$.@.$.$.*.| u X O @ O @ O @ @ # @ @ @ < | ,.,.=.t 3 r $.4.{ > m y.",
"d.@.- a $.$.$.$.$.@.%.*.=.} 0 X @ @ @ % % @ # @ % < ) 1.6.5.W 4 4 A 3.4.c 2 ..d.",
"d.7.4 2 { *.%.$.C r W *.:.;.X.j ; % % % % % * * u o.8.e.e.%.w 3 t %.6.$.2 p 9.d.",
"d.u.b : x *.-.@.w > 6 ] :.,.,.&.' v e 8 7 0 z ' 2.t.i.i.5.s 4 6 ^ 6.6.b > W d.d.",
"d.d.,.q > / >.-.F 3 2 q / 4.7.0.w.8.2.<.1.6.q.t.y.s.y.-.p 5 6 C 5.7...> r 7.d.d.",
"d.d.s.W 2 q @.,.-.C 3 3 5 A 5.t.i.a.u.y.t.t.r.t.t.5.A 4 6 q m 5.0.,.w 2 { d.d.d.",
"d.d.d.t.b > t %.,.-.F 6 3 3 r W -.0.r.e.0.7.,...b 5 3 q w F 5.w.6.f : C t.d.d.d.",
"d.d.d.d.7.g > a %.3.3.] p 4 4 4 4 q r a a w 4 2 4 q q f  .9.e.7.c : x 0.d.d.d.d.",
"d.d.d.d.d.,.s - r @.4.5.:.R s q 6 6 6 4 4 q q q r f ~ 3.e.r.4.h : x 7.d.d.d.d.d.",
"d.d.d.d.d.d.5.s - 3 W 3.7.9.4.+.R b h f f h b R @.6.r.r.e.+.q > m 9.d.d.d.d.d.d.",
"d.d.d.d.d.d.d.0.b 2 - t ..6.w.e.e.9.7.6.7.6.$./ +.6.w.-.c > 6 W r.d.d.d.d.d.d.d.",
"d.d.d.d.d.d.d.d.y. .t : : r ~ -.9.e.e.r.e.R : % = 4 t > 2 c ;.a.d.d.d.d.d.d.d.d.",
"d.d.d.d.d.d.d.d.d.d.e.{ h 4 : > q h C F x - 2 6 q 4 w c @.t.d.d.d.d.d.d.d.d.d.d.",
"d.d.d.d.d.d.d.d.d.d.d.d.t.-./ b p 7 3 2 2 w s x F $.7.y.d.d.d.d.d.d.d.d.d.d.d.d.",
"d.d.d.d.d.d.d.d.d.d.d.d.d.d.d.y.0.5.-.*.:.4.e.t.s.d.d.d.d.d.d.d.d.d.d.d.d.d.d.d."
};
