/* XPM */
static char *_56c98cfe5c14945c21a221ff40323ccGrWHKJ0en6yELPIi[] = {
/* columns rows colors chars-per-pixel */
"40 40 146 2 ",
"   c #0E0D0F",
".  c #120D0F",
"X  c #0F100E",
"o  c #12110F",
"O  c #0F0E11",
"+  c #110F13",
"@  c #0F1013",
"#  c #111113",
"$  c #1A1715",
"%  c #171816",
"&  c #161519",
"*  c #1B1B1C",
"=  c #201E1F",
"-  c #23231D",
";  c #1E1E20",
":  c #232324",
">  c #2E2B25",
",  c #272729",
"<  c #282728",
"1  c #2A2A2B",
"2  c #302D27",
"3  c #333127",
"4  c #35332B",
"5  c #39352E",
"6  c #3B3B2E",
"7  c #2F2F31",
"8  c #312F30",
"9  c #323234",
"0  c #3C3A32",
"q  c #373739",
"w  c #393738",
"e  c #3A3A3C",
"r  c #413E36",
"t  c #404237",
"y  c #45433A",
"u  c #4B473D",
"i  c #48483D",
"p  c #3F3F41",
"a  c #434344",
"s  c #474749",
"d  c #484749",
"f  c #4B4B4C",
"g  c #524D45",
"h  c #56594C",
"j  c #5D5B4D",
"k  c #4F4F51",
"l  c #535354",
"z  c #585657",
"x  c #5D5B50",
"c  c #575759",
"v  c #5B5A5C",
"b  c #605E5F",
"n  c #656355",
"m  c #636658",
"M  c #686559",
"N  c #6C6B5C",
"B  c #5E5E60",
"V  c #636364",
"C  c #666668",
"Z  c #6C6B6C",
"A  c #726D62",
"S  c #747262",
"D  c #777569",
"F  c #7C7A6D",
"G  c #6F6F71",
"H  c #716F70",
"J  c #757474",
"K  c #787676",
"L  c #7C7A74",
"P  c #777779",
"I  c #797778",
"U  c #7C7A7B",
"Y  c #817D72",
"T  c #807E7F",
"R  c #828275",
"E  c #898777",
"W  c #83827D",
"Q  c #8A857B",
"!  c #8C8A7E",
"~  c #7F7F81",
"^  c #817F81",
"/  c #848384",
"(  c #898582",
")  c #8C8983",
"_  c #878789",
"`  c #888788",
"'  c #8B8B8C",
"]  c #928E8A",
"[  c #929484",
"{  c #9B978C",
"}  c #9C9A8E",
"|  c #8E8E90",
" . c #908F94",
".. c #929294",
"X. c #989594",
"o. c #979799",
"O. c #9B9B9C",
"+. c #A09F92",
"@. c #A09D9C",
"#. c #A4A195",
"$. c #A3A39D",
"%. c #9E9EA1",
"&. c #A3A3A4",
"*. c #AAA7A6",
"=. c #A6A6A9",
"-. c #A8A7AB",
";. c #ABABAD",
":. c #B4AFAB",
">. c #B6B8AE",
",. c #AEAEB0",
"<. c #B1AEB4",
"1. c #B4AFBB",
"2. c #B2B2B4",
"3. c #BBB7B6",
"4. c #B6B6B8",
"5. c #B8B4BB",
"6. c #BCBBBD",
"7. c #C3BEB4",
"8. c #C4C2BD",
"9. c #B8B4C1",
"0. c #BFBFC1",
"q. c #C3C3C4",
"w. c #CDC9C1",
"e. c #C7C7C9",
"r. c #C8C7CA",
"t. c #CBCBCC",
"y. c #D2D2D4",
"u. c #DBDAD3",
"i. c #D7D7D8",
"p. c gray86",
"a. c #DBDBDD",
"s. c #DCDCDE",
"d. c #DEDDE1",
"f. c #E1E1E3",
"g. c #E6E5E2",
"h. c #E1E1E4",
"j. c #E7E7E8",
"k. c #E9E9E9",
"l. c #EBEBED",
"z. c #EDEDED",
"x. c #EEEEF2",
"c. c #F3F3F3",
"v. c #F2F1F5",
"b. c #F7F7F7",
"n. c #FBFBFB",
"m. c white",
/* pixels */
"m.m.m.m.m.m.m.m.m.m.m.m.m.m.c.s.q.;.O...O.,.q.p.c.m.m.m.m.m.m.m.m.m.m.m.m.m.m.m.",
"m.m.m.m.m.m.m.m.m.m.m.b.y.=.U v a e 9 1 9 s k z J O.q.k.m.m.m.m.m.m.m.m.m.m.m.m.",
"m.m.m.m.m.m.m.m.m.n.e./ l 9 , 9 f C P / V : 7 e e 9 e C &.f.m.m.m.m.m.m.m.m.m.m.",
"m.m.m.m.m.m.m.m.p._ f 1 1 v o.0.y.s.f.h.a.~ : & : e a 1 9 C ;.c.m.m.m.m.m.m.m.m.",
"m.m.m.m.m.m.m.q.v 7 1 V ,.y.a.s.p.y.r.q.e.e.=.' %.t.y.;.v , p / s.m.m.m.m.m.m.m.",
"m.m.m.m.m.n.2.l 1 a O.t.y.y.6.O.U C v l z v C ~ =.t.s.d.y.o.q 7 C r.m.m.m.m.m.m.",
"m.m.m.m.n.;.k , B 4.t.t.2.U l a e e e e e e p a s v ' q.a.a.4.f 1 v r.m.m.m.m.m.",
"m.m.m.m.6.l 1 Z 6.e.0._ f e e 9 e a k l l s e 9 9 p a v O.y.i.0.l , v y.m.m.m.m.",
"m.m.m.t.v 1 V 6.q.4.Z e q 9 z | 8.p.h.h.p.t.6.o.V q 9 e a ~ e.y.6.a , V j.m.m.m.",
"m.m.z.J 9 k 2.6.,.V q 9 a _ t.j.v.v.v.x.k.f.s.f.h.0.G 9 q e J q.t.=.9 1 ' n.m.m.",
"m.m.=.e 9 O.6.2.C q 9 f O.q.t.y.i.t.8.7.7.w.u.g.z.v.l.-.a 9 e U q.e./ : a q.m.m.",
"m.k.v 1 J 4.4.=.p 9 f &.6.6.0.>.[ m i 0 r g A } w.g.x.x.6.s 9 e ..q.6.k , U b.m.",
"m.4.9 e &.2.2.;.J z o.4.9.3.+.h - & # & & & * > x $.y.d.s.&.e 9 k ,.q...1 f t.m.",
"m.' , Z ,.;.;.;.;.;.2.2.2.{ 6 o # # # & & & & & % t } q.r.q.G 9 9 ~ 6.4.f 9 o.m.",
"m.J , | ;.;.;.-.;.;.,.<.#.y O # # # # # # # # & & # y #.6.6.=.p 7 k ;.6.U 1 C k.",
"m.U a %.=.=.=.-.-.-.;.;.N # + # # # # & & # # # # # o M :.5.4.C 1 q ..6.&.9 a q.",
"n.J c &.&.&.=.=.=.=.=.} 3 O # # # & a v z a * O + # . 3 } 1.2.' 9 7 _ 4.2.f 9 o.",
"k.l Z &.%.%.&.&.&.&.&.Y $ O # # # z J C C G v & + + + $ L ;.,.=.J G =.,.2.v 1 J ",
"i.a J %.O.O.O.O.%.O.$.N o # # O 1 / P | ..P ~ 9 O # @ # n *.;.-.;.;.-.;.2.Z 1 v ",
"t.e P O.O.O.O.O.O.O.@.n   # # O e O.o.=.%.' _ p O # @ X j &.-.=.=.=.=.-.,.J , l ",
"q.q J o.o.o.o.o.o.o.O.n X # # O 7 ,.=.e.q.O.&.9 O * * & n $.=.=.&.&.=.=.;.G : C ",
"r.q G o.......o.o...X.D # + # # # P q.;.2.0./ & # # # $ S $.&.&.&.&.&.&.=.C ; o.",
"y.e V ................) >   @ @ # & v ..O.Z * O # # O > ! O.%.O.%.%.%.&.&.v a s.",
"j.a f ' ' ' | | ' ' ' ] j + + # # # O & & O # # # # # j X.O.O.O.O.O.O.%.O.k O.m.",
"n.V e _ ' ' ' ' ' ' ' ) E 5   # # # # # # # @ @ # O 4 E  ...o.o.o.O.O.O.' p 4.m.",
"m...1 J ' _ _ ' ' _ _ _ ) F > O # # # # # # # + + 2 F ]  .........o.o.O.J p p.m.",
"m.r.1 z _ _ _ _ _ _ _ _ / Q R y #   O O O O   $ y Y ) ' ' '  . .........l v b.m.",
"m.c.z 9 P / / / / / / / / / / Q A u > - - > i N E ( _ _ ' ' ' ' ' ' ..U 9 O.m.m.",
"m.m.&.: v / / / / / / W W T ^ ^ / Q R Y Y R Q W W / / / _ _ ` ' ' ' ' l a s.m.m.",
"m.m.k.f 1 J T T T T T T U U U P P P U U U U U U U T T / / / _ _ _ ' Z 1 ' m.m.m.",
"m.m.m.2.: a P U U U U U U U P Z z V Z J I P P P U U U T T / / / _ P e a f.m.m.m.",
"m.m.m.b.Z - l P P P P P P P P J C b v b J I I P P P U U U U T / U f 1 2.m.m.m.m.",
"m.m.m.m.s.f , z P P K K K K K J J J H Z J K K K K I P P P U U P f , ' m.m.m.m.m.",
"m.m.m.m.m.y.a , z J K K K J K J Z J J J J J K J J J K I I P J d : J b.m.m.m.m.m.",
"m.m.m.m.m.m.y.f : a Z K J K Z a 8 e V J J J J J J J J K K C e : P c.m.m.m.m.m.m.",
"m.m.m.m.m.m.m.s.Z , 9 l Z V w = : : 9 Z J J J J J J J Z f , < ..b.m.m.m.m.m.m.m.",
"m.m.m.m.m.m.m.m.c.O.e : 1 1 : : , , : l J J J J Z V a 1 * f 6.m.m.m.m.m.m.m.m.m.",
"m.m.m.m.m.m.m.m.m.m.p.' a : ; : 1 1 : 1 d z f a 9 = * a O.z.m.m.m.m.m.m.m.m.m.m.",
"m.m.m.m.m.m.m.m.m.m.m.m.j.2./ v p 1 : ; ; ; : 1 a Z 4.z.m.m.m.m.m.m.m.m.m.m.m.m.",
"m.m.m.m.m.m.m.m.m.m.m.m.m.m.m.b.s.6.=.o...O.-.r.k.m.m.m.m.m.m.m.m.m.m.m.m.m.m.m."
};
