/* XPM */
static char *result[] = {
/* columns rows colors chars-per-pixel */
"40 40 135 2 ",
"   c #0F0E0F",
".  c #120E0E",
"X  c #11100F",
"o  c #0F0E11",
"O  c #100F12",
"+  c #0F1014",
"@  c #111113",
"#  c #181616",
"$  c #171816",
"%  c #1B1A16",
"&  c #161619",
"*  c #1C1C1D",
"=  c #221F1C",
"-  c #23211C",
";  c #1E1E20",
":  c #232324",
">  c #2A2623",
",  c #2B2C23",
"<  c #262629",
"1  c #2B2B2C",
"2  c #35352B",
"3  c #3A3A2F",
"4  c #2F2F31",
"5  c #333334",
"6  c #3A3A31",
"7  c #363739",
"8  c #3B3A3C",
"9  c #413F36",
"0  c #45443A",
"q  c #4B463B",
"w  c #47493E",
"e  c #4D4A3E",
"r  c #3F3F40",
"t  c #434344",
"y  c #474648",
"u  c #4B4B4C",
"i  c #534F47",
"p  c #555247",
"a  c #575448",
"s  c #4F4F51",
"d  c #535355",
"f  c #5E5C52",
"g  c #565658",
"h  c #595758",
"j  c #5B5B5C",
"k  c #666456",
"l  c #67645A",
"z  c #696A5A",
"x  c #5F5F60",
"c  c #646364",
"v  c #686667",
"b  c #676768",
"n  c #6B6B6C",
"m  c #726F63",
"M  c #706E6F",
"N  c #767464",
"B  c #7A776C",
"V  c #7E7C6D",
"C  c #6F6F71",
"Z  c #716F70",
"A  c #757474",
"S  c #787676",
"D  c #7A7A75",
"F  c #767779",
"G  c #797778",
"H  c #7C7B7C",
"J  c #837E73",
"K  c #807E7F",
"L  c #838073",
"P  c #84827C",
"I  c #89867B",
"U  c #88887C",
"Y  c #7F7F81",
"T  c #817F80",
"R  c #848383",
"E  c #8B8783",
"W  c #8B8883",
"Q  c #868688",
"!  c #89878A",
"~  c #8B8B8C",
"^  c #938F8D",
"/  c #9A968A",
"(  c #979A89",
")  c #9C988E",
"_  c #8F8E91",
"`  c #908F92",
"'  c #939394",
"]  c #9B9790",
"[  c #9D9B93",
"{  c #969699",
"}  c #98969C",
"|  c #9B9B9D",
" . c #A4A095",
".. c #A1A19D",
"X. c #AAA69A",
"o. c #9F9FA1",
"O. c #A2A2A4",
"+. c #AAA6A5",
"@. c #ADA9A3",
"#. c #A6A6A9",
"$. c #ABABAD",
"%. c #B2AEAB",
"&. c #B3B3AC",
"*. c #AEAEB0",
"=. c #B1AFB2",
"-. c #B1AEBB",
";. c #B4B3B5",
":. c #BAB6B4",
">. c #B7B6B9",
",. c #BAB5BB",
"<. c #BBBBBD",
"1. c #BFC0B8",
"2. c #BEBEC0",
"3. c #C3C3C5",
"4. c #CCC9C0",
"5. c #C6C7C9",
"6. c #CBCBCC",
"7. c #D7D5CD",
"8. c #CECFD1",
"9. c #D2D2D3",
"0. c #D7D7D9",
"q. c #DCDCDD",
"w. c #E1DFDA",
"e. c #E3E3DF",
"r. c #DFDFE0",
"t. c #E1DFE9",
"y. c #E3E3E4",
"u. c #E8E6E4",
"i. c #E8E9E7",
"p. c #E4E4E8",
"a. c #E8E7E8",
"s. c #EBEBEC",
"d. c #EEEEF2",
"f. c #F3F3F4",
"g. c #FFFFFF",
/* pixels */
"g.g.g.g.g.g.g.g.g.g.g.g.g.g.g.f.y.5.$...| O.>.9.d.g.g.g.g.g.g.g.g.g.g.g.g.g.g.g.",
"g.g.g.g.g.g.g.g.g.g.g.g.g.0.| x 8 > ; : = = : 5 u P 1.f.g.g.g.g.g.g.g.g.g.g.g.g.",
"g.g.g.g.g.g.g.g.g.g.g.5.Z 5 : 1 8 u d g h d u t 4 : < g $.f.g.g.g.g.g.g.g.g.g.g.",
"g.g.g.g.g.g.g.g.g.e.H 4 1 y c A A D D A A A A Z n j 5 ; : c 6.g.g.g.g.g.g.g.g.g.",
"g.g.g.g.g.g.g.g.1.u 1 u A H Y H G G G S A A A A A A j : : : 8 | f.g.g.g.g.g.g.g.",
"g.g.g.g.g.g.g.$.7 8 n Q R R R H H H G G A A A A A A b < : 1 < : b q.g.g.g.g.g.g.",
"g.g.g.g.g.g.$.7 s P ~ Q R R P Y K H H G G S A A A A n 2 : : : : ; d q.g.g.g.g.g.",
"g.g.g.g.g.3.8 g ~ ^ ~ ~ Q Q R R T K H G G G G A A A A y : * : 5 5 - h p.g.g.g.g.",
"g.g.g.g.y.d s _ ' ' _ _ ~ Q Q R R Y P H H G G S A Z A Z h u j M n s - A f.g.g.g.",
"g.g.g.g.Q y _ | } ' ' _ _ ~ W Q R R Y H H G G S v x M A S S S S S Z t , $.g.g.g.",
"g.g.d.H 8 Y o.| | { ' ' ^ _ ~ Q Q T P P K H H G M x h v S S S S S S n 4 y u.g.g.",
"g.g.~ * j o.o.o.| | { { ' ' _ ~ E I L V D L I H D S c h Z S S S S S D g : { g.g.",
"g.5.7 4 _ O.O.o...| | } { { ^ I l 9 > = - 1 e m P H H M A G G K G D G A 5 u s.g.",
"g.T < d #.#.O.O.o.o.o.o.} ' N 2 O O O . o o   % q J R K T K K G G D H H d : >.g.",
"y.g < Y *.#.O.O.O.O.o.o.[ m -   O @ O O @ o @ O . 3 J R T K K K H T H T n : H g.",
"5.0 5 o.*.*.#.#.O.#.O...V :   + O O @ O @ @ @ O O   q I T T K K T T T H D 7 u f.",
"$.7 y *.*.*.O.#.#.#.#.( 0 & & @ @ o o * $ + + + @ + # z R R P R Y R Y Y K t 7 r.",
"' 4 j >.*.Y y S #.$.$.J * @ & &   1 H #.| g $ + @     3 U R Q R R R R R R f 4 6.",
"Q 1 b <.*.s < s #.-.+.k X @ o o * R *.$.*.>.x + @ @   - J W Q Q Q R R R R c 1 1.",
"Y 1 b 2.*.s 4 d *.-.+.p . @ @ o y ! ~ >.5.$.$.: + + + # N ~ W Q W Q R R R b 1 ;.",
"Y < n 2.*.u 1 g =.,.@.i . O O o s H _ } *.o.$.1 +   . @ m ^ ~ ~ ~ W ~ Q Q b 4 <.",
"! < x 2.;.s 4 s ;.,.%.p . @ O o r C A _ _ Q ~ ;   @ + # B ^ ' ^ _ ~ ~ ~ ~ b 5 6.",
"| 1 s 2.<.x 5 t ;.3.:.N $ @ @ @ ; g c b C Y t + @ @ o - U ' ' ' ' _ ' ~ ~ j r w.",
">.5 8 >.5.F 5 8 $.0.6.( > & & @ + ; r j g 7 + +   +   0 ] } { { ' ' ^ ' ~ s g f.",
"q.u < O.6.| 8 5 Y a.t.1.f & # @ # @ + & @ + + + @ o % B | | | { { { ' _ ~ 8 R g.",
"f.A : Y 8.2.d 7 y 8.f.y.X.9 & & & @ @ + @ @ X @ + X a [ ..o.| | { } { { Y 7 >.g.",
"g.*.5 u 5.8.Q r 5 A s.d.r.( 0 * & & # @ @ @   + @ e ) +.O.O.o.| | } } } x u s.g.",
"g.y.j < o.0.2.d 8 5 { s.i.w.X.f > @ @ @ @ o X > k  .$.$.#.O.O.O.o...| _ r ' g.g.",
"g.g.o.4 g 8.0.o.y 8 7 | q.r.y.4./ k w 6 6 y z / %.*.*.$.$.#.#.O.O.o.o.n u q.g.g.",
"g.g.y.c < ' r.9.Y t 8 5 ! 9.q.a.u.7.1.&.@.&.:.:.>.-.*.$.#.$.#.#.#.O.~ r O.g.g.g.",
"g.g.g.>.r 8 >.r.8.F t 8 4 c >.r.d.f.d.t.8.3.2.<.>.#.Q | $.$.$.$.$.o.d A f.g.g.g.",
"g.g.g.f.` 4 s 5.y.9.Y y r 5 7 b $.9.i.s.r.8.>.o.H u 5 s #.*.*.$.$.b : >.g.g.g.g.",
"g.g.g.g.i.G 1 d o.#.;.{ g r r 4 4 t c C F b s r 4 7 4 g $.;.;.*.Z < g d.g.g.g.g.",
"g.g.g.g.g.y.D 1 : : 4 Q 2.Q g y r 8 7 7 7 7 7 7 8 u C o.>.<.$.b 1 8 <.g.g.g.g.g.",
"g.g.g.g.g.g.p.~ t 8 : : #.r.5.o.Y c g s s s g n _ *.2.2.<.| d < r #.g.g.g.g.g.g.",
"g.g.g.g.g.g.g.f.#.d r : x 0.t.r.0.8.3.2.>.<.2.5.5.5.3.O.n 5 1 j ;.g.g.g.g.g.g.g.",
"g.g.g.g.g.g.g.g.g.5.H y < g ' 3.9.q.q.0.0.9.8.3.*.` x 7 1 y Q 0.g.g.g.g.g.g.g.g.",
"g.g.g.g.g.g.g.g.g.g.f.;.b 7 < 4 u c F R Y A c u 7 < 4 u Y 5.f.g.g.g.g.g.g.g.g.g.",
"g.g.g.g.g.g.g.g.g.g.g.g.s.<._ c y 7 4 4 4 1 4 7 u Z o.9.f.g.g.g.g.g.g.g.g.g.g.g.",
"g.g.g.g.g.g.g.g.g.g.g.g.g.g.g.s.8.;.o.' _ ` O.;.9.d.g.g.g.g.g.g.g.g.g.g.g.g.g.g."
};
