/* XPM */
static char *result[] = {
/* columns rows colors chars-per-pixel */
"40 40 127 2 ",
"   c #0F0E0F",
".  c #100E0F",
"X  c #13120E",
"o  c #0E0E11",
"O  c #100F12",
"+  c #0F1013",
"@  c #111113",
"#  c #1A1513",
"$  c #1A1A16",
"%  c #161619",
"&  c #1C1C1D",
"*  c #201E1F",
"=  c #24231D",
"-  c #232324",
";  c #2B2722",
":  c #2C2C25",
">  c #272729",
",  c #2B2B2C",
"<  c #36332A",
"1  c #37392F",
"2  c #39392E",
"3  c #2F2F31",
"4  c #333334",
"5  c #3E3B33",
"6  c #373739",
"7  c #37383A",
"8  c #3A3A3B",
"9  c #45433A",
"0  c #4B473D",
"q  c #3F3F41",
"w  c #444445",
"e  c #484747",
"r  c #4C4940",
"t  c #474749",
"y  c #4B4B4C",
"u  c #535146",
"i  c #565649",
"p  c #4E4E50",
"a  c #545355",
"s  c #585657",
"d  c #5E5B50",
"f  c #565658",
"g  c #5B5A5C",
"h  c #615E51",
"j  c #5F6151",
"k  c #646155",
"l  c #68645A",
"z  c #6E6B5E",
"x  c #5F5F60",
"c  c #646364",
"v  c #686667",
"b  c #666668",
"n  c #6C6B6C",
"m  c #716E63",
"M  c #706E6F",
"N  c #7B7669",
"B  c #7C7A6C",
"V  c #6F6F71",
"C  c #716F70",
"Z  c #757475",
"A  c #787676",
"S  c #797876",
"D  c #777779",
"F  c #797778",
"G  c #7C7B7B",
"H  c #807C6F",
"J  c #807B72",
"K  c #807E7F",
"L  c #838073",
"P  c #84827B",
"I  c #89857C",
"U  c #8C897D",
"Y  c #7F7E81",
"T  c #817F80",
"R  c #848383",
"E  c #8A8684",
"W  c #878789",
"Q  c #898689",
"!  c #8B8B8C",
"~  c #918B85",
"^  c #928F8C",
"/  c #939487",
"(  c #96938D",
")  c #9A988B",
"_  c #8F8F91",
"`  c #908F94",
"'  c #939395",
"]  c #9D9C97",
"[  c #969598",
"{  c #99979B",
"}  c #9B9B9C",
"|  c #A39F93",
" . c #9DA091",
".. c #A3A495",
"X. c #A4A39D",
"o. c #9F9FA1",
"O. c #A3A3A4",
"+. c #A6A6A9",
"@. c #AAA7A9",
"#. c #AAAAAC",
"$. c #B0ADA9",
"%. c #AFAEB1",
"&. c #B0AEB5",
"*. c #B3B3B5",
"=. c #BBB6B7",
"-. c #B6B5B9",
";. c #B9B5BB",
":. c #BBBBBC",
">. c #C1BFB3",
",. c #C1C1BD",
"<. c #BEBEC1",
"1. c #C3C3C4",
"2. c #CCC9C0",
"3. c #C7C7C9",
"4. c #CCCCCD",
"5. c #CFD0D2",
"6. c #D3D3D4",
"7. c #DBD7D1",
"8. c #D7D7D9",
"9. c #DCDCDD",
"0. c #DFDFE1",
"q. c #E4E4E3",
"w. c #EAEAEB",
"e. c #ECECF2",
"r. c #F2F2F2",
"t. c #F3F2F8",
"y. c #FFFFFF",
/* pixels */
"y.y.y.y.y.y.y.y.y.y.y.y.y.y.y.r.9.3.:.-.;.:.1.8.w.y.y.y.y.y.y.y.y.y.y.y.y.y.y.y.",
"y.y.y.y.y.y.y.y.y.y.y.y.w.:.Y a 8 3 : , , , , 6 y S *.w.y.y.y.y.y.y.y.y.y.y.y.y.",
"y.y.y.y.y.y.y.y.y.y.w.] e - - : > * > , , * - , 3 ; > t [ q.y.y.y.y.y.y.y.y.y.y.",
"y.y.y.y.y.y.y.y.y.-.w & , e c n c 8 - - - * 4 c M v i 4 - w #.y.y.y.y.y.y.y.y.y.",
"y.y.y.y.y.y.y.r.R - - y n C A C A b 4 - = : x F S Z Z Z g 3 : Z w.y.y.y.y.y.y.y.",
"y.y.y.y.y.y.w.c & 6 c Z Z Z C Z Z Z b t t x F Z S S S S G M w - g 0.y.y.y.y.y.y.",
"y.y.y.y.y.w.c & t C A C Z C C A Z Z Z A D Z Z S Z S Z S G G Z a - g w.y.y.y.y.y.",
"y.y.y.y.t.A & y C F F A A F A A A Z n C C Z F F S G G G G G P G s - n r.y.y.y.y.",
"y.y.y.y.O.- e Z S S S S S A A S S M g g s g V G G G G T T K K K T a > [ y.y.y.y.",
"y.y.y.8.8 8 Z G G G G G S S F F S Z M n n c Z G G K T G T R R T R G w 1 5.y.y.y.",
"y.y.y.A , b K K T G G G G G G G G G S G G P Y T R K P R R R R R R R D 3 V y.y.y.",
"y.y.5., y R T P T T T R K K K G K P P J J P I I R R R R R R R R W R W g 4 3.y.y.",
"y.y.R , Z R R R R R R R R K P P m 0 : = = : 9 z I E W R W W W ! ! ! ! R 4 D y.y.",
"y.w.t y W W W W W E R R R I J 9 $   o O o     % 5 B U E Q Q ! ! ! ! ! ! g w q.y.",
"y.3.< n ! ! ! ! Q Q Q Q E H < . O + @ @   @ @ +   ; N ~ ! ! ^ ! _ _ _ _ G 7 -.y.",
"y.} 4 R ( _ ! ! ! ' ! ! I 5 . O @ @ @ o + @ @   + + : I ^ ' ' ' ' ' ' ' _ q ! y.",
"y.G w _ ' _ _ ' ' ' ` ^ h @ . + + o o % % o + + + +   u ( ' [ [ [ ' [ [ [ a V y.",
"t.b f { [ [ [ [ ' [ ' U < o @ o o & c [ ' b & + @ + o = I { { [ } [ [ } } b j r.",
"t.l c } } { [ } { { { B $ + o @ @ Z 1.%.%.<.R % o o @ X m } } } } } } } o.D p q.",
"t.c n o.o.} } o.o.} ] z @ @ +   3 %.o.<.1.o.+.7 o @ +   d X.} X.o.o.o.o.O.D f w.",
"r.j V O.o.o.o.o.o.o.] k % & & o 4 _ _ O.o._ W w o o o   i ..O.O.O.O.O.O.+.G a q.",
"3., b +.O.O.o.O.O.+.X.m # @ o   > R G _ _ D Y 4 o @ +   h +.+.+.+.+.+.+.#.D , ,.",
"+.> f +.+.+.O.O.+.+.@.L $ O @ O + a D b c V a % o @ O # B #.#.#.+.#.+.#.#.V , +.",
"#.3 t +.+.+.+.+.+.+.%.) 2 o O O + % w a a w & o @ + O : ) &.#.#.#.#.%.%.%.g , +.",
"1.7 7 } %.#.+.{ o.#.%.#.m # O O + o   % % @ + @ O X   h $.&.%.+.o.%.%.*.+.w 8 1.",
"q.a > R *.%.` 8 w } &.&.| r X @ @ % @ + @ @ @ @ O   2 ..;.-.+.a q _ *.-.' , f q.",
"y.W , a *.*.W 4 , c *.-.;.( 9 # % % % % % % % @ @ 1 / =.;.;.S 6 4 G ;.;.b 3 W t.",
"y.3.w 3 [ :.+.p 3 6 W :.<.:...h ; % % % % @ @ = i  .,.<.<.} q 4 t O.:.+.7 w 1.y.",
"y.t.T , f -.:.! 7 3 q o.5.6.6.,.) z u 9 9 r l / :.5.6.5.#.y 4 8 R <.<.n , S r.y.",
"y.y.4.p > R :.:.D 7 4 w +.q.e.w.q.7.,.=.>.2.7.q.e.e.q.*.a 4 7 V :.1.} 3 y 3.y.y.",
"y.y.t.[ 4 7 o.<.-.n 7 4 8 R 4.w.r.w.w.q.q.q.e.t.r.6._ q 4 7 c -.3.-.w 4 [ y.y.y.",
"y.y.y.w.n > t %.1.<.G 8 7 4 w Z O.,.4.6.6.6.3.#.S w 4 q q V <.4.<.g , n q.y.y.y.",
"y.y.y.y.5.a - y *.3.3.[ f q 7 4 3 7 t p p t 6 3 4 8 q p _ 3.5.1.c - a 5.y.y.y.y.",
"y.y.y.y.y.1.y - w @.5.5.<.W x w q q 8 7 8 8 q q w f R :.6.8.<.f - p <.y.y.y.y.y.",
"y.y.y.y.y.y.3.f : 4 W 4.8.8.1.O.R b g a f g b Y o.1.8.0.8.o.q > g 1.y.y.y.y.y.y.",
"y.y.y.y.y.y.y.9.Y 7 > a O.5.0.0.9.8.3.#.#.3.6.0.0.0.8.%.c > 7 A 8.y.y.y.y.y.y.y.",
"y.y.y.y.y.y.y.y.r.#.x 4 > p _ -.6.:.n 3 3 c :.8.<.[ g , , g @.r.y.y.y.y.y.y.y.y.",
"y.y.y.y.y.y.y.y.y.y.q.O.b q > 3 8 4 - , , - 4 w 3 > 7 x } q.y.y.y.y.y.y.y.y.y.y.",
"y.y.y.y.y.y.y.y.y.y.y.y.w.<.' n a y y y t y y y b W <.w.y.y.y.y.y.y.y.y.y.y.y.y.",
"y.y.y.y.y.y.y.y.y.y.y.y.y.y.y.r.9.5.3.:.-.3.4.9.w.y.y.y.y.y.y.y.y.y.y.y.y.y.y.y."
};
