/* XPM */
static char *result[] = {
/* columns rows colors chars-per-pixel */
"40 40 134 2 ",
"   c #0E0E0F",
".  c #120E0F",
"X  c #12110F",
"o  c #0F0E11",
"O  c #100F13",
"+  c #0F1013",
"@  c #111113",
"#  c #1A1715",
"$  c #181816",
"%  c #161618",
"&  c #191718",
"*  c #1B1B1C",
"=  c #201E1F",
"-  c #23231D",
";  c #1F1F21",
":  c #232324",
">  c #2E2B24",
",  c #272729",
"<  c #2A2A2B",
"1  c #302D26",
"2  c #333127",
"3  c #33322C",
"4  c #38352E",
"5  c #3B3B2E",
"6  c #2F2F31",
"7  c #312F30",
"8  c #333334",
"9  c #3C3A32",
"0  c #373739",
"q  c #393738",
"w  c #3A3A3C",
"e  c #434237",
"r  c #45443A",
"t  c #4A463C",
"y  c #47483D",
"u  c #3F3F41",
"i  c #424244",
"p  c #474748",
"a  c #474849",
"s  c #4A4A4B",
"d  c #514D45",
"f  c #56584B",
"g  c #5C5A4C",
"h  c #4F4F50",
"j  c #535354",
"k  c #585557",
"l  c #575759",
"z  c #5B5B5C",
"x  c #646254",
"c  c #6B6A57",
"v  c #656558",
"b  c #6A665C",
"n  c #6D6C5E",
"m  c #5F5F61",
"M  c #636264",
"N  c #6C6964",
"B  c #676769",
"V  c #6A6768",
"C  c #6B6B6C",
"Z  c #726D62",
"A  c #706E6F",
"S  c #767468",
"D  c #7A776C",
"F  c #7C7A6D",
"G  c #6F6F71",
"H  c #716F70",
"J  c #757374",
"K  c #787676",
"L  c #7C7B73",
"P  c #767678",
"I  c #797778",
"U  c #7C7A7B",
"Y  c #817D73",
"T  c #807E7F",
"R  c #858376",
"E  c #898477",
"W  c #84837D",
"Q  c #88847C",
"!  c #8C887D",
"~  c #7E7E80",
"^  c #817F80",
"/  c #848383",
"(  c #8B8783",
")  c #898884",
"_  c #868588",
"`  c #8A878B",
"'  c #8C8B8C",
"]  c #928D86",
"[  c #909283",
"{  c #9A978C",
"}  c #9A998C",
"|  c #8F8E91",
" . c #928F94",
".. c #939394",
"X. c #9D9C94",
"o. c #979699",
"O. c #9B9B9D",
"+. c #A2A193",
"@. c #A2A29B",
"#. c #9E9EA0",
"$. c #A3A2A4",
"%. c #A9A6A4",
"&. c #A6A6A9",
"*. c #ABAAAC",
"=. c #B4B6AD",
"-. c #AEAEB1",
";. c #B0AEB4",
":. c #B3AEBA",
">. c #B3B3B5",
",. c #BBB6B5",
"<. c #B8B8B7",
"1. c #B6B6B9",
"2. c #B8B3BD",
"3. c #BBBBBD",
"4. c #C1BDB3",
"5. c #C5C3B9",
"6. c #CBC8BE",
"7. c #BEBEC0",
"8. c #C2C2C4",
"9. c #C6C6C8",
"0. c #CBCBCC",
"q. c #CFCFD1",
"w. c #D3D3D4",
"e. c #DAD9D1",
"r. c #D7D7D9",
"t. c #DBDBDC",
"y. c #E4E3DF",
"u. c #DEDEE1",
"i. c #DFE0E1",
"p. c #E4E4E4",
"a. c #ECECEC",
"s. c #EEEDF2",
"d. c #F3F3F3",
"f. c #FFFFFF",
/* pixels */
"f.f.f.f.f.f.f.f.f.f.f.f.f.f.s.0.&./ B z G #.i.f.f.f.f.f.f.f.f.f.f.f.f.f.f.f.f.f.",
"f.f.f.f.f.f.f.f.f.f.f.d.w.O.C a 8 < , , : ; a O.1.t.d.f.f.f.f.f.f.f.f.f.f.f.f.f.",
"f.f.f.f.f.f.f.f.f.f.q._ h 8 , 8 a z V G C B l h i i M #.p.f.f.f.f.f.f.f.f.f.f.f.",
"f.f.f.f.f.f.f.f.a...p , < s U $.-.>.>.*.*.&.$.O.' J h 8 i ' p.f.f.f.f.f.f.f.f.f.",
"f.f.f.f.f.f.f.t.C 6 ; h | >.7.3.1.-.*.&.$.$.#.#.O.o...T j < s <.f.f.f.f.f.f.f.f.",
"f.f.f.f.f.f.w.z , 8 ^ 1.7.3.-. ._ $.*.*.$.$.#.#.O.o.| | ` C q < | d.f.f.f.f.f.f.",
"f.f.f.f.f.w.M , p &.9.7.-.~ h 0 6 G *.$.$.$.#.O.o.....' ' ) L a > U d.f.f.f.f.f.",
"f.f.f.f.p.C , j 1.0.8.| h 8 6 6 6 J *.$.$.#.#.o.O...| ' ' _ / U s , U d.f.f.f.f.",
"f.f.f.d.| 6 s 7.w.8.P u 8 7 u M _ &.*.%.$.$.#.#.o...| ' ) _ / T U i , ..f.f.f.f.",
"f.f.f.<.u 0 >.w.9.G w 8 0 H $.1.-.-.*.&.&.#.#.o.o...| ' ) _ / T U J q < 8.f.f.f.",
"f.f.a.V , ..t.q.~ u 8 a $.7.<.>.:.*.%.$.O.@.O.o...| | ' _ / T ~ U I M , j s.f.f.",
"f.f.*.8 z w.t.O.i 0 a 1.t.9.3.=.{ L x g x Z ! { ..| ' ) / / T U I I K s * $.f.f.",
"f.d.G < *.t.8.l u 8 $.a.u.8.+.v 2 # O . @ & > f Q ] ` _ / / U U U I K V < s s.f.",
"f.0.u p w.t.` i 8 G a.s.q.} e # O O @ O * % o + 4 D ( ^ / T W U I P J J p - 3.f.",
"f.&.8 w 0.0.l w 0 7.s.y.@.e @ + @ O O @ & @ O O   1 Y Q / ^ U U P K K J v ; U f.",
"d./ q : #.&.p 0 M i.a.9.g $ $ + O O       @ O o . O e R T U U I K J J K C < s a.",
"i.m u % | ~ u 6 o.t.y.} > % % @ o % 6 u 8 % o + + O # n W U L U K J J J H u 8 w.",
"w.j 6 : &.B u 0 3.y.e.n & # @ + * l ~ _ $./ * + + @ o y W U U P I J J J J s , ,.",
"7.a : ~ 8.z w p 0.p.6.d % % % + i G P ' o.7.B + @ +   1 Y U U K K J J J J j : *.",
"-.8 m t.9.j w h t.p.3.9 % % + % j M | #.7.>.o.% @ + o - Y U P J K J J K J p : #.",
"$.6 ~ u.9.j 0 j u.a.4.9 % @ + # l B | $.9.*...% o @ o - Y U A m C K K C j < : *.",
"*.6 P u.9.z 0 h p.s.5.r % @ @ + u J P ..&.8.z o @ O o > Y U N z C K m 8 : ; , =.",
"3.w B t.w.M w i r.d.0.v # + @ O % j ~ o.*.P * + @ o   t Q L m z J J q : : , 8 q.",
"w.p s w.r.U u w 3.s.r.[ - o @ @ + % < u 6 @ o + + @ # Z / I k V K C 3 * , < s p.",
"p.M 6 7.t.o.i 0 | p.q.=.f O . + @ o o     @ O @ O o r E ~ U V K J J i = : ; V f.",
"d._ , o.t.3.h w j 0.0.3.X.5 o O o @ + + o O @ O . < L W ~ U U U K K C 0 : = | f.",
"f.>.8 z w.q.U w 0 _ 7.7.,.{ r @ o + o @ @ o o O 4 F Q W / U P I K J K M , < 7.f.",
"f.p.l < *.w.;.s 0 i o.2.2.>.+.c 2 # X     $ > g E ) / / T U U U K L J B , s a.f.",
"f.f.| , M q.0._ 0 8 h #.1.>.;.&.} Y b x x S ! ] ( _ / W T ^ U U K K K j : o.f.f.",
"f.f.w.h , o.0.7.G 0 8 a ..;.*.*.&.@.@.O.X.o. .' ` _ / / W U U I K K N 3 p p.f.f.",
"f.f.f...6 p ;.9.>.m 0 8 k *.*.*.&.$.O.O.o.....' ` _ / / ^ T U U U J i > *.f.f.f.",
"f.f.f.a.B , m 1.8.-.B u H *.*.&.$.$.#.O.o.o.| ' ' ) _ / ^ T T U K j , I d.f.f.f.",
"f.f.f.f.0.l < B 1.3.>.$.*.*.*.&.&.#.#.O.o.....| ' _ / W ^ T T U k : k p.f.f.f.f.",
"f.f.f.f.f.3.j < M >.<.1.>.-.*.*.$.#.#.o.o...| | ' _ / / ^ ~ U j : h t.f.f.f.f.f.",
"f.f.f.f.f.f.3.k < h o.1.-.-.*.&.$.#.#.o.o...| ' ) _ / / / H i : l t.f.f.f.f.f.f.",
"f.f.f.f.f.f.f.9.M 8 0 G $.*.*.&.$.#.#.o.o...| | ' ' / P l < > U a.f.f.f.f.f.f.f.",
"f.f.f.f.f.f.f.f.t./ u , w B | #.$.$.#.o.o.....| / G l 8 , z 3.f.f.f.f.f.f.f.f.f.",
"f.f.f.f.f.f.f.f.f.d.1.B 0 , , u l B J P J G v s 0 6 q V =.d.f.f.f.f.f.f.f.f.f.f.",
"f.f.f.f.f.f.f.f.f.f.f.d.0.#.) .._ m h p u p s l U &.r.d.f.f.f.f.f.f.f.f.f.f.f.f.",
"f.f.f.f.f.f.f.f.f.f.f.f.f.f.f.f.f.d.p.t.t.t.p.d.f.f.f.f.f.f.f.f.f.f.f.f.f.f.f.f."
};
