/* XPM */
static char *result[] = {
/* columns rows colors chars-per-pixel */
"40 40 140 2 ",
"   c #0E0E0F",
".  c #110F0E",
"X  c #0F0E11",
"o  c #100F12",
"O  c #0F1012",
"+  c #111113",
"@  c #191613",
"#  c #1A1915",
"$  c #161619",
"%  c #1C1C1C",
"&  c #221F1D",
"*  c #24251E",
"=  c #1E1E20",
"-  c #232324",
";  c #2B2723",
":  c #2A2A23",
">  c #262628",
",  c #2B2B2C",
"<  c #323226",
"1  c #36322B",
"2  c #2E2E30",
"3  c #333334",
"4  c #3C3A31",
"5  c #373738",
"6  c #3B3B3D",
"7  c #413D36",
"8  c #424437",
"9  c #45433A",
"0  c #4A463B",
"q  c #47493D",
"w  c #494A3F",
"e  c #3E3E40",
"r  c #434345",
"t  c #484647",
"y  c #4B4B46",
"u  c #464648",
"i  c #4B4B4D",
"p  c #555347",
"a  c #555549",
"s  c #59564A",
"d  c #5E5B4D",
"f  c #4F4F51",
"g  c #4F5052",
"h  c #535355",
"j  c #585757",
"k  c #565658",
"l  c #595758",
"z  c #5B5B5C",
"x  c #605F5F",
"c  c #646155",
"v  c #656759",
"b  c #686758",
"n  c #6E6A5E",
"m  c #5E5E60",
"M  c #615F60",
"N  c #626263",
"B  c #686667",
"V  c #676768",
"C  c #6C6B6C",
"Z  c #736E64",
"A  c #757366",
"S  c #777569",
"D  c #78756A",
"F  c #7B7A6C",
"G  c #6E6E70",
"H  c #716F70",
"J  c #757474",
"K  c #787676",
"L  c #7A7A75",
"P  c #767678",
"I  c #797778",
"U  c #7C7B7C",
"Y  c #827E72",
"T  c #807E7E",
"R  c #858175",
"E  c #83827C",
"W  c #8C867D",
"Q  c #8C897C",
"!  c #7F7E81",
"~  c #817F80",
"^  c #848384",
"/  c #898683",
"(  c #868688",
")  c #898789",
"_  c #8C8B8C",
"`  c #928D87",
"'  c #928F8E",
"]  c #909383",
"[  c #9B968B",
"{  c #9B998E",
"}  c #8E8E91",
"|  c #918E96",
" . c #939394",
".. c #9A9691",
"X. c #9E9B96",
"o. c #969699",
"O. c #989599",
"+. c #9B9B9C",
"@. c #A4A195",
"#. c #A3A29F",
"$. c #AAA699",
"%. c #9F9FA0",
"&. c #A2A2A4",
"*. c #AEABA4",
"=. c #A6A6A9",
"-. c #A9A7AB",
";. c #ABAAAD",
":. c #B1B3A7",
">. c #B4B3AC",
",. c #AEAEB1",
"<. c #B0AFB2",
"1. c #B1AEBA",
"2. c #B3B3B5",
"3. c #B9B3B4",
"4. c #BBBCB7",
"5. c #B6B5B9",
"6. c #BAB7BC",
"7. c #BBBBBC",
"8. c #C3C3BC",
"9. c #BEBFC0",
"0. c #C3C3C4",
"q. c #CCCAC0",
"w. c #C7C7C9",
"e. c #CCCCCC",
"r. c #D9D6CF",
"t. c #CFCFD1",
"y. c #CFD0D2",
"u. c #D3D3D4",
"i. c #D6D6D9",
"p. c #DCDCDC",
"a. c #E0DED9",
"s. c #E3E3DF",
"d. c #DFDFE1",
"f. c #E1DFE8",
"g. c #E3E3E3",
"h. c #E4E4E8",
"j. c #EBEBEC",
"k. c #EDEDF1",
"l. c #F3F3F3",
"z. c #FFFFFF",
/* pixels */
"z.z.z.z.z.z.z.z.z.z.z.z.z.z.z.z.l.g.u.0.0.0.t.g.l.z.z.z.z.z.z.z.z.z.z.z.z.z.z.z.",
"z.z.z.z.z.z.z.z.z.z.z.z.z.l.w._ z r 3 2 , , 1 6 j ( 0.l.z.z.z.z.z.z.z.z.z.z.z.z.",
"z.z.z.z.z.z.z.z.z.z.z.j.&.j 3 2 e i j x l k i 6 , = - i +.h.z.z.z.z.z.z.z.z.z.z.",
"z.z.z.z.z.z.z.z.z.z.2.k 5 i H E / ( ^ E T T K K H v r > % t ;.z.z.z.z.z.z.z.z.z.",
"z.z.z.z.z.z.z.l.w.( e z !  . .} _ ( ^ ^ E U U K K J J B f > - U j.z.z.z.z.z.z.z.",
"z.z.z.z.z.z.9.l - u ! +.+.o. .} _ / ( ^ ^ ! U U K J J J J v 6 = N g.z.z.z.z.z.z.",
"z.z.z.z.z.=.6 - g o.&.%.+.o. .} } _ / ^ ^ ! U L K K J J J J C u = z g.z.z.z.z.z.",
"z.z.z.z.7.e > k %.=.%.%.+.o. . .} _ _ ^ ^ ! T U I K J J J J J C 3 = C l.z.z.z.z.",
"z.z.z.p.k > k &.;.=.%.%.%.+.+.o. .' _ / ^ ^ ^ U U K I J J J J H 5 - - o.z.z.z.z.",
"z.z.z._ 2 e %.,.;.=.&.&.%.+.+.o. .| _ ) ^ ^ U T U I K K J J J M > - > 6 e.z.z.z.",
"z.z.e.t 2 ( 2.,.=.=.&.&.&.%.+.o. .| _ ) / ~ E U U L I K K J K h - - , - N l.z.z.",
"z.z.^ , k 2.5.;.&.=.=.=.&.&.%.X...W Y D Y Y E E U U I K H H K z - = - - - &.z.z.",
"z.u.i ,  .7.=.m i } =.=.=.&.{ R p < & # % ; 9 n R T I J z B J H t > - - * f j.z.",
"z.+.2 i 5.7.! 3 , P ,.-.-...b - X X X o o X . # w Y T I B l C J J B N l 3 - 5.z.",
"l.C - U 9.,.f 2 e +.,.,.X.d @ $ + + o + O O + X . 4 Y T J z M J K K K K N - K z.",
"i.i > +.9. .5 2 V <.1.=.A # O O % + X X O + + o o o 0 R U H M I K K K K S 5 y j.",
"7.3 6 1.0.P 3 3  .3.3.[ 1 X O + + X $ - $ O O + O X # Z ^ U P I I K K K L t 3 u.",
"&., g 0.9.m 3 r ,.9.3.D @ o + O + 3 ^ ,.;.k $ O O + X 0 W ! ! U U U K K K h > 2.",
"o., m e.9.g 2 z e.0.>.p . o + O 2 ! } &.,.9.k O + O X : R T ~ T U U U K U m - +.",
" ., C t.9.f 3 C d.u.:.9 + o O + k U _ ,.0.,.+.+ + + X % F ^ ^ T ~ U U U U v > o.",
"o., G y.9.g 3 V h.f.>.8 + # O + k G } %.7.;.;.= o + o # D / ^ E ! ! E U U N - o.",
"=.3 C i.w.l 5 k h.k.8.y + $ + O e N J } } %._ + X o o & Y / ^ ^ E ! ! U ! m - %.",
"7.6 k i.t.V 6 e t.l.r.n # $ + + = k C G ! _ 3 X + X   1 Q / ( ^ ^ ^ ^ U ! k : 4.",
"u.i e t.i.^ 6 3 &.l.g.{ , $ $ $ O = e k g > X X O + . s ` _ ( ( ^ ^ ^ E ! y 3 p.",
"j.C , 7.p.&.u 3 V d.d.q.j % + + + + X + + X O O O   * R ' } _ ( ( ( ^ ^ U 3 z l.",
"z.o.: _ d.w.z e 5 ,.d.s.$.7 # + + + + o O X + X X @ b .. .} _ _ _ / ^ ^ H > } z.",
"z.0.e f y.d._ e 3 N u.d.s.[ 4 @ $ + X O + X X X # c ..O. . .} } _ / ( ^ h 3 e.z.",
"z.k.H - m ,.9.k e 2 } d.h.a.@.p * + X   X X @ 1 A X.+.+.o. . . .} _ / T 3 C z.z.",
"z.z.5.r - > ( o.u 6 3 &.k.k.s.4.] v q 4 9 a F ..#.%.%.%.o.o. . .} } _ z , 9.z.z.",
"z.z.l.U e > , 2.! u 5 5 %.j.l.g.w.4.:.*.*.*.,.;.=.&.%.%.+.+. . .}  .U 3 K z.z.z.",
"z.z.z.e.g 6 = &.t.J r 5 3 ! i.j.i.0.7.6.5.1.,.;.=.=.&.%.%.o.o. . ._ i t p.z.z.z.",
"z.z.z.z.&.u - %.d.e.! u e 3 f ' 6.0.6.6.5.,.,.;.;.=.&.%.%.%.+.o. .z 5 5.z.z.z.z.",
"z.z.z.z.l.( , l t.d.u.o.k e 5 3 e g N V V m ^ ;.;.=.=.&.&.%.%.+.V 5 %.z.z.z.z.z.",
"z.z.z.z.z.g.G > k 0.p.p.7.! h e 5 3 3 3 3 2 i =.;.;.=.=.&.&.o.N 5 %.z.z.z.z.z.z.",
"z.z.z.z.z.z.i.J 2 e %.i.p.u.7. .G k i u r u P ,.,.,.;.;.=._ g u ;.z.z.z.z.z.z.z.",
"z.z.z.z.z.z.z.g._ 6 > V ,.u.u.y.w.9.<.,.=.;.5.5.<.,.;.%.C e G y.z.z.z.z.z.z.z.z.",
"z.z.z.z.z.z.z.z.l.2.z , 2 m } 5.0.w.w.0.9.9.7.5.;. .V e - G l.z.z.z.z.z.z.z.z.z.",
"z.z.z.z.z.z.z.z.z.z.d.+.k 3 > 3 i V P ^ ^ U H l e 2 > 5 ( k.z.z.z.z.z.z.z.z.z.z.",
"z.z.z.z.z.z.z.z.z.z.z.z.d.;.J f 5 2 , , 2 , 3 5 r k ^ 0.z.z.z.z.z.z.z.z.z.z.z.z.",
"z.z.z.z.z.z.z.z.z.z.z.z.z.z.l.u.2.o.( ! U ^ _ &.9.d.z.z.z.z.z.z.z.z.z.z.z.z.z.z."
};
