/* XPM */
static char *result[] = {
/* columns rows colors chars-per-pixel */
"40 40 128 2 ",
"   c #0F0F0F",
".  c #10110F",
"X  c #0F0E11",
"o  c #110F12",
"O  c #0F1013",
"+  c #121113",
"@  c #181410",
"#  c #1C1A15",
"$  c #161619",
"%  c #1B1B1C",
"&  c #201E1F",
"*  c #22231D",
"=  c #1F1F21",
"-  c #232324",
";  c #2D2C24",
":  c #272729",
">  c #282728",
",  c #2B2B2C",
"<  c #36342D",
"1  c #2E2E30",
"2  c #302F30",
"3  c #333334",
"4  c #3B3A32",
"5  c #363739",
"6  c #3A3A3C",
"7  c #403E36",
"8  c #3F4137",
"9  c #46443A",
"0  c #4A473D",
"q  c #46483B",
"w  c #4D4A3E",
"e  c #3F3F41",
"r  c #424244",
"t  c #464648",
"y  c #4B4B4C",
"u  c #504D43",
"i  c #53524C",
"p  c #5C5A4A",
"a  c #4E4E50",
"s  c #535354",
"d  c #585657",
"f  c #565658",
"g  c #5A5A5B",
"h  c #615C53",
"j  c #605F5F",
"k  c #626253",
"l  c #666759",
"z  c #6C675B",
"x  c #6D6A5E",
"c  c #5E5E60",
"v  c #636365",
"b  c #686667",
"n  c #676768",
"m  c #6B6B6C",
"M  c #716E61",
"N  c #757364",
"B  c #70706E",
"V  c #79766B",
"C  c #7E7B6F",
"Z  c #6E6E70",
"A  c #757474",
"S  c #787776",
"D  c #7B7B74",
"F  c #777779",
"G  c #797778",
"H  c #7C7A7B",
"J  c #837F74",
"K  c #807E7E",
"L  c #838274",
"P  c #85827C",
"I  c #89857D",
"U  c #7E7E81",
"Y  c #817F80",
"T  c #7F8082",
"R  c #848383",
"E  c #8C8786",
"W  c #8B8984",
"Q  c #878688",
"!  c #89878A",
"~  c #8B8B8C",
"^  c #918D8A",
"/  c #919285",
"(  c #99968A",
")  c #9B998B",
"_  c #8E8E91",
"`  c #918F95",
"'  c #939394",
"]  c #9A9792",
"[  c #979799",
"{  c #9B9B9C",
"}  c #A29F97",
"|  c #A29F98",
" . c #A5A49C",
".. c #AAA69B",
"X. c #9E9EA0",
"o. c #A3A3A4",
"O. c #A7A7A9",
"+. c #AAAAAC",
"@. c #B4B3AC",
"#. c #BBB9AE",
"$. c #AEAEB1",
"%. c #B1AEBA",
"&. c #B3B3B4",
"*. c #BABBB4",
"=. c #B6B5BA",
"-. c #BBB6BC",
";. c #BBBABC",
":. c #BFC0B9",
">. c #CAC6BE",
",. c #BFBFC0",
"<. c #C3C3C4",
"1. c #CCC9C0",
"2. c #C7C7C9",
"3. c #CBCBCC",
"4. c #CECFD1",
"5. c #D3D3D4",
"6. c #DDDAD4",
"7. c #D7D7D8",
"8. c #DBDBDB",
"9. c #E2E3DF",
"0. c #DFDFE1",
"q. c #DFE0E1",
"w. c #E5E5E5",
"e. c #E5E4ED",
"r. c #EBEBEC",
"t. c #EEEEF0",
"y. c #F3F3F3",
"u. c #FFFFFF",
/* pixels */
"u.u.u.u.u.u.u.u.u.u.u.u.u.u.y.7.&.{ T A n Z F { 5.u.u.u.u.u.u.u.u.u.u.u.u.u.u.u.",
"u.u.u.u.u.u.u.u.u.u.u.u.7.{ n a 6 3 1 , : , , , r T r.u.u.u.u.u.u.u.u.u.u.u.u.u.",
"u.u.u.u.u.u.u.u.u.u.8.! t , - , e s n Z Z m c t 3 = n <.t.u.u.u.u.u.u.u.u.u.u.u.",
"u.u.u.u.u.u.u.u.y.+.s : - t F X.&.=.;.;.&.&.+.o.[ F f r g +.t.u.u.u.u.u.u.u.u.u.",
"u.u.u.u.u.u.u.w.T 6 - a [ =.<.,.;.=.$.$.$.+.+.O.O.o.{ Q f 5 v 3.u.u.u.u.u.u.u.u.",
"u.u.u.u.u.u.7.A 1 5 ! <.2.<.&.[ F c a v o.+.O.o.o.X.X.{ [ F 8 6 o.u.u.u.u.u.u.u.",
"u.u.u.u.u.8.m , y &.4.4.=.T a 6 1 1 , 1 ~ O.o.o.X.X.{ { [ ' Q y , _ u.u.u.u.u.u.",
"u.u.u.u.r.G , f <.7.4.[ s 5 3 1 3 e y v o.O.o.o.X.{ [ [ ' _ _ Q y , ~ u.u.u.u.u.",
"u.u.u.u.[ 1 a 2.8.2.T e 5 3 t Z ` o.O.+.O.O.o.o.X.{ [ [ _ _ ~ ! Y y , +.u.u.u.u.",
"u.u.u.<.r 6 ;.8.4.F e 6 8 T ,.,.-.-.%.$.+.O.O.X.X.{ [ ' ' / ! ! R H 6 6 5.u.u.u.",
"u.u.y.A - ! 0.5.T e 5 e O.w.7.<.-.@.+...o.o.o. .X.{ [ ' ~ ~ W R R Y m > b y.u.u.",
"u.u.<.t - { 0.X.t 6 6 $.y.e.4.@.( V h i p x L ( { [ ' _ ~ ~ Q R Y K H y : &.u.u.",
"u.y.F e = R <.g e 3 ' t.t.5.} k ; @ @     + - u L ' ` ` ~ ! R R Y K H Z > d y.u.",
"u.5.a 5 $ ~ ! r 3 c 8.r.8.) 8 @ o o o   X $ $   ; N ^ ~ ~ R R P Y H H A t > 2.u.",
"u.o.e = r $.f 6 5 $.q.w...8 @ $ o o o o + % + X o ; V W Q Q T T K H G G l % Q u.",
"t.A : f ,.o.t 3 v 7.q.1.h % $ $ o X o o X + + o o   4 P R P T K H H G G Z , i y.",
"5.a e 4.0.U r 1 { 8.9.) , $ $ + o $ 5 a 5 $ O O +   + z I P K H H G A A A 7 3 7.",
"=.5 v 0.5.v e 5 <.w.6.x % $ + + = g F Y ' ! - O O O o 9 I H H H G G A A A a - -.",
"+.3 F 0.2.f 5 a 8.t.>.0 $ $ + + r v F _ ' =.Z O O O   ; L H H H S S A A A s = o.",
"X.1 Y 0.<.s 5 c r.t.#.4 + + O $ f v _ { ;.$.o.$ + + X * C K H H S S A A A f = [ ",
"X., T 0.,.s 5 n r.r.@.4 + + + $ f Z _ O.<.$.' $ + + + - C K G G A A A A A d - [ ",
"o.1 F 0.<.s 5 v w.e.*.q + + + o e F U [ O.;.f O O o o ; P G S S A A A A B d - O.",
"&.3 v 7.3.c 6 s 7.7.:.l . + + + $ a R O.$.Z $ O o O   w P G b b A A A A A t , ;.",
"2.r y 4.4.A 5 r ;.3.,./ *   X X X X - 3 : O X O + X @ M K D g v A A A b i : 6 7.",
"0.f 3 =.5.' 6 3 Q ,.,.@.p o O + X +     X + + o O   9 I H m d m A b 7 , - = g y.",
"y.A - ` 4.&.a 3 a $.=.-.| 9 X + + X + o X o +     < J R G g j A A r - - : = ' u.",
"u.o., g 2.2.F 3 3 H =.=.$.( w @   X + +   X o + 4 L R T G b A A B 2 & : , 3 5.u.",
"u.5.y 1 O.2.O.y 3 e ' %.%.$.} M 4 # + . + # < l I P K K H H G A A 6 & - : n y.u.",
"u.y.T : v ,.,.Q 5 3 s +.$.+.O. .( I N l x C I I R R K K H G G S A v > - : =.u.u.",
"u.u.4.y 1 { ,.=.m 5 v O.O.O.O.o.{ X.[ ] ' ^ E W R R P K K H S S A A 6 * s y.u.u.",
"u.u.u.' 3 y $.,.$.[ o.$.O.O.o.o.X.{ [ ' ' ~ ! Q Q P K K H G D S D Z 3 , @.u.u.u.",
"u.u.u.e.n , v =.=.&.$.$.O.O.o.X.X.{ [ ' _ ~ ! Q R R R K H S D A A a - G y.u.u.u.",
"u.u.u.u.2.s , Z &.&.$.+.O.O.X.X.{ [ ' ` ' ~ ! W T P T T H G D A f : d w.u.u.u.u.",
"u.u.u.u.u.@.t , n +.$.+.O.O.X.X.{ [ [ ' _ ~ ~ R R R K K H H D a : a 7.u.u.u.u.u.",
"u.u.u.u.u.y.+.t , s [ +.O.o.X.{ { [ ' ' ~ ~ Q R T P K K H B t - d 7.u.u.u.u.u.u.",
"u.u.u.u.u.u.u.=.a : 3 Z [ o.X.X.[ ' _ ' _ ! ! R R R T A d 2 > A w.u.u.u.u.u.u.u.",
"u.u.u.u.u.u.u.u.7.Q t , r v Q ' [ [ ' ' ~ ~ W R H Z a , - y +.u.u.u.u.u.u.u.u.u.",
"u.u.u.u.u.u.u.u.u.u.w.2.+.v e r s v m Z m v g y 5 : , i { w.u.u.u.u.u.u.u.u.u.u.",
"u.u.u.u.u.u.u.u.u.u.u.u.u.y.3.[ m s e 4 5 5 6 y v _ 3.y.u.u.u.u.u.u.u.u.u.u.u.u.",
"u.u.u.u.u.u.u.u.u.u.u.u.u.u.u.u.y.r.8.3.3.4.7.r.u.u.u.u.u.u.u.u.u.u.u.u.u.u.u.u."
};
