/* XPM */
static char *result[] = {
/* columns rows colors chars-per-pixel */
"40 40 139 2 ",
"   c #0E0E0F",
".  c #120E0F",
"X  c #10100E",
"o  c #0F0E11",
"O  c #100F12",
"+  c #0F1013",
"@  c #111113",
"#  c #1A1614",
"$  c #1B1A16",
"%  c #161618",
"&  c #1C1C1C",
"*  c #201E19",
"=  c #1F201B",
"-  c #23221D",
";  c #1F1F21",
":  c #211F20",
">  c #242324",
",  c #2E2B24",
"<  c #262628",
"1  c #282728",
"2  c #2B2B2C",
"3  c #3A372F",
"4  c #37392F",
"5  c #2F2F31",
"6  c #312F30",
"7  c #333335",
"8  c #3B3B31",
"9  c #363739",
"0  c #393738",
"q  c #3B3B3C",
"w  c #423F37",
"e  c #45453B",
"r  c #4A463B",
"t  c #4B493E",
"y  c #3F3F41",
"u  c #3F4040",
"i  c #434345",
"p  c #474749",
"a  c #4B4B4C",
"s  c #524F46",
"d  c #515343",
"f  c #555549",
"g  c #5C594D",
"h  c #4E4E50",
"j  c #504F50",
"k  c #545455",
"l  c #585657",
"z  c #575759",
"x  c #595658",
"c  c #57585A",
"v  c #5A5A5C",
"b  c #605E5F",
"n  c #61605F",
"m  c #6B695A",
"M  c #5F5F60",
"N  c #636364",
"B  c #686667",
"V  c #676769",
"C  c #6B6B6C",
"Z  c #716E62",
"A  c #777469",
"S  c #7D7B6D",
"D  c #716F70",
"F  c #757474",
"G  c #787677",
"H  c #797977",
"J  c #767678",
"K  c #797778",
"L  c #7C7B7C",
"P  c #807C6F",
"I  c #817D71",
"U  c #807F7E",
"Y  c #7F8072",
"T  c #828276",
"R  c #86827D",
"E  c #89857C",
"W  c #8B887D",
"Q  c #7F7E80",
"!  c #817F80",
"~  c #848384",
"^  c #8B8984",
"/  c #878789",
"(  c #898789",
")  c #8B8B8C",
"_  c #938E89",
"`  c #929386",
"'  c #96938D",
"]  c #99968A",
"[  c #9B998C",
"{  c #8E8E90",
"}  c #928F92",
"|  c #929294",
" . c #9B9891",
".. c #969699",
"X. c #9B9B9D",
"o. c #A09D96",
"O. c #A29E99",
"+. c #9EA093",
"@. c #A1A19C",
"#. c #A9A499",
"$. c #9F9FA0",
"%. c #A3A2A4",
"&. c #AAA7A5",
"*. c #A6A6A9",
"=. c #ABAAAD",
"-. c #B2AEAB",
";. c #B4B6AD",
":. c #AFAFB1",
">. c #B0AFB2",
",. c #B0ADB8",
"<. c #B3B3B4",
"1. c #BAB5B2",
"2. c #BBBCB5",
"3. c #B6B3BA",
"4. c #B9B6BC",
"5. c #BBBBBC",
"6. c #C0BCB2",
"7. c #C0C1BC",
"8. c #CBC7BF",
"9. c #BEBEC0",
"0. c #C2C2C4",
"q. c #CCCAC0",
"w. c #C7C7C9",
"e. c #CBCBCD",
"r. c #CECED0",
"t. c #D3D3D4",
"y. c #DCDAD4",
"u. c #D7D7D9",
"i. c #DBDCDD",
"p. c #E4E4DF",
"a. c #DFDFE0",
"s. c #E3E3E3",
"d. c #E5E4EA",
"f. c #E8E6EF",
"g. c #ECEBEC",
"h. c #EEEDF1",
"j. c #F0EFF4",
"k. c #F3F3F3",
"l. c #FFFFFF",
/* pixels */
"l.l.l.l.l.l.l.l.l.l.l.l.l.l.l.l.l.k.s.t.t.t.p.k.l.l.l.l.l.l.l.l.l.l.l.l.l.l.l.l.",
"l.l.l.l.l.l.l.l.l.l.l.l.l.l.i.*.G l i 0 7 7 q j C ..r.k.l.l.l.l.l.l.l.l.l.l.l.l.",
"l.l.l.l.l.l.l.l.l.l.d.r.5.J i 9 p k v n v c h u 5 = 2 c &.g.l.l.l.l.l.l.l.l.l.l.",
"l.l.l.l.l.l.l.l.i.) p < y z J ) ' { { ) / ~ ~ L F N p 1 = j 3.l.l.l.l.l.l.l.l.l.",
"l.l.l.l.l.l.l.4.h > 2 z ) X.X.X...{ ) ) ~ ~ ~ Q L L G C a 1 > L g.l.l.l.l.l.l.l.",
"l.l.l.l.l.l.=.i < i ~ *.%.%.X.X...| | ) / ) ~ Q L L G G J N 9 $ l i.l.l.l.l.l.l.",
"l.l.l.l.l.2.p 1 k X.=.*.%.%.X.X...| | { ) ^ ~ ~ Y Q G G F F D p > j i.l.l.l.l.l.",
"l.l.l.l.e.k 2 v =.>.=.*.%.%.%.X.....' { ) ~ ~ Y Q Q L G F F F D a > v g.l.l.l.l.",
"l.l.l.d.C 2 h =.<.=.=.*.%.%.$.X.$...| } _ ( ( ~ Q L K H F F F D D a ; ~ l.l.l.l.",
"l.l.l...7 9 %.9.:.$.$.*.%.%.%.$.$...| } { ( ~ ! ! L L K H F F F D C 6 2 5.l.l.l.",
"l.l.r.p < ~ 9.<.J y c %.*.*.%.%.$.....} _ ( ~ ! ! ! L K K F F F F D y & z k.l.l.",
"l.l.~ 1 h <.5.{ y 5 u %.*.*.*.@.] E I Z A I E E U L L H K K G F F V 2 > < <.l.l.",
"l.t.p > { 0.=.h 2 5 Q :.:.*.o.S p 1 $ # $ - w m I U U K K F G F F p > < 1 B l.l.",
"l.%.2 p 5.9.Q 7 5 V :.,.=. .g * # @ o o O   O # r I U K K D C F D 7 ; > 2 9 e.l.",
"k.G > L w.<.h 7 u %.9.,.O.j @ . % & + + + + @ . O 8 P U K n b F F w > : > ; ) l.",
"g.l 1 *.r.X.q 7 J 9.9.*.m # O O + # o   o @ + O O O s U I C x C H N 9 > > ; f h.",
"e.u y 0.r.J 9 q -.e.5.] , . @ + +   & 2 ; o + @ + + $ Z L J l N F K D B j 1 7 t.",
"3.y k r.e.N 7 a t.i.7.Z # @ o @ + y Q =.=.N % + + @ o r E L N B K F F K F a 1 <.",
"*.7 V u.w.c 9 c s.d.2.d X @ +   9 ~ ~ X.=.0.c + @ o o , R U L J K H G F G v 1 X.",
"%.5 D a.0.k 9 M g.g.2.q # % + @ c F ) *.0.:.| % + @ o - P ~ L L K H H H K b 1 ' ",
"*.5 L a.0.z 9 c d.g.6.e % + + % z V { $.9.=.*.% X + O & S R Q L L L H H H n 1 | ",
">.7 C i.e.v 9 p u.g.8.s % % % + u N F { { :.Q + @ @ . - T ~ ~ U ~ L K H H n 1 X.",
"0.u v i.t.V y 9 9.s.y.m & % # @ ; c C J / { 2 o o +   3 E ~ ~ U Q L Y H L c 1 <.",
"i.h y e.a.~ u 7 ..i.s.] , % % @ o ; y k p > o o @ o . m W ~ ~ ~ Q ~ Q L H p 9 t.",
"k.J > v 0.%.i 7 N u.a.q.g % % @ @ O o @   o + + +   , E ^ / ~ ~ ~ Q L ~ J 9 a g.",
"l.%.q ; p :.z y q <.s.s.#.4 @ % @ O @ + @ o @ + o $ Z _ ) ( / / Q R ~ L C > L l.",
"l.u.k 9 % ) / i 7 N a.h.y.` 8 @ O @   + + @ o o & m ' _ ) ) / ~ ~ ~ ~ L f 1 4.l.",
"l.k.J q ; Q 0.c y 5 X.j.h.t.+.f -     o o   $ 8 P  ...| | ) ) ^ ~ ~ ~ L 6 k h.l.",
"l.l.5.a > ..a.X.p q q <.k.f.e.;.` m s e t g I [ O.X...| | { ) ) ~ ~ R v 2 :.l.l.",
"l.l.h.J < { a.t.L u 9 p 3.f.t.0.5.1.;.#.&.*.&.%.$.X.....| { ) ) / / F 5 v k.l.l.",
"l.l.l.9.y y 0.a.e.F i 9 u ) w.w.5.4.3.,.:.=.*.%.%.$.X...| | | ) ) ~ i 9 e.l.l.l.",
"l.l.l.k./ 5 c r.i.w.J i q 0 k ! %.:.<.<.:.=.*.%.%.$.X.....| | { ) c , *.l.l.l.l.",
"l.l.l.l.d.F 1 N e.i.r.{ h q 7 7 y a M J *.=.*.*.%.$.$.....| | { M 2 ) l.l.l.l.l.",
"l.l.l.l.l.i.B 1 c 9.u.t.>.J p q 9 7 5 7 ..=.=.*.%.%.$.$.....{ M 5 / k.l.l.l.l.l.",
"l.l.l.l.l.l.t.C 2 i $.r.t.w.>.{ C k p c %.:.=.=.*.%.$.$.X./ a q X.k.l.l.l.l.l.l.",
"l.l.l.l.l.l.l.s.Q 9 1 N =.w.e.w.9.<.=.:.<.:.=.=.*.*.%.{ V y c 5.l.l.l.l.l.l.l.l.",
"l.l.l.l.l.l.l.l.h.*.h 1 2 M { >.9.9.9.5.5.<.<.=.$.) N u h ..g.l.l.l.l.l.l.l.l.l.",
"l.l.l.l.l.l.l.l.l.l.t./ p 5 < 9 h C Q ~ ~ Q D v u < c =.s.l.l.l.l.l.l.l.l.l.l.l.",
"l.l.l.l.l.l.l.l.l.l.l.l.t.X.C h q 7 5 5 5 2 2 2 u Q a.l.l.l.l.l.l.l.l.l.l.l.l.l.",
"l.l.l.l.l.l.l.l.l.l.l.l.l.l.j.t.<.| Q C N C L X.u.l.l.l.l.l.l.l.l.l.l.l.l.l.l.l."
};
