/* XPM */
static char *result[] = {
/* columns rows colors chars-per-pixel */
"40 40 132 2 ",
"   c #0E0E0F",
".  c #110E0F",
"X  c #14120F",
"o  c #0F0E11",
"O  c #100F13",
"+  c #0F1013",
"@  c #111113",
"#  c #1A1A16",
"$  c #161619",
"%  c #191718",
"&  c #1B1B1C",
"*  c #201F1C",
"=  c #23221C",
"-  c #1E1E20",
";  c #201F20",
":  c #242324",
">  c #2C2B23",
",  c #262629",
"<  c #2B2A2C",
"1  c #39362F",
"2  c #37392F",
"3  c #2F2F31",
"4  c #333335",
"5  c #3B3831",
"6  c #373739",
"7  c #383738",
"8  c #3B3B3C",
"9  c #414136",
"0  c #454139",
"q  c #48473A",
"w  c #4B493E",
"e  c #3F3F41",
"r  c #434344",
"t  c #4C4B43",
"y  c #474749",
"u  c #4B4B4C",
"i  c #514D45",
"p  c #595947",
"a  c #555349",
"s  c #57594A",
"d  c #4E4E50",
"f  c #4F5051",
"g  c #535355",
"h  c #565658",
"j  c #585658",
"k  c #5B5A5C",
"l  c #646356",
"z  c #67645A",
"x  c #696559",
"c  c #6D695E",
"v  c #5F5F61",
"b  c #646364",
"n  c #686767",
"m  c #666668",
"M  c #6C6C6D",
"N  c #716D61",
"B  c #706E6F",
"V  c #747263",
"C  c #797467",
"Z  c #7F7D6E",
"A  c #6F6F70",
"S  c #716F70",
"D  c #747374",
"F  c #787776",
"G  c #7A7A75",
"H  c #777678",
"J  c #797778",
"K  c #7C7B7C",
"L  c #817D73",
"P  c #807E7E",
"I  c #858275",
"U  c #84827C",
"Y  c #88857C",
"T  c #7F7F81",
"R  c #807F80",
"E  c #848384",
"W  c #8B8684",
"Q  c #8D8980",
"!  c #868688",
"~  c #888689",
"^  c #8B8B8C",
"/  c #918C86",
"(  c #919383",
")  c #96938B",
"_  c #9A968C",
"`  c #979A88",
"'  c #8F8F91",
"]  c #918E93",
"[  c #929294",
"{  c #9A9693",
"}  c #9E9D93",
"|  c #979799",
" . c #9B9B9C",
".. c #A39E96",
"X. c #9FA094",
"o. c #A4A39C",
"O. c #9F9FA1",
"+. c #A3A3A4",
"@. c #A8A5A2",
"#. c #AEAAA7",
"$. c #A6A6A9",
"%. c #A8A7AB",
"&. c #ABABAD",
"*. c #B3B0A7",
"=. c #B2B2AE",
"-. c #AEAEB1",
";. c #B0AFB4",
":. c #B3B3B4",
">. c #B6B5BA",
",. c #BAB7BC",
"<. c #BCBBBD",
"1. c #C1BDB4",
"2. c #C1C1BD",
"3. c #C9C5BC",
"4. c #CAC8BE",
"5. c #BFBFC1",
"6. c #C3C3C4",
"7. c #C6C6C8",
"8. c #CBCBCC",
"9. c #CFD0CD",
"0. c #CECED1",
"q. c #D3D3D4",
"w. c #D9D8D0",
"e. c #D5D5D8",
"r. c #DADADC",
"t. c #E1E1DF",
"y. c #DEDEE1",
"u. c #E3E3E3",
"i. c #EBEBEB",
"p. c #EEEDF2",
"a. c #F3F3F4",
"s. c #FFFFFF",
/* pixels */
"s.s.s.s.s.s.s.s.s.s.s.s.s.s.s.a.u.e.2.:.&.:.6.e.i.s.s.s.s.s.s.s.s.s.s.s.s.s.s.s.",
"s.s.s.s.s.s.s.s.s.s.s.s.i.8.$.H b h r 4 4 4 8 u m ^ >.u.s.s.s.s.s.s.s.s.s.s.s.s.",
"s.s.s.s.s.s.s.s.s.s.u.+.m r 6 8 8 < : k H A h e < , 6 k | e.s.s.s.s.s.s.s.s.s.s.",
"s.s.s.s.s.s.s.s.a.:.b 3 < u 8 - $ , E r.y.y.r.0.:.E u , , y | i.s.s.s.s.s.s.s.s.",
"s.s.s.s.s.s.s.u.! 8 < b :.e.7. .^ $.7.7.7.8.q.e.r.q.7.| u : < n 0.s.s.s.s.s.s.s.",
"s.s.s.s.s.s.q.m < e O.r.y.r.7.+.T m h h g v m T O.5.0.0.5.E 4 , g 5.s.s.s.s.s.s.",
"s.s.s.s.s.8.v , h 5.r.r.5.! h y e 8 8 8 6 6 e e e g E :.6.5.O.y , g <.s.s.s.s.s.",
"s.s.s.s.e.k , b 8.r.0.| h e e 4 3 8 r d d u e 4 4 6 6 f ' <.5.&.d < k 8.s.s.s.s.",
"s.s.s.i.A , h 7.e.6.H r 8 4 6 m | <.8.e.r.y.q.:.T u 4 4 8 H ;.<.-.u < b u.s.s.s.",
"s.s.s.[ 3 r >.q.5.A e 8 6 H 6.u.u.r.y.u.i.p.p.p.u.6.D 6 3 6 M ;.<.+.e 3 E a.s.s.",
"s.s.8.y < | 0.6.A e 6 d =.i.a.i.t.w.4.1.1.3.9.e.q.8.5.^ e < 6 H ;.>.^ < e >.s.s.",
"s.a.E < m 6.7.! 8 6 f 5.p.p.u.3._ c i q 9 t c ` =.<.>.>.' 8 < r +.;.-.k , b a.s.",
"s.q.d 3 $.7.&.y 6 e -.r.r.0.X.a = % $ $ $ $ # > l ..;.>.-.E y M %.&.&.' 3 6 8.s.",
"s. .3 v 5.5.D 6 6 T 6.7.2.( 2 $ # $ $ $ $ @ O . X w { -.-.&.+.$.$.%.&.%.g , +.s.",
"i.m < [ 5.%.y 4 d -.<.<.} 2 @ @ @ $ @ @ @ @ @ O O . a } %.$.$.$.+.$.+.%.K & ' s.",
"6.y 0 -.5.! 6 4 H >.,.*.s @ @ @ @ + + $ $ O O O @ O # V $.$.$.+.+.+.+.+.[ 6 +.s.",
"X.6 k >.,.K 3 8 | >.>.) =   @ @ + - r g h e + + + +   9 _ +.+.+.O.O.O.O. .f  .s.",
"T < A >.:.+.D W &.;.=.V @ @ o @ % k m b A K d + + + $ : I o.O.O.O.X.O.O.O.h A s.",
"m < K :.-.-.&.&.&.-.#.p o @ +   8 A D ' ' T K - + & $ % V  .O. . . .|  .| v k p.",
"v < E -.-.&.%.%.&.&.@.t o @ + o d T '  .+.[ O.4   @ + @ N |  .| | | | | | m f i.",
"A , E -.%.%.%.$.$.$.o.i   o +   e | | 6.6.%.&.,   O @ @ V [ | [ | [ [ [ [ b y u.",
"| , H %.$.$.$.$.+.+.o.z X @ @ o & ^ >.-.-.6.M @ @ @ O * Z ] ' [ [ ) ' ^ ' k u u.",
"r.e M $.+.+.+.+.O.O...E # @ @ o o : A | ' h & + +   . 5 Y ^ ^ ^ ^ ^ ^ ^ ^ f d i.",
"s.! h +.O.O. .O. . . .{ q   o @ + o + $ $ + + + + @ $ x Q ~ ~ ^ ! ! W ! E e z a.",
"s.+.r | O. .|  . .| | | I = o . + + @ @ O O O O + . 0 I E E E E W E E E K < E s.",
"s.7.r E O.| | | | [ [ [ ) V * O O @ o o @ O O O   1 Z U E E R E R E E E m , #.s.",
"s.i.h v | [ | [ [ [ [ [ ^ / C 1 @ o o o o o   % w L U P P R R R R P P K u 8 y.s.",
"s.s.' 8 ^ [ [ [ [ [ ^ ^ ' ! Q I l 9 > = = > w N I P K K P K P K K K P B < M s.s.",
"s.s.e.e v [ [ ' ' ^ ^ ! ^ E W E W Y I G L L P P K P J J J J K K K F K u , 2.s.s.",
"s.s.s.E 4 T ^ ^ ! ^ ^ W E E E E U T P E P L L F J J J J J J J J F F b : b a.s.s.",
"s.s.s.r.y y E ! ! ! E E E E E U P P K K M n v v M J J D J F F F F B 6 < 6.s.s.s.",
"s.s.s.s.-.< h E E E E E E E R P P K K D k j v v B J F F D F S D S y & ^ s.s.s.s.",
"s.s.s.s.s.W , h T E E E P R P P K K J J F S F D S D D D D D D S t & b p.s.s.s.s.",
"s.s.s.s.s.a.A , h K E K K P K K G G F F F D S B F D F S D S M y & h u.s.s.s.s.s.",
"s.s.s.s.s.s.i.D , r B U K K K F F F G D F v 7 4 y B S F D b 8 % j t.s.s.s.s.s.s.",
"s.s.s.s.s.s.s.a.^ < < j D K K F F F F F n < ; ; : e v b u < , D u.s.s.s.s.s.s.s.",
"s.s.s.s.s.s.s.s.s.:.y : 4 g n D G F F F u & : , , ; , : ; u =.s.s.s.s.s.s.s.s.s.",
"s.s.s.s.s.s.s.s.s.s.i. .u : > 7 y g j y < : : < : ; < g +.i.s.s.s.s.s.s.s.s.s.s.",
"s.s.s.s.s.s.s.s.s.s.s.s.i.:.H u 4 > , = : , 6 u n ] 7.p.s.s.s.s.s.s.s.s.s.s.s.s.",
"s.s.s.s.s.s.s.s.s.s.s.s.s.s.s.i.8.:. .|  .;.9.u.s.s.s.s.s.s.s.s.s.s.s.s.s.s.s.s."
};
