/* XPM */
static char *result[] = {
/* columns rows colors chars-per-pixel */
"40 40 130 2 ",
"   c #0E0E0F",
".  c #120E0D",
"X  c #11100D",
"o  c #0F0E11",
"O  c #110F13",
"+  c #0F1013",
"@  c #111113",
"#  c #191717",
"$  c #1B1A16",
"%  c #161619",
"&  c #1B1A1C",
"*  c #211E1B",
"=  c #25241F",
"-  c #1F1F21",
";  c #242324",
":  c #2C2B24",
">  c #272729",
",  c #2B2B2C",
"<  c #3B3A2F",
"1  c #2F2F30",
"2  c #323234",
"3  c #393B31",
"4  c #363638",
"5  c #3B3B3C",
"6  c #444339",
"7  c #4A473C",
"8  c #46483A",
"9  c #4B4A3F",
"0  c #3F3F41",
"q  c #424244",
"w  c #484647",
"e  c #4F4D41",
"r  c #474749",
"t  c #494748",
"y  c #4B4B4C",
"u  c #525344",
"i  c #565349",
"p  c #59554C",
"a  c #5E5C4D",
"s  c #4F4F51",
"d  c #535354",
"f  c #585657",
"g  c #575759",
"h  c #595758",
"j  c #5A5A5C",
"k  c #605F5F",
"l  c #636558",
"z  c #6F6C5E",
"x  c #5F5F61",
"c  c #646364",
"v  c #6C6E60",
"b  c #666668",
"n  c #6A6A6B",
"m  c #706E61",
"M  c #706F6D",
"N  c #737166",
"B  c #787366",
"V  c #7A7769",
"C  c #7D796C",
"Z  c #6F6F71",
"A  c #757475",
"S  c #787676",
"D  c #7B7B74",
"F  c #777779",
"G  c #797778",
"H  c #7C7B7B",
"J  c #817D73",
"K  c #807E7F",
"L  c #838275",
"P  c #83817C",
"I  c #89867E",
"U  c #8B887D",
"Y  c #7F7E80",
"T  c #817F80",
"R  c #848384",
"E  c #888583",
"W  c #8D8985",
"Q  c #878689",
"!  c #8A8789",
"~  c #8B8B8C",
"^  c #908D8B",
"/  c #929286",
"(  c #96958B",
")  c #9A978B",
"_  c #9B998A",
"`  c #8F8F91",
"'  c #928F95",
"]  c #939395",
"[  c #999695",
"{  c #9C9A92",
"}  c #969699",
"|  c #9B9B9C",
" . c #A09E93",
".. c #AAA69B",
"X. c #9E9EA0",
"o. c #9FA0A0",
"O. c #A2A2A4",
"+. c #AEACA4",
"@. c #A6A6A9",
"#. c #A8A7AB",
"$. c #AAAAAC",
"%. c #B2AEA8",
"&. c #B5B7AD",
"*. c #AEAEB1",
"=. c #B0ACB2",
"-. c #B1AFB9",
";. c #B3B2B4",
":. c #B8B9B0",
">. c #B6B6B9",
",. c #BAB5BC",
"<. c #BBBBBC",
"1. c #CAC6BD",
"2. c #BFBFC1",
"3. c #C2C2C4",
"4. c #C8C8C7",
"5. c #C6C6C8",
"6. c #CACACB",
"7. c #CECED0",
"8. c #CFD0D2",
"9. c #D3D3D4",
"0. c #D6D6D8",
"q. c #DBDBDC",
"w. c #DFDFE1",
"e. c #E4E4E4",
"r. c #E8E8E7",
"t. c #E6E5EC",
"y. c #ECECEC",
"u. c #EEEEF0",
"i. c #F2F2F3",
"p. c #FFFFFF",
/* pixels */
"p.p.p.p.p.p.p.p.p.p.p.p.p.p.p.e.6.$.` Y F Q | >.9.u.p.p.p.p.p.p.p.p.p.p.p.p.p.p.",
"p.p.p.p.p.p.p.p.p.p.p.p.y.<.! c q 1 > > > > 1 5 s n | 6.i.p.p.p.p.p.p.p.p.p.p.p.",
"p.p.p.p.p.p.p.p.p.p.y.$.b 5 , , 0 d x n b x s 0 1 > 1 q Z >.i.p.p.p.p.p.p.p.p.p.",
"p.p.p.p.p.p.p.p.i.2.n 4 , y Q $.2.4.4.5.2.2.2.;.o.Y d 1 > 4 F e.p.p.p.p.p.p.p.p.",
"p.p.p.p.p.p.p.i.X.q > g #.9.q.0.8.5.2.-.;.;.>.>.<.<.;.] j 1 > b y.p.p.p.p.p.p.p.",
"p.p.p.p.p.p.y.~ 0 > ] 9.w.0.3.O.Y c d y y s x A ] *.*.;.$.R 0 & ! p.p.p.p.p.p.p.",
"p.p.p.p.p.y.H r > x q.w.2.~ g q 5 2 2 1 1 1 , 1 4 R $.$.#.$.} s q 6.p.p.p.p.p.p.",
"p.p.p.p.i.~ q 4 % Q 9.X.g 0 0 2 4 y x x x s 0 2 1 F #.@.@.@.O.| j y 6.p.p.p.p.p.",
"p.p.p.i.| 0 , & y >.Y r 0 2 5 A ;.9.0.5.>.*.O.! R o.@.@.o.o.o.@.} d s 0.p.p.p.p.",
"p.p.p.<.0 1 g Y -.Z 0 5 2 c 2.y.i.t.9.3.<.,.;.=.$.#.@.o.o.o.X.X.| ~ q c u.p.p.p.",
"p.p.e.c > } w.0.Y q 5 4 ! q.y.y.w.6.:.+.+.%.=.$.$.@.o.o.X.X.X.X.} } D 2 [ p.p.p.",
"p.p.O.2 c 0.q.} y 5 4 } 0.e.e.4.) v u 6 7 a D ) @.@.@.o.X.} X.' ] ] ~ d 5 q.p.p.",
"p.r.c , ;.w.2.g 0 1 ` q.q.q...a > # @ X . . $ < V { o.o.X.} } ' ( ` ` F , Q p.p.",
"p.>.4 j 0.q.R 0 2 b q.e.q._ 6 $ # % @ @ O O o o = l ) X.} } } ' ` ~ ~ R t q e.p.",
"i.! > ] q.2.g 0 0 5.u.e...6 % % % @ @ O O @ + @ % $ v [ } ] ' ` ~ ~ Q Q c > $.p.",
"e.j 2 2.q.| q 2 H u.u.1.p $ % @ @ O o @ o o + & % o : L ' ' ` ~ Q Q E R D 1 S p.",
"3.q s 7.7.A 0 0 2.i.q./ = % % @ @ - q g s > o + + o O a ^ ~ ! ! E R T R Y 0 y u.",
"@.1 c 9.5.x 4 d q.t.6.l % % @ @ - d b A Y Y 1 o + @ O < U ! Q Q E R T T K y 2 0.",
"` > A 7.2.s 2 n q.7.&.8 X + @ @ r c A ` Q o.R @ + @ o ; J E Q R K T K K H f > 1.",
"Y > Y 7.*.r 2 A 6.3.+.3 o + @ @ g n ` } ;.#.$.& o + O $ C I R K K K H H G h ; =.",
"Y > Y 5.*.r 2 n <.<.+.<   @ @ @ g F ~ ;.3.;.O.$ @ + O * C P T K H H H G H f ; #.",
"R 1 F 5.;.y 2 x >.<.%.e   X o o 2 Y ' @.$.>.g + @ @   : J H T H H F G F S s = *.",
"} 1 b 3.,.g 2 s $.,.;.N @ @ + + o 5 ~ *.O.g % @ o @ o 9 L K H H D F S A A y ; 1.",
";.0 s 2.<.n 4 5 } -.&._ : o @ @ + o % > & + + + @ o # m P H G S S S A A A 5 2 q.",
"8.s 5 *.<.Q 4 4 ` ;.*.#.z # + + @ + @ o @ @ + @ o O e J H H F G F A A A n , y i.",
"y.Z 1 ] <.*.Y Y #.$.#.#. .u X X o O + @ +   @ o o < J H G F S G A A A A k - H p.",
"p.` 1 b >.>.;.*.$.$.#.#...{ a *     X O   o o # 7 J K D n b A S A A A A t ; >.p.",
"p.2.q 5 O.;.*.$.#.#.O.O.X.| | J 9 : $ # # = 6 z I K D b f c Z A A A Z b , y y.p.",
"p.u.Z , Z ;.$.$.#.#.O.O.X.| | [ ( I C B B J E P T J c f c A A S A A N y - | p.p.",
"p.p.;.5 4 } *.$.#.O.X.X.X.} } ] ' ^ W W W ! R K Y S c b A A c y d g r ; d y.p.p.",
"p.p.i.H > s o.#.O.O.X.| | } ] ] ] ~ ! ! T T T T G G G G S c 1 ; = - ; , <.p.p.p.",
"p.p.p.e.c > c o.O.X.| | } ] ] ] ~ Q Q Q T T T T G Y G A S t - = > > ; ~ i.p.p.p.",
"p.p.p.p.e.H 0 n | o.| } ] ] ` ` ~ ! Q R R Y H H H F S S A w * ; , ; A u.p.p.p.p.",
"p.p.p.p.p.p.>.q b } | ] ] ] ] ~ ~ Q E R P Y R H H D S S S f ; ; ; A y.p.p.p.p.p.",
"p.p.p.p.p.p.p.;.q s Q ] ] ` ~ ! Q R Y R R P H H D A S S A q ; ; S y.p.p.p.p.p.p.",
"p.p.p.p.p.p.p.p.6.g 4 b Q ` ~ ! Q R R R Y Y H H F D S M d > > R i.p.p.p.p.p.p.p.",
"p.p.p.p.p.p.p.p.p.r.! 5 4 h A P R R R R Y Y H H S b i 2 ; r ;.i.p.p.p.p.p.p.p.p.",
"p.p.p.p.p.p.p.p.p.p.p.8.Y 5 1 4 y h l c c k f t 4 , , q ] e.p.p.p.p.p.p.p.p.p.p.",
"p.p.p.p.p.p.p.p.p.p.p.p.p.q.@.M r 2 , > ; ; , 2 y A :.y.p.p.p.p.p.p.p.p.p.p.p.p.",
"p.p.p.p.p.p.p.p.p.p.p.p.p.p.p.p.r.7.>.#.| ..;.9.y.p.p.p.p.p.p.p.p.p.p.p.p.p.p.p."
};
