/* XPM */
static char *result[] = {
/* columns rows colors chars-per-pixel */
"40 40 141 2 ",
"   c #0E0E0F",
".  c #110F0E",
"X  c #0F0E11",
"o  c #100F12",
"O  c #0F1012",
"+  c #111113",
"@  c #191613",
"#  c #191915",
"$  c #161619",
"%  c #1D1C1C",
"&  c #211F1C",
"*  c #24241E",
"=  c #1F1F21",
"-  c #232324",
";  c #2B2723",
":  c #2A2A23",
">  c #262628",
",  c #2B2B2C",
"<  c #323226",
"1  c #36322B",
"2  c #2E2E30",
"3  c #333334",
"4  c #3C3A31",
"5  c #363638",
"6  c #3B3B3D",
"7  c #413D36",
"8  c #424437",
"9  c #46443A",
"0  c #4A473B",
"q  c #47493D",
"w  c #4A4A3F",
"e  c #3E3E40",
"r  c #434345",
"t  c #484647",
"y  c #4D4D44",
"u  c #464648",
"i  c #4B4B4C",
"p  c #565347",
"a  c #565549",
"s  c #59564B",
"d  c #5B5A4B",
"f  c #4F4F51",
"g  c #4F5052",
"h  c #535354",
"j  c #585757",
"k  c #575758",
"l  c #595759",
"z  c #5B5A5C",
"x  c #605F5F",
"c  c #656255",
"v  c #686758",
"b  c #656859",
"n  c #5E5E60",
"m  c #615F60",
"M  c #626263",
"N  c #686767",
"B  c #6F6F61",
"V  c #676768",
"C  c #6B6B6C",
"Z  c #746F64",
"A  c #706E6F",
"S  c #737164",
"D  c #777368",
"F  c #79766A",
"G  c #7B796C",
"H  c #6E6E70",
"J  c #716F70",
"K  c #757474",
"L  c #787676",
"P  c #797977",
"I  c #767678",
"U  c #797778",
"Y  c #7C7B7C",
"T  c #827E72",
"R  c #807E7E",
"E  c #848175",
"W  c #84827C",
"Q  c #8A867F",
"!  c #8D897C",
"~  c #7F7F81",
"^  c #817F80",
"/  c #848384",
"(  c #898683",
")  c #868688",
"_  c #898789",
"`  c #8C8B8C",
"'  c #938E87",
"]  c #938F8E",
"[  c #919383",
"{  c #9B978B",
"}  c #9C998E",
"|  c #8F8E91",
" . c #918F96",
".. c #939394",
"X. c #9A9691",
"o. c #9E9C97",
"O. c #969699",
"+. c #989599",
"@. c #9B9B9C",
"#. c #A4A296",
"$. c #A3A39F",
"%. c #AAA69A",
"&. c #9F9FA0",
"*. c #A2A2A4",
"=. c #AFABA5",
"-. c #A7A7A9",
";. c #A9A7AC",
":. c #AAAAAC",
">. c #B0ADA6",
",. c #B3B2AB",
"<. c #AEAEB1",
"1. c #B0ACB0",
"2. c #B1AEBB",
"3. c #B3B3B5",
"4. c #B9B3B5",
"5. c #B6B8B0",
"6. c #BCBCB7",
"7. c #B6B5B9",
"8. c #B9B5BB",
"9. c #BBBBBC",
"0. c #C3C4BC",
"q. c #BEBFC0",
"w. c #BFC0C2",
"e. c #C3C3C5",
"r. c #C7C7C9",
"t. c #CACACB",
"y. c #CFCFD0",
"u. c #D3D3D4",
"i. c #DAD6D0",
"p. c #D7D7D8",
"a. c #DBDBDC",
"s. c #E1DED9",
"d. c #E1E0D9",
"f. c #DEDEE0",
"g. c #E3E3E3",
"h. c #E8E6E4",
"j. c #E2E1E9",
"k. c #EBEBEC",
"l. c #EDEDF1",
"z. c #F3F3F3",
"x. c #FFFFFF",
/* pixels */
"x.x.x.x.x.x.x.x.x.x.x.x.x.x.x.k.y.3.@.X.O.$.6.a.z.x.x.x.x.x.x.x.x.x.x.x.x.x.x.x.",
"x.x.x.x.x.x.x.x.x.x.x.x.k.4.P u 3 , > > - - > 5 z ..u.z.x.x.x.x.x.x.x.x.x.x.x.x.",
"x.x.x.x.x.x.x.x.x.x.z.*.i - > 5 i k x M M M j t 5 > 3 C e.x.x.x.x.x.x.x.x.x.x.x.",
"x.x.x.x.x.x.x.x.x.y.M - - 3 M F P P P P Y Y ^ Y Y A h 3 , K a.x.x.x.x.x.x.x.x.x.",
"x.x.x.x.x.x.x.z.+.5 - - - z L K P P U P Y / Y / / / ( Y z 3 t 5.x.x.x.x.x.x.x.x.",
"x.x.x.x.x.x.h.C - , , - - m L L F P U Y / Y / / / / ) _ ` Y u 5 @.x.x.x.x.x.x.x.",
"x.x.x.x.x.g.n = = > - = , N L L K U Y Y Y Y / / / ) ` ` ` | | n 5 @.x.x.x.x.x.x.",
"x.x.x.x.k.n = 2 5 > - ; t J L U U Y Y / / / / / ( ` ` | | ......V 6 :.x.x.x.x.x.",
"x.x.x.x.Y % u C C M h z K K K U U Y Y Y / / / / ) ` | | ......O.@.M u u.x.x.x.x.",
"x.x.x.:.- 6 A K K L K P K Z m m U ~ W / / / _ _ ` ` | ......O.@.@.@.g H z.x.x.x.",
"x.x.h.u > N K K K K K D N j z C Y ~ / Q Q ( ( _ | | ..O.O.O.@.@.&.*.| e J k.x.x.",
"x.x.@.% u K K K K K I H z N L R / ( W G G G ! ' ] ....O.@.@.@.&.&.*.-.C - ) x.x.",
"x.z.i > C K K K U L L L K L R W Z 0 : % # * 1 s E X.O.@.@.&.&.*.*.-.:.@.6 5 e.x.",
"x.e.- u K K K L L U L U U R T 0 @   O X O O   . * b X.&.&.&.*.*.-.-.:.<.V , ~ x.",
"x.) % n K K K U U U U Y R T 4 o X + + o + O   O   @ c o.&.*.-.-.:.:.<.<...2 k g.",
"z.j , D P P U U U Y Y R W w . o X O + + O O O O O O # F $.-.:.-.:.:.<.3.:.e r w.",
"g.6 6 L U Y U Y R R R W B # O + + X X $ = O O O O O X 1 } ;.:.:.:.-.<.3.7.z 5 &.",
"u.2 i U Y Y Y Y R R R W 9   + + + $ j @.<.) 5 X O O o + G 1.<.1.) i I 7.9.H 3 | ",
"e., j Y Y R ~ / ^ / ( T : X O O + z 9.:.;.&.` > O O + X a =.3.3.z 2 i ;.w.~ , ~ ",
"0., z R R / W / ^ ) ( G # o O + % ;.:.r.q.| ~ g O O O X 9 -.q.3.V 3 r -.w./ , ~ ",
"e., z / / / ( ) ( _ _ D # O + O - :.&.<.@.| H k + o .   4 >.8.8.V 2 u <.r.~ , ~ ",
"u.3 l / / ) ) ) ` ]  .T & O O   $ _ | ` | K V r X + + o q ,.9.9.M 3 f <.r.I , _ ",
"g.r i _ _ _ ` ` | |  .! <   O O O 3 / Y H M k = + + + + v 6.e.q.g 3 k w.t.V 2 O.",
"z.z 8 ) _ ` ] ` ......X.a O $ % + O 2 k k r = O + + + * [ t.p.9.e 5 H r.r.i 5 3.",
"x.` 2 W ` | ....O.O.@.@.T - $ + + O + . + + + + $ $ $ a 6.j.k. .5 e  .u.7.3 i p.",
"x.r.3 K ........@.@.@.&.} c @   X + o + + + + $ $ $ 4 #.d.z.p.f 5 f 9.u. .> I z.",
"x.z.j i ....O.@.@.@.*.&.-.X.d #   o + + $ $ $ $ # 7 { s.z.k.R 3 e ~ u.u.z 3 :.x.",
"x.x.*.5 / @.@.@.@.&.*.*.;.;.#.S 1 @ . + + + # , z %.s.h.l.*.3 6 h q.a.<.2 k f.x.",
"x.x.h.j l @.*.@.*.*.*.*.-.;.:.;.} D p 9 8 y B } 0.g.f.f.*.5 5 u +.a.u.V , @.x.x.",
"x.x.x.3.e ~ &.*.*.*.*.*.;.<.<.2.4.4.,.,.5.0.i.g.h.f.u.| 5 5 r Y u.f.*.> n a.x.x.",
"x.x.x.x._ r O.;.-.-.-.;. .K +.3.8.q.e.u.j.l.z.l.f.3.M 2 e r K y.f.e.r 6 4.x.x.x.",
"x.x.x.x.r.- g *.:.;.;.*.i , e V ..<.t.s.k.g.y.*.V 5 3 e r ~ y.j.y.l , ` z.x.x.x.",
"x.x.x.x.z.l - l -.<.<.;.n 3 , , 3 r n C V k e 2 3 e e k +.3.*.*.l > K g.x.x.x.x.",
"x.x.x.x.x.9.6 - h *.7.3.;.~ g 6 5 3 2 3 3 5 e e u n ) q.) , = - , H a.x.x.x.x.x.",
"x.x.x.x.x.x.-.e > r _ 3.9.9.<.O.K n g i g k V / *.t.f.<.- > 6 u _ f.x.x.x.x.x.x.",
"x.x.x.x.x.x.x.9.k , 2 l ..3.q.w.w.w.w.q.w.r.y.p.f.f.u.n - e g *.z.x.x.x.x.x.x.x.",
"x.x.x.x.x.x.x.x.a._ i 2 , i P &.3.e.t.y.u.p.u.y.7.` g - r Y t.x.x.x.x.x.x.x.x.x.",
"x.x.x.x.x.x.x.x.x.x.t./ i 2 - , 6 g M H K V l r 2 > e J 7.z.x.x.x.x.x.x.x.x.x.x.",
"x.x.x.x.x.x.x.x.x.x.x.z.p.&.C u 5 , > , 2 2 6 i C ..w.l.x.x.x.x.x.x.x.x.x.x.x.x.",
"x.x.x.x.x.x.x.x.x.x.x.x.x.x.z.p.9.*.O...O.-.9.u.l.x.x.x.x.x.x.x.x.x.x.x.x.x.x.x."
};
