/* XPM */
static const char *roomba_rot_07_sml1767953543[] = {
/* columns rows colors chars-per-pixel */
"40 40 148 2 ",
"   c #0E0E0F",
".  c #110E0F",
"X  c #14120F",
"o  c #0F0E11",
"O  c #110F13",
"+  c #0F1013",
"@  c #111113",
"#  c #191717",
"$  c #1A1A16",
"%  c #161619",
"&  c #1C1B1C",
"*  c #23221B",
"=  c #1E1E20",
"-  c #201F20",
";  c #242324",
":  c #2C2B23",
">  c #262628",
",  c #2B2A2C",
"<  c #38342E",
"1  c #37392E",
"2  c #39382F",
"3  c #2F2F30",
"4  c #333334",
"5  c #383737",
"6  c #3B3831",
"7  c #363738",
"8  c #383738",
"9  c #3B3B3C",
"0  c #424136",
"q  c #454139",
"w  c #48473B",
"e  c #4B4A3F",
"r  c #3F3F41",
"t  c #434344",
"y  c #4D4B42",
"u  c #474749",
"i  c #4B4B4C",
"p  c #514E42",
"a  c #545146",
"s  c #55524A",
"d  c #595A49",
"f  c #4E4E50",
"g  c #4F5052",
"h  c #535355",
"j  c #565658",
"k  c #595758",
"l  c #5B5A5C",
"z  c #605E5F",
"x  c #646254",
"c  c #656558",
"v  c #6A665B",
"b  c #6E695E",
"n  c #5F5F60",
"m  c #646364",
"M  c #6C6E61",
"N  c #666668",
"B  c #696768",
"V  c #6C6C6D",
"C  c #726F62",
"Z  c #757364",
"A  c #7B7668",
"S  c #6F6F71",
"D  c #706F70",
"F  c #757374",
"G  c #787776",
"H  c #767678",
"J  c #797778",
"K  c #7C7B7B",
"L  c #807F6F",
"P  c #837E75",
"I  c #807E7F",
"U  c #848275",
"Y  c #84827D",
"T  c #898579",
"R  c #89897F",
"E  c #7E7E80",
"W  c #817F81",
"Q  c #848384",
"!  c #888383",
"~  c #8B8982",
"^  c #868588",
"/  c #8B878A",
"(  c #8B8B8C",
")  c #938E87",
"_  c #908D8F",
"`  c #929585",
"'  c #96938F",
"]  c #9A968B",
"[  c #9B9A8D",
"{  c #8F8F91",
"}  c #918F93",
"|  c #939294",
" . c #9B9793",
".. c #969699",
"X. c #9B9B9C",
"o. c #A09E95",
"O. c #A09F9D",
"+. c #9EA093",
"@. c #A2A197",
"#. c #A6A49E",
"$. c #9E9EA0",
"%. c #A3A3A4",
"&. c #AAA7A6",
"*. c #A7A7A9",
"=. c #ABABAD",
"-. c #B4B1AB",
";. c #AFAEB1",
":. c #B0ADB5",
">. c #B3B2B3",
",. c #B8B3B5",
"<. c #B6B3BB",
"1. c #BAB7BC",
"2. c #B7B8B8",
"3. c #BBBABC",
"4. c #C2BFB5",
"5. c #C2C3BE",
"6. c #CBC7BE",
"7. c #CCCABF",
"8. c #BFBFC1",
"9. c #BFC0C2",
"0. c #C2C2C4",
"q. c #C5C5C5",
"w. c #C6C6C8",
"e. c #C8C8CA",
"r. c #CBCBCD",
"t. c #CDCDCE",
"y. c #D1D1CE",
"u. c #CDCED0",
"i. c #D3D3D4",
"p. c #D7D7D7",
"a. c #DBDAD1",
"s. c #D7D6D9",
"d. c #DADADB",
"f. c #DBDBDD",
"g. c #DCDBDF",
"h. c #DDDDDE",
"j. c #DEDEE1",
"k. c #E1E1E2",
"l. c #E4E4E4",
"z. c #E9E9E9",
"x. c #EFEFEF",
"c. c #EFEEF5",
"v. c #F0EFF0",
"b. c #F1F1F2",
"n. c #F4F4F4",
"m. c #F3F2F8",
"M. c #FAFAFA",
"N. c white",
/* pixels */
"N.N.N.N.N.N.N.N.N.N.N.N.N.N.N.N.N.d...V n N E X.q.z.N.N.N.N.N.N.N.N.N.N.N.N.N.N.",
"N.N.N.N.N.N.N.N.N.N.N.N.N.x.e.%.^ t > , , , , 7 u V ..i.M.N.N.N.N.N.N.N.N.N.N.N.",
"N.N.N.N.N.N.N.N.N.N.N.p.| j r t j V K Q ^ E S k r , 3 i ^ t.N.N.N.N.N.N.N.N.N.N.",
"N.N.N.N.N.N.N.N.N.h.^ r 9 m ^ ..%.*.=.=.;.2.1.1.;.| m 4 , u | z.N.N.N.N.N.N.N.N.",
"N.N.N.N.N.N.N.M.=.t 4 m ( ..X.$.%.%.*.=.=.;.>.1.3.0.0.*.N , 3 S p.N.N.N.N.N.N.N.",
"N.N.N.N.N.N.b.^ , u K | | ....X.$.%.*.*.=.=.%.K ^ =.0.w.w.X.t > n t.N.N.N.N.N.N.",
"N.N.N.N.N.x.F , j ^ ( { | ....X.X.%.%.*.*.;.F 4 8 u G =.e.t.1.k > n i.N.N.N.N.N.",
"N.N.N.N.n.F > l ^ ( ( { | ....X.X.%.%.*.*.=.Q 9 4 4 7 u ^ q.i.e.m > V k.N.N.N.N.",
"N.N.N.N.( > j Q ^ ^ ( ( | | ....X.%.%.*.=.=.=.X.K i 7 7 9 S 0.s.r.k , ^ n.N.N.N.",
"N.N.N.2., t K Q ^ ^ ( ( { | ....X.$.%.*.=.;.>.<.1.;.Q t 7 9 V q.f.0.r 9 2.N.N.N.",
"N.N.z.u , F Q Q Q ^ ( ( ( | | ..X.O.#.#.&.=.-.<.1.3.q.>.h 7 r H i.h.%., m l.N.N.",
"N.N...; k I I Q Q ^ ^ ( ( } |  . .T v a p d Z ] -.3.w.h.0.i 8 t ..f.d.m 3 %.N.N.",
"N.x.u 4 G K I Q Q Q ^ ^ ( _ ' U w $ X   o o @ * d +.5.g.b.>.8 9 j 8.k.>., m x.N.",
"N.2.> h K K K W Q Q ^ ^ / ) Z *   o @ @ @ @ @   @ 1 ` i.c.x.H 4 t ^ h.s.i t r.N.",
"N.G , V K K K I Q Q ^ Q ~ A *   @ @ @ @ @ @ @ @ @ @ 1 @.l.m.q.8 9 j w.e.9 8 %.N.",
"x.i 5 G G K K K I Y Q Q T < O X @ @ o o o o @ @ @ @ % s 6.x.l.N 7 u %.X.; 8 K n.",
"t.4 u G G G K K K Y Q ~ c @ @ + @ o & t i 9 & @ @ @ % ; ] l.l.X.4 t E ( % 9 n l.",
">., j G G G K K K I Q R 0 o @ @ o ; ( X.E G k & @ % % & b a.h.3.8 9 N *.> , j p.",
"X.> k G G G G J K E W U : o @ @ o G 1...{ G N t @ @ % % p 7.k.r.t 9 l e.Q ; t 0.",
"..; u G G G G G F K W P * o @ @ % X.;.0.$.{ m j % @ % % q 4.l.p.f 9 j w.f.l 4 >.",
"..; , i V G G F l V I P * o @ @ % | =.q.%.{ V k % @ % % q 4.x.j.f 8 j w.k.K 4 =.",
">.> ; - , l G F k B K U : o @ @ o l w.*...E E 9 o @ % % y 6.v.j.i 8 l r.h.V 7 2.",
"i.4 > ; ; 8 F F l m G Y y o @ @ @ % V ;.$.E i % O @ @ # M y.b.i.t 9 V i.d.l 9 0.",
"z.u , > ; 4 F G m z G I C # o @ @ @ @ > 4 = @ @ O @ @ : [ s.c.2.7 9 E s.t.t i p.",
"M.N > > ; u G F V V J K T e o @ + + @ o o @ @ @ @ O X x ,.i.l.Q 4 t %.d.>., V z.",
"N.| = ; 9 V G F G G K K I U 2 . O @ @ @ @ & @ @ O @ e @.3.r.0.u 7 h 9.p.^ > ( M.",
"N.e., > m F F G G G J K K Y L q @ o o o o & %   # s [ ,.1.8.G 4 7 Q u.w.i 7 2.N.",
"N.b.h > m F F F G G J K K K Y T v 6 & % @ # ; 0 Z o.:.<.2.( 7 4 g 2.t.X.> k l.N.",
"N.N.%.; i F F F G G J K K W Q ! ~ ~ L Z C Z U [ &.=.;.>.{ 9 4 9 | q.8.i , ..N.N.",
"N.N.z.u , m F F F G J K K I Q ^ / ( } ....X.%.*.*.=.=.^ 9 3 7 H 1.0.Q ; i d.N.N.",
"N.N.N.>.> 9 V G G G J K K I Q ^ ( ( | ..X.$.%.%.%.*.%.u , 7 V >.8.%.4 , ..N.N.N.",
"N.N.N.M.K & u F G G J K K I Q ^ ( ( | ....X.$.%.%.%.*.V t H >.3.=.u > N z.N.N.N.",
"N.N.N.N.z.k & u F G J K K W Q ^ ( ( | ....X.$.%.%.%.*.*.%.>.1.=.h > h i.N.N.N.N.",
"N.N.N.N.N.k.j & t D K K K W Q ^ ( ( | | ..X.X.%.%.%.*.=.>.1.%.i , h 0.N.N.N.N.N.",
"N.N.N.N.N.N.l.m & 8 m K K I Q ^ ( ( ' | ....X.%.%.*.=.;.>.( r , j 0.N.N.N.N.N.N.",
"N.N.N.N.N.N.N.b.( , > i V K Q ^ ( ( ( | ....X.%.%.*.*.| l , 3 m t.N.N.N.N.N.N.N.",
"N.N.N.N.N.N.N.N.N.q.m > , u m K ^ ( | | ..X.X.X.| K h 4 > 9 Q k.N.N.N.N.N.N.N.N.",
"N.N.N.N.N.N.N.N.N.N.n.3.S 8 > , 9 h l m N m l f 7 & ; 7 m 1.M.N.N.N.N.N.N.N.N.N.",
"N.N.N.N.N.N.N.N.N.N.N.N.N.h.>.Q l i t t i l F X.%.{ %.r.b.N.N.N.N.N.N.N.N.N.N.N.",
"N.N.N.N.N.N.N.N.N.N.N.N.N.N.N.N.M.x.l.l.z.b.M.N.N.N.N.N.N.N.N.N.N.N.N.N.N.N.N.N."
};
