/* XPM */
static char *result[] = {
/* columns rows colors chars-per-pixel */
"40 40 128 2 ",
"   c #0F0E0F",
".  c #100E0F",
"X  c #13120E",
"o  c #0E0E11",
"O  c #100F12",
"+  c #0F1013",
"@  c #111113",
"#  c #1A1513",
"$  c #1A1A16",
"%  c #161619",
"&  c #1C1C1D",
"*  c #201E1F",
"=  c #24231D",
"-  c #232324",
";  c #2B2723",
":  c #2C2C25",
">  c #272729",
",  c #2B2B2C",
"<  c #302D26",
"1  c #35332A",
"2  c #37392F",
"3  c #39392E",
"4  c #2F2F31",
"5  c #333334",
"6  c #3E3B33",
"7  c #373739",
"8  c #37383A",
"9  c #3A3A3C",
"0  c #45433A",
"q  c #4B473D",
"w  c #49493E",
"e  c #3F3F41",
"r  c #444445",
"t  c #474749",
"y  c #4B4B4C",
"u  c #535146",
"i  c #565549",
"p  c #4E4E50",
"a  c #535355",
"s  c #585657",
"d  c #5E5B50",
"f  c #565658",
"g  c #5B5A5C",
"h  c #615F52",
"j  c #5F6151",
"k  c #646156",
"l  c #67645A",
"z  c #6D6B5E",
"x  c #5F5F60",
"c  c #646364",
"v  c #686667",
"b  c #6F6F62",
"n  c #666668",
"m  c #6B6B6C",
"M  c #716E63",
"N  c #706E6F",
"B  c #7B7668",
"V  c #7D7A6C",
"C  c #6F6F71",
"Z  c #716F70",
"A  c #757475",
"S  c #787776",
"D  c #7C7974",
"F  c #777779",
"G  c #797778",
"H  c #7C7B7B",
"J  c #807B72",
"K  c #807E7F",
"L  c #838072",
"P  c #85827B",
"I  c #89857D",
"U  c #8C897D",
"Y  c #7F7E81",
"T  c #807F80",
"R  c #848383",
"E  c #898683",
"W  c #8C8A80",
"Q  c #878689",
"!  c #898789",
"~  c #8B8B8C",
"^  c #908B85",
"/  c #918F8C",
"(  c #939386",
")  c #96938D",
"_  c #99968A",
"`  c #9A988B",
"'  c #8E8E90",
"]  c #908F94",
"[  c #939395",
"{  c #9E9E95",
"}  c #969599",
"|  c #99979A",
" . c #9B9B9C",
".. c #A29F93",
"X. c #A09F9B",
"o. c #A2A495",
"O. c #A3A29D",
"+. c #9F9FA1",
"@. c #A3A3A4",
"#. c #A6A6A9",
"$. c #A9A7A9",
"%. c #ABAAAC",
"&. c #AFAEB1",
"*. c #B0AEB6",
"=. c #B3B3B5",
"-. c #BAB6B7",
";. c #B6B5B9",
":. c #B9B4BB",
">. c #BBBBBC",
",. c #C0C1BC",
"<. c #CBC8BF",
"1. c #BFBEC1",
"2. c #C3C3C4",
"3. c #C6C7C9",
"4. c #CCCCCC",
"5. c #CFCFD1",
"6. c #CFD0D2",
"7. c #D2D2D4",
"8. c #DAD7D1",
"9. c #D6D6D8",
"0. c #DCDCDD",
"q. c #DFDFE1",
"w. c #E4E4E3",
"e. c #EAEAEB",
"r. c #ECEBF1",
"t. c #F3F3F3",
"y. c #F3F2F8",
"u. c #FFFFFF",
/* pixels */
"u.u.u.u.u.u.u.u.u.u.u.u.u.u.w.1.%.%.3.t.t.t.u.u.u.u.u.u.u.u.u.u.u.u.u.u.u.u.u.u.",
"u.u.u.u.u.u.u.u.u.u.u.y.4.! f 7 , > , g c x c H  .2.e.u.u.u.u.u.u.u.u.u.u.u.u.u.",
"u.u.u.u.u.u.u.u.u.y.4.Y r , > 7 t g n m m c a t 5 5 t R 4.u.u.u.u.u.u.u.u.u.u.u.",
"u.u.u.u.u.u.u.u.e.} y 4 , f T  .@.%.@.@.+. .} ' R m t : 5 S 9.u.u.u.u.u.u.u.u.u.",
"u.u.u.u.u.u.u.7.m 5 , a | =.=.&.%.#.@.+. . .} ) ] ~ Q A y , 9 @.y.u.u.u.u.u.u.u.",
"u.u.u.u.u.u.2.a > 5 R ;.>.;.&.%.#.@.@.+. . .} ] ' ! E R P n 9 - A e.u.u.u.u.u.u.",
"u.u.u.u.u.3.t - t @.>.>.#.R ' #.#.@.@.+.+.| } ] / ! Q R R P A t * c w.u.u.u.u.u.",
"u.u.u.u.0.f - y #.1.>.' p 5 9 | #.@.+.+. . .[ [ ' ~ Q R R H H A t - c t.u.u.u.u.",
"u.u.u.t.Y > r &.2.;.F 8 4 , t  .#.#.@.+. .| [ [ ' ~ E R R H H F A r & R u.u.u.u.",
"u.u.u.%.8 5 #.5.>.m 8 4 5 c  .%.#.#.#.+.+. .[ [ ~ ~ R R T Y H F G N 6 - =.u.u.u.",
"u.u.w.x > ! 5.3.F 8 4 r ! =.*.&.%.#.@...{ | [ ] ~ ~ R T R H H S A A c > r e.u.u.",
"u.u.@.5 a 4.6.} e 5 r +.>.:.*.$.` J M h z V U / ~ E R R K H G S A A A y & | u.u.",
"u.e.n , @.0.1.a 8 e @.6.1.=...M 6 $ % % @ $ 1 h I E R R K H G G A A A v , t e.u.",
"u.2.9 p 7.9.~ 9 4 Y w.9.>._ q # o o O & + o o @ 6 V P P K H S G S A A Z t > >.u.",
"u.} : ~ 0.3.g 8 r 4.r.6.o.0 X @ O O O & @ @ O O . 1 J L H H G G A A Z A l - K u.",
"e.m , >.0.@.r 5 C r.e.,.j % X + O O o o o o @ O O . 0 P K H S G G A A A n , f t.",
"q.a e 6.0.R e 4 @.t.w.` : % @ + o @ > 7 4 + o + + + $ b P H S G A A A A c > 9 0.",
"5.t 4 1.7.n e 9 1.e.8.z % % @ + % a Y ' %.A % @ @ @ O w K G A Z A A A v 9 * , 3.",
"3.y - n 3.g 9 t 5.w.<.u $ @ @ @ r F H ' +.2.c o @ @ o : P G m g N A c 4 - - , >.",
">.t , 4 &.a 7 p 5.w.,.0 % @ @ % a n ' +.2.&.[ % + + o - J D N g N G t - - : 4 ;.",
">.t , 5 %.f 7 p 5.w.-.0 % @ @ % a c ' +.3.#.[ % @ O o = J D m s N G r - - , : ;.",
"2.y - c 3.g 9 t 5.w.<.q % % @ @ r m F ] +.2.n o @ O o : I K v g A A c : & - , >.",
"4.y 4 >.9.c 9 9 3.e.8.l $ @ @ + & f Y ! @.R & + @ o o 0 I K A N G F A l 7 - 4 2.",
"0.p r 7.0.H e 5 %.y.w.( - @ @ @ o % 4 r 8 % + + @ o # z R K H G G A F F c > 5 9.",
"e.c 4 1.q.+.r 5 F t.r.>.i X @ @ @ @       o + o +   6 P T T H H G S S A N 4 y e.",
"u.~ > | q.2.g 9 t 7.r.6.{ 2       + + + @ @ + X O ; V I R T T H S D S D c : A u.",
"u.1.7 g 9.9.R e 5 ' w.5.,.( 3   o + + + o @ o   < B W Q R R T H H F A F i > =.u.",
"u.w.x , &.0.>.p 8 r =.5.>.-...k : #       X = u L ^ E E R P R H H S F C 5 y e.u.",
"u.u.+., c 7.7.' e 5 a %.1.:.:.%._ B h i d b U ) ' ~ ! Q R R T H H H H g - } u.u.",
"u.u.q.g , +.9.3.C 7 5 p | :.;.=.&.%.O.O.X.X.} [ ] ' ! E R R T R T H m 1 t w.u.u.",
"u.u.u.#.8 r 1.5.>.c 7 5 e F #.&.&.%.%.@.+. .| [ [ ' ~ E R R R H H G r , &.u.u.u.",
"u.u.u.r.F > f 1.4.>.m 9 7 5 a @.%.%.@.@.+. .| [ [ ' ~ ! R R R R H a = D y.u.u.u.",
"u.u.u.u.9.g - c >.3.>.R r 5 r +.&.#.#.@.+. .| } ] [ ~ ~ ! R R T a = g e.u.u.u.u.",
"u.u.u.u.u.2.p > g =.2.1.@.F ' #.%.#.#.@.+. .| } ] ] ~ ~ R R Y a - g q.u.u.u.u.u.",
"u.u.u.u.u.u.>.f , t  .1.>.;.;.&.%.#.#.@.+. . .[ [ ( ~ ~ ! A r - C w.u.u.u.u.u.u.",
"u.u.u.u.u.u.u.4.m 5 4 m @.>.;.&.&.%.#.@.+. .| } [ [ ' H g 1 7 } y.u.u.u.u.u.u.u.",
"u.u.u.u.u.u.u.u.w.} y , 9 n ] #.&.%.%.#.@.+. .} ~ H g 5 4 C 5.u.u.u.u.u.u.u.u.u.",
"u.u.u.u.u.u.u.u.u.y.3.F r 4 4 r g m F H F A n f e 7 r F 3.u.u.u.u.u.u.u.u.u.u.u.",
"u.u.u.u.u.u.u.u.u.u.u.t.2.Q a 9 , , , a f p g m ~ >.w.u.u.u.u.u.u.u.u.u.u.u.u.u.",
"u.u.u.u.u.u.u.u.u.u.u.u.u.u.w.1.%.@.2.w.e.w.e.u.u.u.u.u.u.u.u.u.u.u.u.u.u.u.u.u."
};
