/* XPM */
static char *_808bb55029a411acb389123b438c97351FON5PulcFmerpa[] = {
/* columns rows colors chars-per-pixel */
"40 40 150 2 ",
"   c #0E0D0F",
".  c #110D0F",
"X  c #0F100E",
"o  c #12110F",
"O  c #0E0E11",
"+  c #100F13",
"@  c #0F1014",
"#  c #111113",
"$  c #1A1715",
"%  c #171816",
"&  c #161619",
"*  c #1B1B1C",
"=  c #201E1F",
"-  c #23231D",
";  c #1F1F21",
":  c #232324",
">  c #2E2B24",
",  c #272729",
"<  c #2A2A2B",
"1  c #302D26",
"2  c #343127",
"3  c #36352D",
"4  c #38352E",
"5  c #3B3B2E",
"6  c #2F2F31",
"7  c #312F30",
"8  c #333334",
"9  c #3C3A32",
"0  c #373739",
"q  c #393738",
"w  c #3A3A3C",
"e  c #413E36",
"r  c #434237",
"t  c #45443B",
"y  c #4B473C",
"u  c #48483D",
"i  c #3E3E40",
"p  c #424244",
"a  c #474748",
"s  c #4A4A4C",
"d  c #524D45",
"f  c #56584C",
"g  c #5D5A4C",
"h  c #4F4F51",
"j  c #535354",
"k  c #585657",
"l  c #5D5B50",
"z  c #575759",
"x  c #5B5A5C",
"c  c #605E5F",
"v  c #656355",
"b  c #636558",
"n  c #6A665B",
"m  c #6D6C5C",
"M  c #5F5F61",
"N  c #636264",
"B  c #696867",
"V  c #676768",
"C  c #6B6B6C",
"Z  c #726D62",
"A  c #747162",
"S  c #777569",
"D  c #7B7A6D",
"F  c #6E6E70",
"G  c #716F70",
"H  c #757474",
"J  c #787676",
"K  c #7C7A74",
"L  c #777779",
"P  c #797778",
"I  c #7C7A7B",
"U  c #807B6F",
"Y  c #817D72",
"T  c #807E7F",
"R  c #7F8072",
"E  c #848177",
"W  c #888677",
"Q  c #83827D",
"!  c #8A857B",
"~  c #8D8A7E",
"^  c #7F7F81",
"/  c #817F81",
"(  c #848384",
")  c #8C8883",
"_  c #878689",
"`  c #8A878B",
"'  c #8C8B8C",
"]  c #938E88",
"[  c #919484",
"{  c #9A978B",
"}  c #9C9A8D",
"|  c #8F8F91",
" . c #928F95",
".. c #939294",
"X. c #989594",
"o. c #9E9C95",
"O. c #979799",
"+. c #9B9B9D",
"@. c #A09D9C",
"#. c #A3A195",
"$. c #A2A29C",
"%. c #9E9EA1",
"&. c #A3A3A4",
"*. c #AAA7A5",
"=. c #A6A6A9",
"-. c #ABABAC",
";. c #B3AEAB",
":. c #B6B7AE",
">. c #AEAEB1",
",. c #B1AFB5",
"<. c #B3AFBB",
"1. c #B3B2B5",
"2. c #B5B5B6",
"3. c #BBB6B5",
"4. c #B6B6B8",
"5. c #B8B4BB",
"6. c #BBBABC",
"7. c #BCBBBD",
"8. c #BEBEBF",
"9. c #C2BEB4",
"0. c #C6C4BA",
"q. c #CCCABF",
"w. c #B8B4C0",
"e. c #BFBFC1",
"r. c #C2C2C4",
"t. c gray78",
"y. c #CDC8C0",
"u. c #C6C6C8",
"i. c #CBCBCD",
"p. c #CCCCCD",
"a. c #D3D3D4",
"s. c #D3D3D5",
"d. c #DAD9D5",
"f. c #D6D6D9",
"g. c #DADADA",
"h. c #DBDBDC",
"j. c #DDDDDD",
"k. c #DDDDE1",
"l. c #E3E3E3",
"z. c gray90",
"x. c #E6E6E6",
"c. c #E7E7E8",
"v. c #ECECEC",
"b. c #EFEEF2",
"n. c #F0EFF4",
"m. c #F3F3F3",
"M. c #F3F3F4",
"N. c #F5F5F5",
"B. c #F9F9F9",
"V. c white",
/* pixels */
"V.V.V.V.V.V.V.V.V.V.V.V.V.V.V.V.N.c.j.g.j.x.m.V.V.V.V.V.V.V.V.V.V.V.V.V.V.V.V.V.",
"V.V.V.V.V.V.V.V.V.V.V.V.B.g.-.P z a p p a h M _ O.` &.i.m.V.V.V.V.V.V.V.V.V.V.V.",
"V.V.V.V.V.V.V.V.V.V.m.2.V 0 , q s N F J L J B z p , , 0 V 4.N.V.V.V.V.V.V.V.V.V.",
"V.V.V.V.V.V.V.V.B.8.x , 8 k H _ ' ..O.O.+.%.&.&.%.' B w , i ( g.V.V.V.V.V.V.V.V.",
"V.V.V.V.V.V.V.c.I , < z P _ _ ` ' ....O.O.+.%.&.=.-.>.&.F 0 8 N t.V.V.V.V.V.V.V.",
"V.V.V.V.V.V.j.z : p H ( ( _ _ ` ' ....O.O.+.%.&.=.-.-.1.4.+.h < k 8.V.V.V.V.V.V.",
"V.V.V.V.V.j.j : j P Q ( ( ) _ ` ' ....O.O.+.&.=.=.-.-.1.2.6.1.N , j 8.V.V.V.V.V.",
"V.V.V.V.x.k : k P I T ( ( _ _ ` ' ..O.O.+.+.&.=.-.-.-.-.&.1.8.6.B , z p.V.V.V.V.",
"V.V.V.B.J : k P P I T ( ( _ _ ` ' ..O.O.+.%.&.=.-.-.-.H i V >.r.6.x , B x.V.V.V.",
"V.V.V.-., p J P P I T ( ( _ _ ` ' ....O.+.+.&.=.-.-.-.k 8 0 N 1.u.4.p 6 O.V.V.V.",
"V.V.x.a 8 C J J P I T ( ( _ _ ` ' ..X.o.@.$.&.=.-.>.>.O.a 0 0 C e.i.+., h a.V.V.",
"V.V.O.: j J J J P I T Q ( _ _ ) ] ~ S v v n Y } -.,.1.4.%.s 0 w _ i.i.N , | V.V.",
"V.v.s , B J J J P I I Q ( ( ) ! g > % X   o $ 2 m #.1.w.6.+.p 0 s 1.a.-.< z l.V.",
"V.8., , N J J J P I I T ( ) D 4 #   + # # # O O # t { 3.7.r._ 0 q I a.a.x 8 2.V.",
"V...; : q C J J P P I / ( R >   + @ # # # # # # +   5 o.8.i.p.k q j 8.h.O.: _ B.",
"B.B : : = p H J J B P / ! t O # # @ # O O O # # # # o f :.a.x.| 0 p +.h.e.8 N x.",
"c.a < : : 7 C J V k P ( Z % # # # # # 6 w < & @ # # # - [ f.n.8.w w I g.a.s a a.",
"p.8 , : : q H H x N P ! y   # # # * L >.O.^ k & # # # & b p.M.d.a w V a.j.V q 7.",
"2., : : 0 N J G z B I E > O # # O x r.=.O.P H p # # # & t 0.m.l.h q z i.l.L 8 -.",
"=.: , j C J J C c H P Y - O # # & ..-.u.=.| V z & # & & 9 9.v.l.j q j t.l.( < &.",
"&.: a H H J J J H P I Y - O # # & +.1.r.%.| V k & # & & e 9.c.g.j q k t.h.N 8 -.",
"-.: k H H H J J P P I E > O # # # B e.+.' P F p # # & & d q.l.p.a w x u.^ : a 8.",
"6.: s H H J J J P P I ! u   # @ # * ( &._ ^ z * # # & * Z d.j.6.q w V =.: 6 j a.",
"a.8 p H H J J J P P I Q m $ + @ # O & 8 i 8 & O # & & > } x.l.O.8 p ^ ' & w x x.",
"v.a < C J H J J P I I Q W r . # # # # O O O + + # & % l y.v.l.N 0 a =.%.: q ^ B.",
"V.P * N J J J P P I T ( ! U 1 O # # # * # # + # # % r $.l.m.e.0 i z i.i.w 8 =.V.",
"V.8.: a J J J P I I T ( ( ) D 3 # O # * # # + . o r } a.b.v.F 8 p ' j.a.a p p.V.",
"V.m.s , B J P P I T ( ( _ ` ' W g > $ & o # $ 2 n #.r.k.b.=.0 w z r.k.-., C m.V.",
"V.V.=.* a J P P I / ( _ ` '  . .X.~ A v g v K } ;.7.u.j.6.a 0 p +.g.a.z 8 -.V.V.",
"V.V.m.j : V P I I ( ( _ ` ' ....+.+.$.$.&.*.-.<.5.6.r.&.a 0 w ^ a.h.O., B c.V.V.",
"V.V.V.r., q H I T ( _ _ ` ' ..O.+.%.&.=.=.-.>.,.1.=.F q 8 q H u.f.2.0 p 6.V.V.V.",
"V.V.V.V.O.: a P / ( _ ` ' ....O.+.+.&.&.=.-.=.` V i 8 8 w P r.a.8.s 6 ' N.V.V.V.",
"V.V.V.V.N.I : s I _ _ ` ' ....O.+.%.&.&.=.-.J 8 < 6 0 h ..r.p.6.j , C x.V.V.V.V.",
"V.V.V.V.V.m.P : a P ` ` ' ..O.O.+.%.&.&.=.-.F 6 q h I >.r.t.=.a , N a.V.V.V.V.V.",
"V.V.V.V.V.V.N.' , q G ' ....O.O.+.%.&.&.=.-.=._ ..-.6.r.6.( 8 : M a.V.V.V.V.V.V.",
"V.V.V.V.V.V.V.V.2.a < k I ..O.+.%.&.&.=.-.-.>.2.6.8.4...h : < C g.V.V.V.V.V.V.V.",
"V.V.V.V.V.V.V.V.V.x.' p 8 j H ' +.&.=.-.-.1.1.1.&.I s , , a O.v.V.V.V.V.V.V.V.V.",
"V.V.V.V.V.V.V.V.V.V.V.l.&.N p p h x V F H C x a 8 , 8 s _ a.V.V.V.V.V.V.V.V.V.V.",
"V.V.V.V.V.V.V.V.V.V.V.V.V.N.g.6.+.a ; : : , < 8 a C +.a.B.V.V.V.V.V.V.V.V.V.V.V.",
"V.V.V.V.V.V.V.V.V.V.V.V.V.V.V.V.V.l.+.F x V ( =.p.m.V.V.V.V.V.V.V.V.V.V.V.V.V.V."
};
