/* XPM */
static char *result[] = {
/* columns rows colors chars-per-pixel */
"40 40 134 2 ",
"   c #0F0E0F",
".  c #120E0E",
"X  c #11110F",
"o  c #0F0E11",
"O  c #100F12",
"+  c #0F1014",
"@  c #111113",
"#  c #181616",
"$  c #171816",
"%  c #1B1A16",
"&  c #161619",
"*  c #1C1C1E",
"=  c #221F1C",
"-  c #23221C",
";  c #1F1F21",
":  c #232324",
">  c #2A2623",
",  c #2B2C23",
"<  c #262628",
"1  c #2B2B2C",
"2  c #35352B",
"3  c #3A3A2F",
"4  c #2F2F31",
"5  c #302F31",
"6  c #333335",
"7  c #3A3A31",
"8  c #373739",
"9  c #3B3A3C",
"0  c #413E36",
"q  c #45443A",
"w  c #4A463B",
"e  c #47493E",
"r  c #4C4A3E",
"t  c #3E3E40",
"y  c #434344",
"u  c #474749",
"i  c #4B4B4C",
"p  c #534F47",
"a  c #504F4F",
"s  c #555247",
"d  c #575448",
"f  c #4F4F51",
"g  c #535355",
"h  c #5E5C52",
"j  c #565658",
"k  c #595758",
"l  c #5B5B5C",
"z  c #666456",
"x  c #676459",
"c  c #69695A",
"v  c #5F5F60",
"b  c #646364",
"n  c #666668",
"m  c #6B6B6C",
"M  c #716F62",
"N  c #767363",
"B  c #79766B",
"V  c #7C7C6D",
"C  c #6F6F71",
"Z  c #716F70",
"A  c #757474",
"S  c #787676",
"D  c #797977",
"F  c #767779",
"G  c #797778",
"H  c #7C7B7C",
"J  c #837E73",
"K  c #807E7E",
"L  c #828174",
"P  c #85837C",
"I  c #89867B",
"U  c #7E7E80",
"Y  c #807F80",
"T  c #848383",
"R  c #8B8783",
"E  c #8D8984",
"W  c #868788",
"Q  c #898789",
"!  c #8B8B8C",
"~  c #928E8C",
"^  c #99958A",
"/  c #979988",
"(  c #9B988E",
")  c #8E8E91",
"_  c #908F92",
"`  c #939294",
"'  c #9A9690",
"]  c #9D9B92",
"[  c #969699",
"{  c #98969C",
"}  c #9B9B9D",
"|  c #A3A095",
" . c #A0A09C",
".. c #A9A599",
"X. c #9F9FA1",
"o. c #A2A2A4",
"O. c #A9A6A5",
"+. c #ADA9A2",
"@. c #A6A6A8",
"#. c #A9A7AA",
"$. c #ABABAD",
"%. c #B3AEAB",
"&. c #B2B3AB",
"*. c #AEAEB1",
"=. c #B1AFB2",
"-. c #B1AEBA",
";. c #B4B4B5",
":. c #BBBAB7",
">. c #B7B6B9",
",. c #BAB5BA",
"<. c #BBBBBD",
"1. c #BFC0BB",
"2. c #CBC9BF",
"3. c #BFBFC1",
"4. c #C4C4C5",
"5. c #C7C7C9",
"6. c #CBCCCC",
"7. c #D7D4CC",
"8. c #CECFD1",
"9. c #CFD0D2",
"0. c #D3D3D4",
"q. c #D7D7D9",
"w. c #DCDCDD",
"e. c #E0DDD9",
"r. c #E3E3DF",
"t. c #DFDFE2",
"y. c #E0DFE8",
"u. c #E3E3E4",
"i. c #E8E8E6",
"p. c #E7E7E8",
"a. c #EBEBEC",
"s. c #EEEDF1",
"d. c #F3F3F4",
"f. c #FFFFFF",
/* pixels */
"f.f.f.f.f.f.f.f.f.f.f.f.f.f.d.w.>.} W H U W ` $.5.p.f.f.f.f.f.f.f.f.f.f.f.f.f.f.",
"f.f.f.f.f.f.f.f.f.f.f.f.p.*.A i 8 1 < 1 1 4 4 6 t j U 5.f.f.f.f.f.f.f.f.f.f.f.f.",
"f.f.f.f.f.f.f.f.f.f.u.X.l 6 ; 1 9 f v m n n l u 6 < < 9 ! s.f.f.f.f.f.f.f.f.f.f.",
"f.f.f.f.f.f.f.f.d.>.b 4 < i H o.;.<.3.3.1.<.>.*.X.U f 4 ; U d.f.f.f.f.f.f.f.f.f.",
"f.f.f.f.f.f.f.a.` t < j X.4.8.6.4.<.-.*.$.*.;.*.*.$.@.! j 9 W u.f.f.f.f.f.f.f.f.",
"f.f.f.f.f.f.u.D 4 8 ` 9.q.8.3.} F v f i i f U $.$.$.@.@.X.U u g 4.f.f.f.f.f.f.f.",
"f.f.f.f.f.p.S 1 f >.t.q.3.W f t 6 6 4 1 4 1 u o.@.@.o.o.o.X.! f 9 *.f.f.f.f.f.f.",
"f.f.f.f.d.W 1 g 5.t.8.X.g t 8 6 9 y f j f f F @.@.o.o.X.X.} } _ j 8 $.f.f.f.f.f.",
"f.f.f.f.@.u : X.t.6.U u 9 6 u T $.;.;.=.*.@.#.@.o.o.X.X.} [ [ ` ! i 8 2.f.f.f.f.",
"f.f.f.6.f 8 : @.9.F y 9 6 A 6.p.q.5.,.,.-.*.$.@.o.o.X.} } [ ` ` ) T 9 i t.f.f.f.",
"f.f.d.D t < 4 ;.U y 9 8 [ a.d.y.6.:.%.+.@.O.#.@.@.X.X.} [ ` ` ) ! ! m > H f.f.f.",
"f.f.;.u < : T [ u 9 8 } a.a.u.1./ N s r p z L (  .X.X.} [ ` ` ! E W W i 4 5.f.f.",
"f.a.m < l #.<.j t 4 ! w.p.e...h , # . .   X % q V ( } [ ` ` ! ! Q T T A 1 Z f.f.",
"f.<.8 j q.t.W y 6 v 0.e.e.( 0 $ @ @ @ O + + @ $ > M ` ` ` ) ! W Q T T H u 6 q.f.",
"f.! 1 ` t.5.j t 8 ;.w.r...q $ & & @ O O + X & $   - N ~ ` ! W W T Y K K b : } f.",
"p.b 6 3.t.} y 6 n y.p.4.h * & @ @ @ o o + + & +   + 2 I W W R T T K K H A 1 b d.",
"8.u f 0.q.U t 6 $.s.i.^ > @ & @ o * t g y * o + + o @ z R Q Y Y Y K H G G 9 9 r.",
";.8 v q.8.b 9 y 0.d.7.z & & $ @ ; j C H W T 1 o @ X . 0 I Y Y Y K H G G S i < 5.",
"X.4 F t.4.g 8 v i.s.:.e & & @ @ y v A ) ! *.H @ + + o > J K Y Y H H G S S g ; $.",
"` 4 T q.>.f 8 A a.y.&.3 @ @ @ @ j n ) } >.$.@.& @ + O - J K K K G G G S S k = X.",
") 1 U q.>.f 8 F t.0.+.3 + @ O @ j C ) *.4.*.} $ @ @ O = V K H D S S A A A j - } ",
") 1 F 0.<.f 6 n 6.4.&.e   @ @ @ 9 U T X.*.;.j + @ O O , J H D D S S A A A j - o.",
"X.4 n 8.3.j 6 g ,.3.:.c   + O @ @ u ! $.*.v & + O O O w K H G D S S A A A i : ;.",
">.8 f 3.4.m 8 9 o.:.,./ > o + o + o ; 1 ; o + + @ o % N K G S D S A A A Z t 6 q.",
"0.i 8 ;.5.) 9 6 F >.3.$.x @ o @   @ o   o @ O O @ o w P D A b A A A A Z m 2 i a.",
"s.m < _ 4.$.i 6 i @.*.*.| r X o @ + @ + + @ O O o 3 J H S l v Z A A A A l : U f.",
"f.} 5 v 3.<.C 6 6 W *.*.$.( d %   o O . O o o & q J T G b k m S A m b l 6 < 3.f.",
"f.0.f 6 @.3.o.g f } $.$.$.o.] V q - # @ # - 7 c I P U C g b A A i 1 1 < ; g d.f.",
"f.d.T 1 m >.>.$.@.$.#.#.@.o.X.} ( I B M N J I I Y Y K A Z A S k < : : : < $.f.f.",
"f.f.4.i 8 } >.;.*.$.#.@.o.o.} } [ ` ` ~ E I T T Y K K G J S G i ; = 1 < l d.f.f.",
"f.f.d.W 5 f *.*.*.$.#.@.o.X.X.{ [ ` _ ! Q Q Q Y Y K K G S S G l : : < 9 6.f.f.f.",
"f.f.f.q.j 1 n *.$.#.@.o.o.} } [ [ ` ~ ! Q R Q Y K K G K S S A Z 5 : : } f.f.f.f.",
"f.f.f.f.;.y 1 C @.#.o.o.X.} { { ` _ ! ! W W U T U K D D B D A m 2 ; n d.f.f.f.f.",
"f.f.f.f.f.@.9 1 n X.@.X.} } { ` ` ` ! ! W T T P U U D D S S A i ; g w.f.f.f.f.f.",
"f.f.f.f.f.f.<.j < g Q X.X.} ` ` _ ) ! W W T T U U H D D D m y : l q.f.f.f.f.f.f.",
"f.f.f.f.f.f.f.a.<.C t m _ [ ` ` _ ! E W T P T U H H H S k 4 1 D p.f.f.f.f.f.f.f.",
"f.f.f.f.f.f.f.f.f.d.o.i t v U ! ) ! Q W T T Y Y D m g 6 : u $.d.f.f.f.f.f.f.f.f.",
"f.f.f.f.f.f.f.f.f.f.f.w.` f 6 9 f l b m b b k y 8 < < i ' u.f.f.f.f.f.f.f.f.f.f.",
"f.f.f.f.f.f.f.f.f.f.f.f.f.p.<.U k 0 8 5 4 1 6 7 a D :.a.f.f.f.f.f.f.f.f.f.f.f.f.",
"f.f.f.f.f.f.f.f.f.f.f.f.f.f.f.f.d.w.6.<.;.<.6.w.s.f.f.f.f.f.f.f.f.f.f.f.f.f.f.f."
};
