/* XPM */
static char *b0ed876180454f48edc92c69f32973174vddxOCAYEd5CESl[] = {
/* columns rows colors chars-per-pixel */
"40 40 152 2 ",
"   c #0F0E0F",
".  c #100E0F",
"X  c #12110E",
"o  c #0F0E11",
"O  c #110F12",
"+  c #0F1013",
"@  c #111113",
"#  c #1A1413",
"$  c #1A1A16",
"%  c #161619",
"&  c #1C1C1D",
"*  c #201E1F",
"=  c #24231D",
"-  c #232324",
";  c #2B2722",
":  c #2C2C25",
">  c #272729",
",  c #2B2B2C",
"<  c #302D26",
"1  c #36332A",
"2  c #37392E",
"3  c #3A392E",
"4  c #2F2F31",
"5  c #333334",
"6  c #3E3C33",
"7  c #373739",
"8  c #37383A",
"9  c #3A3A3B",
"0  c #46433A",
"q  c #4B493E",
"w  c #3F3F41",
"e  c #444445",
"r  c #484747",
"t  c #4C4940",
"y  c #464649",
"u  c #484748",
"i  c #4B4B4C",
"p  c #534F46",
"a  c #545147",
"s  c #555749",
"d  c #58544B",
"f  c #4F4F51",
"g  c #545355",
"h  c #585657",
"j  c #5F5C50",
"k  c #575759",
"l  c #5B5B5C",
"z  c #615F52",
"x  c #5F6251",
"c  c #646254",
"v  c #646158",
"b  c #68645A",
"n  c #6E6C5E",
"m  c #5F5F60",
"M  c #646364",
"N  c #686766",
"B  c #676769",
"V  c #6B6B6C",
"C  c #706D63",
"Z  c #706E6F",
"A  c #727063",
"S  c #7C7769",
"D  c #7C7A6C",
"F  c #6F6F71",
"G  c #726F70",
"H  c #757475",
"J  c #787676",
"K  c #797876",
"L  c #767678",
"P  c #797778",
"I  c #7C7B7B",
"U  c #817D6F",
"Y  c #817C72",
"T  c #807E7F",
"R  c #848173",
"E  c #83817C",
"W  c #88847B",
"Q  c #87887C",
"!  c #8C897D",
"~  c #7F7E82",
"^  c #817F80",
"/  c #848384",
"(  c #8A8682",
")  c #8D8A80",
"_  c #89868A",
"`  c #8C8B8C",
"'  c #918C86",
"]  c #928F8D",
"[  c #949487",
"{  c #96948E",
"}  c #9A978B",
"|  c #9B998C",
" . c #8F8F91",
".. c #908F94",
"X. c #939394",
"o. c #969598",
"O. c #99979B",
"+. c #9B9B9C",
"@. c #A19F9C",
"#. c #9EA091",
"$. c #A3A294",
"%. c #A2A29A",
"&. c #9F9FA1",
"*. c #A2A2A4",
"=. c #A8A7A1",
"-. c #A6A6A9",
";. c #A9A7AB",
":. c #ABAAAC",
">. c #B0AEAA",
",. c #AEAEB1",
"<. c #B0AEB6",
"1. c #B3B3B5",
"2. c #BCB7B7",
"3. c #B6B5B9",
"4. c #B9B5BB",
"5. c #BBBBBC",
"6. c #BBBBBD",
"7. c #BDBDBF",
"8. c #BEBEBF",
"9. c #C2BFB4",
"0. c #C1C2BE",
"q. c #BFBFC0",
"w. c #C1C1C2",
"e. c #C2C2C4",
"r. c #C4C4C6",
"t. c #CDC9C1",
"y. c #C7C7C8",
"u. c #C8C8C8",
"i. c #CBCBCD",
"p. c gray81",
"a. c #CECED0",
"s. c #D1D1D2",
"d. c #D3D3D4",
"f. c #D5D5D6",
"g. c #DCD8D2",
"h. c #D6D6D8",
"j. c #DBDBDC",
"k. c #DCDCDE",
"l. c #DEDEE0",
"z. c #E0E1E0",
"x. c #E4E4E3",
"c. c gray90",
"v. c #E9E9E9",
"b. c #EBEBEC",
"n. c #EFEFEF",
"m. c #EDECF1",
"M. c gray95",
"N. c #F2F2F3",
"B. c #F4F4F4",
"V. c #F3F3F8",
"C. c #FBFBFB",
"Z. c white",
/* pixels */
"Z.Z.Z.Z.Z.Z.Z.Z.Z.Z.Z.Z.Z.Z.Z.Z.C.M.v.v.c.q.-.;.w.z.C.Z.Z.Z.Z.Z.Z.Z.Z.Z.Z.Z.Z.Z.",
"Z.Z.Z.Z.Z.Z.Z.Z.Z.Z.Z.Z.Z.c.5.` V l g h g , > , 8 k _ w.M.Z.Z.Z.Z.Z.Z.Z.Z.Z.Z.Z.",
"Z.Z.Z.Z.Z.Z.Z.Z.Z.Z.C.u.P e 7 w g B J P I P F l e , , r P y.C.Z.Z.Z.Z.Z.Z.Z.Z.Z.",
"Z.Z.Z.Z.Z.Z.Z.Z.Z.s.H 5 7 l I  .o.+.*.*.-.;.:.:.;.X.B 8 , i X.c.Z.Z.Z.Z.Z.Z.Z.Z.",
"Z.Z.Z.Z.Z.Z.Z.B.o.7 5 l / ` X.X.o.O.+.&.*.-.:.:.1.3.5.-.V 4 5 V p.Z.Z.Z.Z.Z.Z.Z.",
"Z.Z.Z.Z.Z.Z.v.H - r J _ _ ` X.X.o.O.+.&.*.-.;.:.,.1.5.7.7.+.y > h 7.Z.Z.Z.Z.Z.Z.",
"Z.Z.Z.Z.Z.z.l - h I / / _ ` X.X.o.O.+.&.*.-.;.:.:.` P *.q.r.1.l - f w.Z.Z.Z.Z.Z.",
"Z.Z.Z.Z.v.l - h ^ / / / _ ` X.X.o.O.+.&.*.-.;.:.*.e 5 y / 5.y.w.M - l f.Z.Z.Z.Z.",
"Z.Z.Z.C.P - g I ^ / / / _ `  .X.o.O.+.&.*.-.;.:.-.h 5 7 8 V 5.i.e.l > L n.Z.Z.Z.",
"Z.Z.Z.:.- r P I T / / / _ _ ` X.o.O.+.+.*.-.:.:.,.;.P w 7 8 M 7.s.7.e 7 ;.Z.Z.Z.",
"Z.Z.c.r 5 V I I T / / / / _ ` ..X.O.+.@.%.=.:.<.1.3.4.O.i 7 8 F y.h.*.> l z.Z.Z.",
"Z.Z.o.- l P P I T / / / / _ ` ] { ! A j d z D | >.4.4.7.:.g 7 w  .f.f.M , +.Z.Z.",
"Z.v.u 5 H P P I I ^ / / / ( ' W a = X       @ : v $.2.q.a.1.e 9 g 5.k.1., M v.Z.",
"Z.1.- g K J J P I T E / / ) S < . o @ @ @ @ @ o . 3 [ 7.s.c.` 7 w / j.h.l 8 7.Z.",
"Z.J - N J K K P I I E / / D ; O X @ @ @ @ @ @ @ @ o 2 #.s.m.f.y 9 k r.z.o.> ` C.",
"n.i , Z J K J P I I ^ / Q 6   @ + @ @ o o o @ @ @ @ @ s 7.m.M.P 5 r &.z.q.4 M v.",
"f.7 > M J J J P P I ~ ( n % o @ @ o % 8 r 5 % + @ @ @ = [ x.V.:.5 e I j.f.r i j.",
"w., - 7 M J J P Z H ~ ( 0 o @ @ @ & / ;._ I k & @ @ % % b g.m.y.8 w M f.7.5 i p.",
"7.> - * , M J H l N I W : o @ @ o B w.&. .J V r @ @ % % t t.c.s.y 9 l y.M - i r.",
"5., , - - r J Z h V I Y = o @ @ % X.:.r.&. .M h % @ % % 0 9.z.d.f 8 h :.4 , u 5.",
"3., , - - u J G l V I Y = o @ @ % o.,.e.*. .B h % @ % % 0 9.z.s.f 8 g :.5 , i 7.",
"5.> - - 5 M J V l V P E : o @ @ o M r.*. .I L e @ @ % % p t.c.p.r 9 l y.B - i y.",
"u., - 8 B J H H G J I E q o @ @ @ & J ,. ./ h % @ @ % $ n g.b.e.8 w B h.q.5 u a.",
"k.8 > M H H J J J P P E A $ O @ + @ @ , 7 > @ o @ @ % : | x.M.*.4 e / k.s.w g k.",
"M.g , V H H J J J P P I W 0 . O + @ @ o o o @ O @ @ @ x 0.b.m.H 7 e *.l.5., V M.",
"Z./ - M H H J J J P I I E U 1 . @ @ @ @ & @ @ @ O X 0 $.d.m.p.e 9 l y.l.` > o.Z.",
"Z.5.- u H H H J J P I I E W U 6 @ o o @ & @ o o # q } 7.f.x./ 5 9 _ h.d.f 9 w.Z.",
"Z.n.u , B H H J J P I T / / ( W c 1 $ @ % @ $ 3 C $.4.q.a.-.9 8 h q.j.-.> M v.Z.",
"Z.Z.O.& i H H J J P I T / / _ ` ] ! D n c n R | ;.3.4.5.+.r 5 w o.d.i.h 5 -.Z.Z.",
"Z.Z.v.r - M J J P I I T / / _ ` ..X.O.+.%.*.;.:.,.<.1.` e 5 7 P y.s.` > m z.Z.Z.",
"Z.Z.Z.1.- 8 Z J P I I / / / _ ` X.o.+.&.*.-.-.:.:.+.M 7 5 7 V 7.i.:.7 8 :.Z.Z.Z.",
"Z.Z.Z.Z./ & r H P I I / / / _ ` X.o.O.+.&.*.-.;.+.r , 4 9 L 3.r.1.r > I B.Z.Z.Z.",
"Z.Z.Z.Z.M.M & i J I I / / / _ ` X.o.O.+.&.*.-.-.O.9 5 f ` 5.w.:.i - k j.Z.Z.Z.Z.",
"Z.Z.Z.Z.Z.v.M & u J I / / / _ { X.o.O.+.&.*.*.-.;. ./ ;.5.7.*.y - i r.Z.Z.Z.Z.Z.",
"Z.Z.Z.Z.Z.Z.n.J - 8 B / / _ ` ` X.o.O.+.&.*.-.-.:.,.1.5.3./ 7 > g w.Z.Z.Z.Z.Z.Z.",
"Z.Z.Z.Z.Z.Z.Z.C.*.8 > i J / ` X.X.o.+.+.&.*.-.:.,.1.1.o.h > 5 V s.Z.Z.Z.Z.Z.Z.Z.",
"Z.Z.Z.Z.Z.Z.Z.Z.Z.f.J 5 , u V / X.o.+.&.*.-.;.-.+./ h 4 , i o.v.Z.Z.Z.Z.Z.Z.Z.Z.",
"Z.Z.Z.Z.Z.Z.Z.Z.Z.Z.Z.p./ u 5 7 r h M V V B l y 7 > > r I p.C.Z.Z.Z.Z.Z.Z.Z.Z.Z.",
"Z.Z.Z.Z.Z.Z.Z.Z.Z.Z.Z.Z.Z.v.r.+.P B m M l > - , 7 h _ u.C.Z.Z.Z.Z.Z.Z.Z.Z.Z.Z.Z.",
"Z.Z.Z.Z.Z.Z.Z.Z.Z.Z.Z.Z.Z.Z.Z.Z.Z.C.B.B.M.u.:.:.w.c.Z.Z.Z.Z.Z.Z.Z.Z.Z.Z.Z.Z.Z.Z."
};
