/* XPM */
static char *_229d7c7b545456194e6f723cb9f8a83g3iYS6CkUx6Snuct[] = {
/* columns rows colors chars-per-pixel */
"40 40 153 2 ",
"   c #0F0E0F",
".  c #120E0E",
"X  c #11100E",
"o  c #0F0E11",
"O  c #100F12",
"+  c #0F1014",
"@  c #111113",
"#  c #181616",
"$  c #171816",
"%  c #1B1A16",
"&  c #161619",
"*  c #1C1C1D",
"=  c #221E1C",
"-  c #23211C",
";  c #1E1E20",
":  c #232324",
">  c #2A2724",
",  c #2B2C23",
"<  c #272729",
"1  c #2B2B2C",
"2  c #35352B",
"3  c #3A3A2E",
"4  c #2F2F31",
"5  c #333334",
"6  c #3A3A31",
"7  c #363738",
"8  c #3B3B3C",
"9  c #413F36",
"0  c #45443A",
"q  c #4A463B",
"w  c #47493E",
"e  c #4D4B3E",
"r  c #3F3F41",
"t  c #434345",
"y  c #464648",
"u  c #4B4B4C",
"i  c #535047",
"p  c #565449",
"a  c #4F4F50",
"s  c #535355",
"d  c #5A5B55",
"f  c #575759",
"g  c #595758",
"h  c #5B5A5B",
"j  c #605B51",
"k  c #605E5F",
"l  c #666456",
"z  c #686757",
"x  c #68645A",
"c  c #6A6B5B",
"v  c #5F5F61",
"b  c #646364",
"n  c #686767",
"m  c #676769",
"M  c #686769",
"N  c #6C6B6C",
"B  c #736F63",
"V  c #706E6F",
"C  c #757264",
"Z  c #79776B",
"A  c #7D7A6E",
"S  c #6F6F71",
"D  c #716F70",
"F  c #757474",
"G  c #787676",
"H  c #7A7A74",
"J  c #777778",
"K  c #797778",
"L  c #77787A",
"P  c #7C7B7C",
"I  c #807D6D",
"U  c #847F74",
"Y  c #807E7E",
"T  c #858175",
"R  c #84827D",
"E  c #8A867C",
"W  c #8A887C",
"Q  c #7E7E80",
"!  c #817F80",
"~  c #848384",
"^  c #8B8982",
"/  c #878789",
"(  c #88868A",
")  c #8B8B8C",
"_  c #928E8C",
"`  c #9B968B",
"'  c #9C9A8D",
"]  c #8F8E91",
"[  c #908F93",
"{  c #939394",
"}  c #9B9791",
"|  c #9C9A91",
" . c #969699",
".. c #99979C",
"X. c #9B9B9D",
"o. c #A19E96",
"O. c #A09E9D",
"+. c #A5A296",
"@. c #A1A19E",
"#. c #ABA79B",
"$. c #9F9FA0",
"%. c #A2A2A4",
"&. c #AAA7A4",
"*. c #ADA9A6",
"=. c #A7A7A9",
"-. c #ABABAD",
";. c #B1AEAB",
":. c #B0B2A6",
">. c #B4B3AD",
",. c #AEAEB1",
"<. c #B2AFBB",
"1. c #B4B3B5",
"2. c #BBB7B5",
"3. c #B7B6BA",
"4. c #B9B6BC",
"5. c #BBBBBC",
"6. c #C1C2BC",
"7. c #BEBEC0",
"8. c #C4C3C5",
"9. c #CDCBC1",
"0. c #C6C6C8",
"q. c #C7C8CA",
"w. c #CBCBCC",
"e. c #D8D6CE",
"r. c #CFCFD1",
"t. c #CFD0D2",
"y. c #D2D2D4",
"u. c #D7D7D9",
"i. c #D7D8DA",
"p. c #D8D8D9",
"a. c #DBDBDD",
"s. c #DDDEDF",
"d. c #E2DFDA",
"f. c #E1E0DB",
"g. c #DFDFE1",
"h. c #E1E1E1",
"j. c #E1E1E3",
"k. c #E3E4E3",
"l. c #E6E6E6",
"z. c #E9E7E5",
"x. c #E2E1E9",
"c. c #E7E7E8",
"v. c #E7E8E9",
"b. c #EAEAEA",
"n. c #EBEAEC",
"m. c #ECECED",
"M. c #EFEEF3",
"N. c #EFEFF4",
"B. c #F2F2F2",
"V. c #F4F4F4",
"C. c gray97",
"Z. c #FBFBFB",
"A. c white",
/* pixels */
"A.A.A.A.A.A.A.A.A.A.A.A.A.A.B.y.1.%.{ ] { %.1.y.b.Z.A.A.A.A.A.A.A.A.A.A.A.A.A.A.",
"A.A.A.A.A.A.A.A.A.A.A.V.y.X.N u 7 4 1 1 1 1 7 y b ) 5.m.A.A.A.A.A.A.A.A.A.A.A.A.",
"A.A.A.A.A.A.A.A.A.V.0.~ u 4 1 7 u b J ~ ~ L b u 5 < 7 N 1.B.A.A.A.A.A.A.A.A.A.A.",
"A.A.A.A.A.A.A.A.p.~ u 1 7 v { 1.0.w.y.u.p.a.a.y.8.{ f < y P q.A.A.A.A.A.A.A.A.A.",
"A.A.A.A.A.A.A.3.h 5 7 N =.8.0.q.0.8.5.3.5.0.r.p.h.h.u.v < r s =.V.A.A.A.A.A.A.A.",
"A.A.A.A.A.A.=.t 1 a X.5.7.5.-.) N f u u a f b P $.0.g.-.: < 8 t / l.A.A.A.A.A.A.",
"A.A.A.A.A.5.8 1 M -.3.3.%.F u 8 7 7 7 7 7 8 8 r t f / 5.~ 1 : : 1 J h.A.A.A.A.A.",
"A.A.A.A.m.f 1 F -.1.1.-.s 7 5 5 8 s M J F b t 5 5 r t f  .3.=.%.s 1 L b.A.A.A.A.",
"A.A.A.A.5.< m =.-.,.,.=.a 5 u P %.3.r.h.m.b.u.-.M 7 5 r t ~ y.h.w.a 5 { V.A.A.A.",
"A.A.A.V.F s %.=.-.-.-.-.X./ =.4.5.7.0.y.x.M.V.N.h.1.b 5 8 t J r.s.5.8 t 1.A.A.A.",
"A.A.A.$.r ) =.=.=.=.=.-.-.1.1.4.4.2.>.:.>.6.e.z.c.s.y./ 7 8 t ~ y.s.{ < b l.A.A.",
"A.A.h.u N %.%.%.%.=.=.=.-.,.1.;.` c w 3 6 w x ` 9.h.s.g.X.7 8 y X.p.y.f 5 X.A.A.",
"A.A.{ r { X.X.$.%.%.=.=.-.-.+.z > X o @ @ @ & > j #.f.v.n...5 8 f 7.i.%.1 h l.A.",
"A.b.u v ......X.X.$.%.%.=.' e @ o @ @ @ @ & & & * 0 ' d.B.n.J 5 8 / t.q.u 5 1.A.",
"A.3.7 Q { {  ...X.X.X.@.o.p X @ @ @ @ @ @ @ & & & $ 9 #.h.V.y.y 7 s 7.t.P : J V.",
"A.~ 8 ) { { {  . .X.X.O.A % o @ @ @ @ @ & @ @ @ & & $ d 6.x.b.~ 5 8 X.w.=.1 u a.",
"V.g u ] { { { { {  ...} 0   @ @ @ @ 8 h h t ; @ @ & & , ' w.p.,.8 7 L 0.3.8 7 3.",
"h.8 h ) ) ] { { { { { W - o @ @ o t ~ S m b f * @ @ @ # C 5.0.3.t 5 v 5.5.s 1 ..",
"w.5 b / / ) ) ] ) [ { Z # O @ o * ) ~ ) ] J F r o O @ . p >.5.1.s 5 s 1.7.v 1 ~ ",
"5.1 M / ~ / / / ) ] _ B @ O @ o 1 -.%.,.X.] P f o O O . e *.4.1.f 1 u ,.7.N 1 Q ",
"1.1 M ~ ~ ~ / / / / _ C $ O + o : ,.-.0.3.) / t o @ @ O i *.<.,.s 1 u -.5.N 1 P ",
"5.1 b ~ ~ ~ ~ ~ ~ ~ ^ U = o @ @ @ v 3.,.-.,.~ * o o @ @ l &.,.=.u 1 s ,.5.b 1 ~ ",
"w.5 h ~ ~ ~ ~ ~ ~ ~ ~ W 6 o @ @ @ & f X.=.P 1 o & & @ % T -.-.-.J y Q 1.3.h 5 { ",
"f.8 y ~ Y ~ ~ ~ ~ ~ ~ ^ c & @ @ @ @ o & & @ o @ @ & & q | -.=.=.=.=.-.1.,.u 7 =.",
"B.u 7 L P Y ! Y R R ~ ~ W 0   @ @ @ @ @ @ @ @ @ @ o > I @.=.=.=.=.=.-.,.$.7 t 0.",
"A.L < M P P P P Y Y Y ! ~ T 3   o @ @ @ @ + @ O o - B | %.%.%.%.%.=.=.,.~ < f l.",
"A.3.< s P L L P P P P P Q ~ U q % o o o O o   @ 2 C { X.X.$.$.%.%.%.=.=.f < ~ A.",
"A.m.u 5 F L G G L L L J D L P R C q , - - > 9 l E _ {  ...X.X.$.%.%.=.] 4 7 q.A.",
"A.A.{ : g L G G G K L F g b G L Y R T H A T E ^ ) ] { {  .....X.$.%.%.f * / A.A.",
"A.A.l.t 5 N G G G J G J n g k F L P P Y R R ~ ( ( ) ) { { {  ...X.$.~ 8 P B.A.A.",
"A.A.A.-.< t F J J G G G J N k n K L L P P ~ ~ ~ ~ / ) ) { { {  .X.] y / A.A.A.A.",
"A.A.A.V.J : u N V h u h F J F F G K L L P P ! ~ ~ ~ / / ) { { { { s s h.A.A.A.A.",
"A.A.A.A.l.h : 5 5 : : < u J J J J G G G L P P ! ~ ~ ~ / / ) { ) f 8 8.A.A.A.A.A.",
"A.A.A.A.A.s.s ; : : : : 1 N J F F J G G K L P Y ~ ~ ~ ~ ~ / ~ u 7 -.A.A.A.A.A.A.",
"A.A.A.A.A.A.g.m : < 1 : 1 n F F F F J J G L L P P ! ~ ~ ~ N 8 8 -.A.A.A.A.A.A.A.",
"A.A.A.A.A.A.A.V...8 < < < h F F F F F J J G K L P P P F u 1 u 8.A.A.A.A.A.A.A.A.",
"A.A.A.A.A.A.A.A.A.w.b : * 5 h N F F J J J G K G F b u 1 1 P h.A.A.A.A.A.A.A.A.A.",
"A.A.A.A.A.A.A.A.A.A.B.-.f < : 5 t u f h h s u 8 1 : 5 F q.A.A.A.A.A.A.A.A.A.A.A.",
"A.A.A.A.A.A.A.A.A.A.A.A.B.8.Q u 5 < * * * : 1 8 v ..p.A.A.A.A.A.A.A.A.A.A.A.A.A.",
"A.A.A.A.A.A.A.A.A.A.A.A.A.A.A.B.y.3.=.X.%.-.0.h.Z.A.A.A.A.A.A.A.A.A.A.A.A.A.A.A."
};
