/* XPM */
static char *result[] = {
/* columns rows colors chars-per-pixel */
"40 40 128 2 ",
"   c #0F0F0F",
".  c #10110F",
"X  c #0F0E11",
"o  c #110F12",
"O  c #0F1013",
"+  c #121113",
"@  c #191612",
"#  c #1D1B16",
"$  c #161619",
"%  c #1B1B1C",
"&  c #201E1F",
"*  c #22231D",
"=  c #1F1F21",
"-  c #232324",
";  c #2D2C24",
":  c #272728",
">  c #282728",
",  c #2B2B2C",
"<  c #36342D",
"1  c #2E2E30",
"2  c #302F30",
"3  c #333334",
"4  c #3B3A32",
"5  c #373738",
"6  c #3A3A3C",
"7  c #403E36",
"8  c #3F4137",
"9  c #46443A",
"0  c #49463C",
"q  c #46483B",
"w  c #4C493E",
"e  c #3F3F40",
"r  c #424244",
"t  c #464648",
"y  c #4B4B4C",
"u  c #504D43",
"i  c #53524C",
"p  c #5C5A4B",
"a  c #4E4E50",
"s  c #535354",
"d  c #585657",
"f  c #575758",
"g  c #5A5A5B",
"h  c #615D52",
"j  c #636254",
"k  c #666759",
"l  c #6E695D",
"z  c #5E5E60",
"x  c #605F60",
"c  c #636365",
"v  c #686667",
"b  c #676768",
"n  c #6B6B6C",
"m  c #726E61",
"M  c #706E6F",
"N  c #757363",
"B  c #787467",
"V  c #71706F",
"C  c #7A776B",
"Z  c #6E6E70",
"A  c #757474",
"S  c #787676",
"D  c #7B7C74",
"F  c #777779",
"G  c #797778",
"H  c #7C7A7B",
"J  c #837F73",
"K  c #807E7F",
"L  c #838174",
"P  c #84827B",
"I  c #89847C",
"U  c #8D887C",
"Y  c #7E7E81",
"T  c #817F80",
"R  c #848384",
"E  c #8C8787",
"W  c #8D8983",
"Q  c #878689",
"!  c #8B8B8C",
"~  c #918E8B",
"^  c #929386",
"/  c #99968A",
"(  c #9B9A8C",
")  c #8E8E91",
"_  c #918F95",
"`  c #939294",
"'  c #999694",
"]  c #9A9890",
"[  c #969699",
"{  c #9B9B9C",
"}  c #A39F97",
"|  c #A5A59C",
" . c #ABA69C",
".. c #9E9EA0",
"X. c #A3A3A4",
"o. c #A6A6A9",
"O. c #A8A7A9",
"+. c #AAAAAC",
"@. c #B5B4AC",
"#. c #BCB9AE",
"$. c #AEAEB1",
"%. c #B0AFB0",
"&. c #B1AEBA",
"*. c #B3B3B4",
"=. c #BABBB4",
"-. c #B6B5BA",
";. c #BBB6BC",
":. c #BABABC",
">. c #BFC1BA",
",. c #CBC7BE",
"<. c #BFBFC1",
"1. c #C3C3C4",
"2. c #C7C7C8",
"3. c #CBCBCC",
"4. c #CFCFD1",
"5. c #D4D4D4",
"6. c #DBD9D2",
"7. c #D6D6D8",
"8. c #DBDBDC",
"9. c #E4E4DF",
"0. c #DFDFE1",
"q. c #E4E4E4",
"w. c #E6E5EB",
"e. c #EBEBEC",
"r. c #EEEEF1",
"t. c #F0EFF1",
"y. c #F3F3F3",
"u. c #FFFFFF",
/* pixels */
"u.u.u.u.u.u.u.u.u.u.u.u.u.u.u.y.8.=...[ ' X.<.8.y.u.u.u.u.u.u.u.u.u.u.u.u.u.u.u.",
"u.u.u.u.u.u.u.u.u.u.u.u.y.2.Q a 3 - % - - - : 6 g _ 5.y.u.u.u.u.u.u.u.u.u.u.u.u.",
"u.u.u.u.u.u.u.u.u.u.y.*.g > % , 6 y d d d s t : % % 3 n :.e.u.u.u.u.u.u.u.u.u.u.",
"u.u.u.u.u.u.u.u.u.5.n > > t k Z A A A A A A A a > > , : > s $.u.u.u.u.u.u.u.u.u.",
"u.u.u.u.u.u.u.u.+.6 > y M G G G A A A A A A A v , - - > - % : H q.u.u.u.u.u.u.u.",
"u.u.u.u.u.u.y.` , 6 n H H G G G D A A A A A A A 6 - * & , 6 3 - f 6.u.u.u.u.u.u.",
"u.u.u.u.u.u.` > t H T T K H H G G A S S A A A A n 7 2 6 c A V a - a 8.u.u.u.u.u.",
"u.u.u.u.u.+., y T Q R T T T K H H H G S S S A A G A M A S A A C d > d q.u.u.u.u.",
"u.u.u.u.3.6 y Q W Q Q R R P T T K H H G S A v c n A A S A G S S F s - F y.u.u.u.",
"u.u.u.y.c 8 Q ) ! ! Q Q R R T T K K H D H S n g d x A S G G S S F F r ; *.u.u.u.",
"u.u.u.+.5 F ` ) ) ! ! ! Q Q R R K K K H K G H A n d n H G G D S H H V , t q.u.u.",
"u.u.y.g f [ [ ` ` ` ^ ! ! Q Q R I L L D J J P P H H G H K K H K H H H g - { u.u.",
"u.u.1.r R { { [ [ ` ` ^ _ ! W I l 9 ; * - ; w m I R Y H K K K K T H T A 1 a t.u.",
"u.e.b f { ..{ { [ [ [ [ _ ) C 4 @     o X X X @ 0 L R R K K P K H R T T s , 3.u.",
"u.Q & H X.......{ { [ [ ` N ;   X + o + X + + X   < L I R R R R Y R R R V : ` u.",
"5.6 3 [ o.X...........{ P ; . O + X o + + + O X + o 4 P P Q R R R R P R H 5 b y.",
"{ , t o.o.X.X...X...X./ u o X + X X + $ $ O O O O O o j U Q E E Q R R R R y y e.",
"F , g +.+.o.X.X.X.o.X.L - $ + X X - Z X.` f $ O + O o < U E Q Q ! ! ! Q Q g 8 8.",
"Z , b &.$.o.o.o.o.O.X.l @ + % + $ Q :.+.$.:.n O O O X # J ~ ) ! ! ! ! ! ! b 4 3.",
"b : A *.$.X.) X.O.$.| p + + o X 6 ` [ :.2.+.$.: O O   + l ` ) ` ` ) ) ! ! n 3 3.",
"A , Z :.%.x 2 c $.$.X.i   o o   y R ) { o.{ o.5   + o . k ' ` ` _ ` ) _ ) Z 5 4.",
"R 1 b :.$.s 1 y o.&.+.h o o o   5 F F ) ) H R - X o + + N ' [ [ [ ` ` ` ` n r 8.",
"[ 3 s :.-.g 1 e X.;.@.B @ + + + $ g b c b F a O X + X # I { ..[ [ [ [ ` { c a e.",
"-.6 e *.:.F 2 3 ` ;.;./ ; + + + + % r f g e $ O O X X 4 ] ......{ { { [ { s n y.",
"7.y , ..1.` 6 1 Z 1.1.*.j @ $ + + + + $ + X + O + X + m  .X.X.{ ....{ { [ r { u.",
"y.n - F 1.*.a 3 t <.7.4.| 8 $ + + $ + + + + + O + X w } O.o.X.X.X.....X.R r 2.u.",
"u.{ , t :.2.Y 6 3 Y w.w.5./ 8 # % $ $ + + + + . o 9 / $.+.+.+.o.o.X.X.X.x x y.u.",
"u.7.t : ` 3.-.a 5 6 +.t.t.9. .p ; % $ + + + . * p | *.$.+.+.+.+.+.o.o.[ r $.u.u.",
"u.u.Q : a 1.4.[ r 5 e $.r.e.q.,.( l 0 4 4 q k ^ +.-.-.*.+.+.+.$.+.+.+.n , 2.u.u.",
"u.u.8.s - ! 4.4.Y e 5 6 ` 8.q.q.q.6.,.#.@.=.>.:.;.<.-.` s x o.$.$.$.{ 5 t q.u.u.",
"u.u.u.+.5 5 &.8.2.F r 6 1 c $.7.8.w.r.t.e.w.8.3.1.%.H e 3 5 [ *.*.+.s > Q u.u.u.",
"u.u.u.y.R 1 y 1.8.4.Y t e 3 5 c { <.0.e.e.e.7.;.Q a 3 5 6 b $.-.*.b : a 8.u.u.u.",
"u.u.u.u.q.A : f 2.8.5.{ g r r 3 3 5 y z b c a e 5 3 5 y R *.<.-.Z , t -.u.u.u.u.",
"u.u.u.u.u.8.n , s :.0.0.1.Q f t e e 6 5 5 5 e 5 e t F o.<.1.$.c , t o.u.u.u.u.u.",
"u.u.u.u.u.u.8.H 1 6 ! { R ) $.X.Y c f s a s z A ` *.2.2.<.{ y , s +.u.u.u.u.u.u.",
"u.u.u.u.u.u.u.e.[ r - - = $ r :.0.5.2.1.1.2.3.4.5.4.2.o.b 1 3 n 2.u.u.u.u.u.u.u.",
"u.u.u.u.u.u.u.u.y.2.F t e 5 = f 3.0.0.0.0.8.7.3.<.) g 1 , y ` q.u.u.u.u.u.u.u.u.",
"u.u.u.u.u.u.u.u.u.u.y.1.F a r : r c F R R F b y 1 - 1 t Y 4.u.u.u.u.u.u.u.u.u.u.",
"u.u.u.u.u.u.u.u.u.u.u.u.y.5...A y 6 3 , , 1 5 r f F X.5.y.u.u.u.u.u.u.u.u.u.u.u.",
"u.u.u.u.u.u.u.u.u.u.u.u.u.u.u.t.5.:.+.X.{ X.*.2.0.y.u.u.u.u.u.u.u.u.u.u.u.u.u.u."
};
