/* XPM */
static char *result[] = {
/* columns rows colors chars-per-pixel */
"40 40 131 2 ",
"   c #0E0D0F",
".  c #120D0F",
"X  c #12110F",
"o  c #0F0E11",
"O  c #100F13",
"+  c #0F1013",
"@  c #111113",
"#  c #1A1715",
"$  c #171816",
"%  c #161619",
"&  c #1B1B1C",
"*  c #201E1F",
"=  c #23231D",
"-  c #1F1F21",
";  c #232324",
":  c #2E2B24",
">  c #272729",
",  c #282729",
"<  c #2A2A2B",
"1  c #302D26",
"2  c #36352D",
"3  c #38352E",
"4  c #3B3B2E",
"5  c #2F2F31",
"6  c #312F30",
"7  c #333334",
"8  c #3C3A32",
"9  c #373738",
"0  c #393739",
"q  c #3A3A3C",
"w  c #413D36",
"e  c #434237",
"r  c #45443A",
"t  c #4B473C",
"y  c #3F3F41",
"u  c #424244",
"i  c #474748",
"p  c #4B4A4B",
"a  c #524D45",
"s  c #56584C",
"d  c #5D5A4C",
"f  c #4E4E50",
"g  c #535354",
"h  c #585657",
"j  c #5D5B50",
"k  c #575759",
"l  c #5B5B5C",
"z  c #656254",
"x  c #636558",
"c  c #69665A",
"v  c #6C6B5B",
"b  c #5F5F61",
"n  c #636264",
"m  c #686867",
"M  c #666668",
"N  c #6B6B6C",
"B  c #716D61",
"V  c #737162",
"C  c #767468",
"Z  c #7C7A6D",
"A  c #6E6E70",
"S  c #716F70",
"D  c #747374",
"F  c #787676",
"G  c #7C7B74",
"H  c #777678",
"J  c #797778",
"K  c #7C7A7B",
"L  c #827D73",
"P  c #807E7F",
"I  c #858376",
"U  c #898677",
"Y  c #84837E",
"T  c #89857D",
"R  c #8C897D",
"E  c #7E7F81",
"W  c #817F81",
"Q  c #848383",
"!  c #8B8783",
"~  c #8A8884",
"^  c #868689",
"/  c #8A878A",
"(  c #8C8B8C",
")  c #938E87",
"_  c #919383",
"`  c #9B978C",
"'  c #9B998C",
"]  c #8F8F90",
"[  c #928F95",
"{  c #8F9092",
"}  c #939394",
"|  c #9E9C94",
" . c #969699",
".. c #9B9B9D",
"X. c #A19F94",
"o. c #A3A193",
"O. c #A2A29C",
"+. c #9E9EA0",
"@. c #A3A3A4",
"#. c #A9A6A5",
"$. c #A6A6A9",
"%. c #ABAAAC",
"&. c #B3AEAA",
"*. c #B5B6AD",
"=. c #AEAEB1",
"-. c #B0AFB5",
";. c #B3AFBA",
":. c #B3B3B5",
">. c #BBB6B5",
",. c #B6B6B9",
"<. c #B8B3BA",
"1. c #BBBBBD",
"2. c #C2BDB3",
"3. c #C5C3B9",
"4. c #CBC9BE",
"5. c #B8B4C0",
"6. c #BEBEC0",
"7. c #C2C3C4",
"8. c #C6C6C8",
"9. c #CBCBCD",
"0. c #CFCFD1",
"q. c #D3D3D4",
"w. c #DAD9D2",
"e. c #D7D7D9",
"r. c #DBDBDC",
"t. c #DEDEE1",
"y. c #E4E4E4",
"u. c #ECECEC",
"i. c #EEEDF2",
"p. c #F3F3F4",
"a. c #FFFFFF",
/* pixels */
"a.a.a.a.a.a.a.a.a.a.a.a.a.a.a.u.q.1.$.@.@.,.9.u.a.a.a.a.a.a.a.a.a.a.a.a.a.a.a.a.",
"a.a.a.a.a.a.a.a.a.a.a.a.p.1.H p 7 > ; ; ; , 7 p m ] 6.u.a.a.a.a.a.a.a.a.a.a.a.a.",
"a.a.a.a.a.a.a.a.a.a.u.#.p = - 2 u p g u < ; , < ; & , p  .y.a.a.a.a.a.a.a.a.a.a.",
"a.a.a.a.a.a.a.a.a.2.g * < u l A D D D D g ; ; ; ; ; , > ; p %.p.a.a.a.a.a.a.a.a.",
"a.a.a.a.a.a.a.p. .< ; p m D D D D C D D N 7 ; = & 8 b m g 2 > D y.a.a.a.a.a.a.a.",
"a.a.a.a.a.a.p.E - 0 n J J D F S D D D D D n 0 6 u N F F G N u > g r.a.a.a.a.a.a.",
"a.a.a.a.a.p.K ; i D K F J J F F D D D D D D D N D D F F F G D g ; s r.a.a.a.a.a.",
"a.a.a.a.a.( > f J K K K K J F F H J J H S S D D F F F F F F F F k ; k u.a.a.a.a.",
"a.a.a.a.*.< p K E P P K P K K J H F H F l l l m D K J K F F J K K g - P a.a.a.a.",
"a.a.a.y.i q K Q Q Q Y Q P P K K K K K H S N x h m K K K K P K P K K u > 1.a.a.a.",
"a.a.a.( < N / ~ ^ Q Q Q W P P K P K W K K G F K J K E P P P P P K Q D < l p.a.a.",
"a.a.y.u g ( ( ~ / ~ Q Q Q Q Q P I P L L L L T Q W W W P P Q W W Y Q E l > :.a.a.",
"a.a...9 K } ] ( ( ( ( ~ ^ Q T I B r : = = : t B U Q Y Q Q Q Q Q Q E Q K 7 m p.a.",
"a.p.n f } } { { ] ] { ( / ! L w # . o @ o o o $ r L T Q Q Q Q Q Q Q Q Q g q r.a.",
"a.r.u D  .} } } } { } { ( Z : O o @ @ o   @ + @ + : Z ! ~ Q ~ ^ / Q ~ ~ D < #.a.",
"a.1.y ( ...... . . .} } U 2 O O o + @ @ @ @ + + +   3 U ~ ^ ( ( ( ( / ( Q q K a.",
"a.+.f ..+.+......... .` d o o @ @ @ + % % + + + + @ X d ) ( ( ] { ] ( ( ( f k p.",
"t.i k @.+.+.+.+.+.+...R : o @ o o & N ..{ l & o + +   : R [ ] [ } { { { } n i u.",
"+.- M $.@.+.@.+.+.+.O.V % @ @ @ % E 6.=.%.7.H % + @   $ C  .} } } } { { } A i r.",
"A ; A %.$.@.@.@.@.$.O.j $ & &   7 @...6.8.@.=.5   + @   z | .. . . . . . .H y e.",
"b > A %.$.$.@.@.$.$.@.j X O @ o y ^ ] +.@.}  .y   + @ . z +.+... . . . ...H i t.",
"m > N :.=.$.%.%.$.=.#.z X O O   7 K H ] ] H E < o @ o X c X.+.+.+.+.+.+.+.D f y.",
"Q < l :.=.@.A D $.=.%.G # @ @ + % k A M M D g % @ + O # L @.+.+.@.@.+.+.@.m b p.",
"@.7 i =.,.^ 5 6 / -.;.` 1 O @ @ o & y g k y % + o @ O 1 ` $.$.$.@.@.@.@.@.k Q a.",
"0.p 7 @.1.{ 9 5 n :.,.&.x $ @ @ @ + @ % % o @ O X o @ v #.%.%.$.$.$.$.$.+.y } a.",
"i.N > E 1.=.f 5 y @.1.1.X.e @ % % % @ @ @ @ @ O @   r o.-.=.%.%.%.%.%.=.{ > / a.",
"a...7 p :.1.K 9 7 A 7.8.3.' w $ % % @ % @ % @ @   4 ' :.;.=.%.%.%.%.%.=.m > +.a.",
"a.q.p < { 6.=.f 7 9 +.t.t.0.O.j : & % % % @ % = s | >.<.,. .g D %.:.:.@.q q 9.a.",
"a.a.^ ; f ,.7.] y 7 i ,.i.u.y.4.` B a w 8 r x _ *.6.<.1.+.p 7 y @.:.,.A < m p.a.",
"a.a.0.i ; Q 8.7.H 9 7 i $.u.p.u.y.w.4.2.2.3.9.e.0.9.7.+.p 7 9 M :.1...7 q ,.a.a.",
"a.a.a.{ 5 7 @.0.7.D q q 9 N 6.t.y.r.t.y.i.i.p.p.y.9.^ y 7 9 n =.6.:.f 5 Q p.a.a.",
"a.a.a.i.N ; u 1.q.8.Q u q 7 0 n  .1.9.r.t.y.e.1.] g 7 9 q A :.6.,.n < n r.a.a.a.",
"a.a.a.a.r.l < f 1.e.0...k y y 9 5 9 i f g f u y 7 9 y i / 6.8.1.M < g 8.a.a.a.a.",
"a.a.a.a.a.q.n > p ,.r.r.7.( g i y y y 9 9 q 9 y y g E =.8.0.,.l < g 1.a.a.a.a.a.",
"a.a.a.a.a.a.q.N 5 9 } q.t.t.9.@.E M b g g k M E ..5.0.q.9. .i > k 1.a.a.a.a.a.a.",
"a.a.a.a.a.a.a.y.( u > l $.q.0.+.( @.8.8.8.8.0.e.t.r.0.=.n > 5 N 0.a.a.a.a.a.a.a.",
"a.a.a.a.a.a.a.a.p.,.N 7 < i q - & ; K r.y.t.r.q.6.} l 5 > f } y.a.a.a.a.a.a.a.a.",
"a.a.a.a.a.a.a.a.a.a.u.%.A y 7 q y 5 ; b Q D m p 7 ; 7 k { q.a.a.a.a.a.a.a.a.a.a.",
"a.a.a.a.a.a.a.a.a.a.a.a.i.9.$.E l g p 7 < 7 q i b ^ :.t.a.a.a.a.a.a.a.a.a.a.a.a.",
"a.a.a.a.a.a.a.a.a.a.a.a.a.a.a.a.y.q.6.%.@.$.1.q.y.a.a.a.a.a.a.a.a.a.a.a.a.a.a.a."
};
