/* XPM */
static char *ad0e0c8274594be9b3761e4c69451deaE6l0hPXyTWnb0YrC[] = {
/* columns rows colors chars-per-pixel */
"40 40 151 2 ",
"   c #0E0D0F",
".  c #110F0E",
"X  c #0F0E11",
"o  c #100F12",
"O  c #0F1012",
"+  c #111113",
"@  c #191614",
"#  c #1A1915",
"$  c #161619",
"%  c #1D1C1C",
"&  c #211F1C",
"*  c #24241E",
"=  c #1F1F21",
"-  c #242324",
";  c #2B2723",
":  c #2A2A23",
">  c #272729",
",  c #282729",
"<  c #2C2B2D",
"1  c #323226",
"2  c #36322B",
"3  c #2E2E30",
"4  c #333334",
"5  c #3C3A31",
"6  c #363638",
"7  c #3B3B3D",
"8  c #413D36",
"9  c #424437",
"0  c #46443A",
"q  c #4A473B",
"w  c #494A3E",
"e  c #3F3F41",
"r  c #434345",
"t  c #484647",
"y  c #4D4D45",
"u  c #464648",
"i  c #4B4B4C",
"p  c #565347",
"a  c #565549",
"s  c #59564B",
"d  c #5B5A4B",
"f  c #4F4F51",
"g  c #4F5052",
"h  c #535354",
"j  c #585757",
"k  c #575759",
"l  c #5B5A5C",
"z  c #605B52",
"x  c #656256",
"c  c #696759",
"v  c #66685A",
"b  c #6E6B5F",
"n  c #5E5E60",
"m  c #626263",
"M  c #696767",
"N  c #676769",
"B  c #6B6A6B",
"V  c #746F64",
"C  c #706E6F",
"Z  c #6F7061",
"A  c #747264",
"S  c #787567",
"D  c #777469",
"F  c #79766B",
"G  c #7B7A6C",
"H  c #6E6E70",
"J  c #716F70",
"K  c #757474",
"L  c #787676",
"P  c #797977",
"I  c #777779",
"U  c #797778",
"Y  c #7C7B7C",
"T  c #827E71",
"R  c #807E7E",
"E  c #858175",
"W  c #84837C",
"Q  c #8B867F",
"!  c #8D8A7D",
"~  c #7F7F81",
"^  c #817F80",
"/  c #848484",
"(  c #898684",
")  c #8A8885",
"_  c #868688",
"`  c #88878B",
"'  c #8B8B8C",
"]  c #938F8B",
"[  c #919484",
"{  c #9C978C",
"}  c #9D9A8F",
"|  c #8F8E91",
" . c #918F96",
".. c #939394",
"X. c #9B9792",
"o. c #9F9C97",
"O. c #979699",
"+. c #989699",
"@. c #9B9B9C",
"#. c #A29F96",
"$. c #A5A296",
"%. c #A6A59F",
"&. c #ABA79A",
"*. c #9F9FA1",
"=. c #A2A2A4",
"-. c #AEABA7",
";. c #A6A7A9",
":. c #AAAAAC",
">. c #B0ADA4",
",. c #B4B3AB",
"<. c #AEAEB1",
"1. c #B0ACB0",
"2. c #B2AFBB",
"3. c #B3B3B5",
"4. c #B9B4B5",
"5. c #B7B8B0",
"6. c #B6B5BA",
"7. c #B9B5BB",
"8. c #BBBBBC",
"9. c #C4C4BD",
"0. c #BEBFC1",
"q. c #C3C3C4",
"w. c #CDCBC1",
"e. c #C6C6C8",
"r. c #CACACB",
"t. c #CDCDCF",
"y. c #CFCFD1",
"u. c #D1D1D2",
"i. c #D2D2D4",
"p. c #D3D3D4",
"a. c #DAD7D0",
"s. c #D8D8D6",
"d. c #D7D7D8",
"f. c #D9D9DB",
"g. c #DCDCDC",
"h. c #E1DFD9",
"j. c #DFE0DF",
"k. c #E2E0DA",
"l. c #DFDFE1",
"z. c gray89",
"x. c #E4E4E4",
"c. c #E8E7E4",
"v. c #E2E1E9",
"b. c #EBEBEB",
"n. c #EEEEEE",
"m. c #EEEEF2",
"M. c #F3F3F4",
"N. c #F3F2F6",
"B. c #F6F6F6",
"V. c #FBFBFB",
"C. c white",
/* pixels */
"C.C.C.C.C.C.C.C.C.C.C.C.C.C.z.q.=.' / Y Y _ @.3.d.B.C.C.C.C.C.C.C.C.C.C.C.C.C.C.",
"C.C.C.C.C.C.C.C.C.C.C.V.e./ k r 6 4 < < < < 3 6 i L ;.z.C.C.C.C.C.C.C.C.C.C.C.C.",
"C.C.C.C.C.C.C.C.C.C.n._ 6 > < e k H Y / / U N i 4 > 4 k @.z.C.C.C.C.C.C.C.C.C.C.",
"C.C.C.C.C.C.C.C.C.B.K - 7 B ..:.6.8.0.q.e.e.r.e.6...l < < l 3.B.C.C.C.C.C.C.C.C.",
"C.C.C.C.C.C.C.C.u.K e B @.<.3.3.3.3.:.;.:.3.0.e.p.d.p.3.m > 7 ' x.C.C.C.C.C.C.C.",
"C.C.C.C.C.C.C.:.u h ' ;.;.:.:.<.3.I u r r i k H ..8.p.g.f.=.r < K f.C.C.C.C.C.C.",
"C.C.C.C.C.V.@.7 m @.=.=.;.;.:.:.;.i 4 4 4 4 6 6 7 h ~ 8.f.l.q.k > H z.C.C.C.C.C.",
"C.C.C.C.C.=.6 N @.@.*.=.=.;.;.:.:._ l N B m h e 6 7 e k O.p.l.y.k < ` M.C.C.C.C.",
"C.C.C.C.6.6 n ..O.@.@.*.=.;.;.;.:.<.3.6.7.8.0.8.| f 6 7 r Y t.z.*.- u =.C.C.C.C.",
"C.C.C.g.r i | ....O.@.@.*.=.;.;.:.<.3.7.7.8.q.f.b.s.~ 6 7 r K u.=.- 7 h t.C.C.C.",
"C.C.V.L 4 Y ........@.@.@.=.=.;.:.1.>.-.>.,.8.e.v.N.n.*.6 7 r / 3.< > e Y B.C.C.",
"C.C.q.< l ` ' | ....O.@.@.@.=.%.} G s 0 5 w v [ 8.z.N.b.=.6 7 u O._ > - r 7.C.C.",
"C.V.B 6 Y ` ` ' ......O.@.@.o.D 2 @ X X   X + * a $.h.b.z.' 4 e k 0.<.m - K N.C.",
"C.u.4 k _ _ ` ' ' | ....+.X.x # X o + + O + + + @ 5 { k.j.p.m 4 r ' l.p.f 7 e.C.",
"C..., J _ _ _ ` ' ' | ..X.c @ X + + + + + + + + @ @ 8 &.z.g.3.6 e k e.z.' > ..C.",
"B.l 6 Y / / _ _ ` ' | ] W * X + + + X + + X + + @ $ % z w.x.l.N 6 r ;.g.7.< B n.",
"f.6 r ^ / / / _ _ ` ' ] s . + + + X > h k r % + + @ $ < } c.m.=.4 e / f.y.r i p.",
"7.> j R R / / _ _ _ ) ! 2   O + X 6 ' ~ H B k = + + $ # b a.N.u.r 7 N y.p.k 7 7.",
"=.> x Y Y R / / _ _ ( T & o O + + _ =.| | K m r + + @ @ y 9.m.x.k 6 k e.d.N 4 ;.",
"..> m Y Y R R / / / ( F # X + + % :.:.8.@...H l + + + + 9 5.v.b.B 6 g 0.p.H < O.",
"..> m U U Y Y R W / ( G % X + + $ @.:.e.<.' Y k + o + + 0 ,.p.g.B 4 i 8.u.B < ..",
"@.> m U P U Y Y Y R / E : X + + X k 8.<.=.' / < X o + . p ,.e.r.l 4 h 0.r.m < O.",
"3., k P L L U Y Y Y ^ Q q   + + + @ l ;.:._ 4 + + + o @ S 4.8.3.r 4 n q.q.h < =.",
"u.4 t L L L L U U U Y / V @ X + + + + % - $ X + + + X 2 } 6.7...6 4 L q.3.7 6 7.",
"b.i 6 K L L L U L m B Y W q o + + + + + X X + % + X # A ;.2.3.N < 7 ..q.*., i f.",
"C.L > m L L L L L m k L Y E 5 o X + O O + + + @ $ @ d #.:.<.@.7 3 f <.0.U - B M.",
"C.3.> 6 k m M K L B k M P R T w @   X o o X X   - x } :.:.:.I < 4 Y 8.6.i 3 *.C.",
"C.n.i - > - , t K L N l K Y R W Z 0 ; % % & 1 a E } ;.;.;.;...i n ;.8...< i p.C.",
"C.C.=.> - - - > l L J C L U Y Y W W E G F T ! X.@.*.=.=.;.;.;.;.:.3.3.k < / V.C.",
"C.C.N.m > < - > h L L L L U U Y Y W / ( ' '  .O.@.@.*.=.=.;.;.:.<.3.` < i t.C.C.",
"C.C.C.t.7 , > , m L L L L U U Y Y ^ / _ ` ' ....O.@.@.*.=.=.;.;.<.=.r < ` V.C.C.",
"C.C.C.C.O.- - 6 C K K L L L U U Y R / / _ ` ' ....@.@.@.=.=.;.:.;.h > k g.C.C.C.",
"C.C.C.C.M.B % 3 B K K K L L L U Y Y ^ / _ ` ' | ....@.@.*.=.;.=.k > e 8.C.C.C.C.",
"C.C.C.C.C.x.l % u B K K K L L U Y Y ^ / _ ` ` ' ....O.@.*.=...h - 7 ;.C.C.C.C.C.",
"C.C.C.C.C.C.x.m = 7 N K L L L U U Y R / / _ ` ' ....O.@.@.~ r - k q.C.C.C.C.C.C.",
"C.C.C.C.C.C.C.n.Y > , i B L L L U U Y ^ / _ _ ` ' ..../ k e ` e.N.C.C.C.C.C.C.C.",
"C.C.C.C.C.C.C.C.V.3.r % , r m C L U Y Y / _ _ _ / K i 6 k 3.V.C.C.C.C.C.C.C.C.C.",
"C.C.C.C.C.C.C.C.C.C.b.@.i - % < 7 i k l l k i 7 4 4 k =.n.C.C.C.C.C.C.C.C.C.C.C.",
"C.C.C.C.C.C.C.C.C.C.C.C.N.q._ k 7 3 < < < 4 r l ` e.M.C.C.C.C.C.C.C.C.C.C.C.C.C.",
"C.C.C.C.C.C.C.C.C.C.C.C.C.C.C.B.x.u.e.q.e.u.x.B.C.C.C.C.C.C.C.C.C.C.C.C.C.C.C.C."
};
