/* XPM */
static char *result[] = {
/* columns rows colors chars-per-pixel */
"40 40 135 2 ",
"   c #0E0E0F",
".  c #110F0E",
"X  c #0F0E11",
"o  c #100F12",
"O  c #0F1012",
"+  c #111113",
"@  c #191613",
"#  c #1A1915",
"$  c #161619",
"%  c #1C1C1C",
"&  c #221F1D",
"*  c #24251E",
"=  c #1E1E20",
"-  c #242325",
";  c #2B2723",
":  c #2A2A23",
">  c #262628",
",  c #2B2B2D",
"<  c #323226",
"1  c #36322B",
"2  c #2F2F30",
"3  c #333334",
"4  c #3C3A31",
"5  c #363638",
"6  c #3B3B3D",
"7  c #413D36",
"8  c #46443A",
"9  c #49493F",
"0  c #3F3F40",
"q  c #434345",
"w  c #484647",
"e  c #4B4B46",
"r  c #474748",
"t  c #4B4B4C",
"y  c #565547",
"u  c #555549",
"i  c #58554A",
"p  c #5D5B4D",
"a  c #4E4E50",
"s  c #4F5052",
"d  c #535355",
"f  c #565658",
"g  c #595758",
"h  c #5B5B5C",
"j  c #605A51",
"k  c #646155",
"l  c #666759",
"z  c #6E6A5E",
"x  c #5E5E60",
"c  c #615F60",
"v  c #636264",
"b  c #686667",
"n  c #676769",
"m  c #676868",
"M  c #6C6B6C",
"N  c #736E63",
"B  c #757265",
"V  c #777569",
"C  c #7A766B",
"Z  c #7C7B6C",
"A  c #6E6E70",
"S  c #716F70",
"D  c #757474",
"F  c #787676",
"G  c #787877",
"H  c #777779",
"J  c #797778",
"K  c #7C7B7C",
"L  c #827E72",
"P  c #807E7F",
"I  c #848176",
"U  c #83827C",
"Y  c #8B867C",
"T  c #8B887C",
"R  c #7E7E80",
"E  c #817F80",
"W  c #848384",
"Q  c #898684",
"!  c #878789",
"~  c #8A8789",
"^  c #8B8B8C",
"/  c #928D86",
"(  c #928E8D",
")  c #909282",
"_  c #97958F",
"`  c #9B978C",
"'  c #9A998E",
"]  c #8E8E91",
"[  c #918E96",
"{  c #939394",
"}  c #9B9690",
"|  c #9D9B96",
" . c #969699",
".. c #989599",
"X. c #9B9B9C",
"o. c #A3A195",
"O. c #A2A29E",
"+. c #A9A599",
"@. c #9F9FA1",
"#. c #A2A2A4",
"$. c #AEABA4",
"%. c #A6A6A8",
"&. c #A9A7AB",
"*. c #AAAAAC",
"=. c #B1B2A7",
"-. c #B3B2AB",
";. c #AEAEB1",
":. c #B1AEBA",
">. c #B3B3B5",
",. c #B8B3B4",
"<. c #BBBBB6",
"1. c #B6B4B9",
"2. c #B9B7BB",
"3. c #BBBBBC",
"4. c #C2C3BB",
"5. c #BEBEC0",
"6. c #C3C3C4",
"7. c #C7C7C9",
"8. c #CBCBCC",
"9. c #D8D5CF",
"0. c #CFCFD1",
"q. c #CFD0D2",
"w. c #D3D3D4",
"e. c #D6D6D8",
"r. c #DBDBDC",
"t. c #E0DED8",
"y. c #E2E2DF",
"u. c #DFDFE1",
"i. c #E0DFE8",
"p. c #E3E3E3",
"a. c #E7E7E9",
"s. c #EBEBEB",
"d. c #ECECF0",
"f. c #F3F3F3",
"g. c #FFFFFF",
/* pixels */
"g.g.g.g.g.g.g.g.g.g.g.g.g.g.g.s.w.3.%. . . .@.3.e.f.g.g.g.g.g.g.g.g.g.g.g.g.g.g.",
"g.g.g.g.g.g.g.g.g.g.g.g.f.6.{ m t 6 1 2 , , , 5 r M @.q.f.g.g.g.g.g.g.g.g.g.g.g.",
"g.g.g.g.g.g.g.g.g.g.f.2.A 6 > 2 q f m A A x a 0 , = 2 a W 8.g.g.g.g.g.g.g.g.g.g.",
"g.g.g.g.g.g.g.g.g.8.R q - a ^ 3.8.e.e.w.q.7.5.>.@.H a , 2 e ! r.g.g.g.g.g.g.g.g.",
"g.g.g.g.g.g.g.f.#.s q - x w.u.u.e.q.7.5.3.5.5.5.6.3.1.{ f 2 2 f 3.g.g.g.g.g.g.g.",
"g.g.g.g.g.g.p.! q 6 - - ;.u.7.#.R m f s a s x H { ;.3.3.>.! 0 > 0 %.g.g.g.g.g.g.",
"g.g.g.g.g.r.M 2 - = , W 3.^ f r 0 6 3 3 3 2 3 3 5 s K *.1.>.@.d > 6 3.g.g.g.g.g.",
"g.g.g.g.p.D > g @.#.>. .f q 0 3 3 q f n n x q 3 2 2 3 x %.;.;.#.h - g f.g.g.g.g.",
"g.g.g.f.^ 2 f 0.i.0.R r 0 3 5 v #.0.p.a.r.8.;.{ n 6 , t #.%.*.*.@.s > 7.g.g.g.g.",
"g.g.g.>.0 0 5.u.8.D q 6 2 v ;.u.d.f.d.p.w.6.3.2.;. .H ] %.%.%.#.%.{ r ! g.g.g.g.",
"g.g.p.h > #.u.w.R q 6 3 ^ w.t.p.p.9.4.-.=.-.,.1.:.;.*.*.%.#.#.#.@.#.R q >.g.g.g.",
"g.g.X., v e.e. .q 6 3 #.u.y.y.7.` z e 8 7 y B ` &.*.*.%.#.#.#.@.@.X.X.f d s.g.g.",
"g.p.f 2 ;.r.3.d 0 3 @.s.a.r.+.p < $ @ + + . @ 1 B | %.%.#.#.@.@.X.X.X.R 5 #.g.g.",
"g.%.3 h w.w.R 0 3 R s.f.r.` 7 % $ $ $ $ + + o . # p ` #.@.@.@. . . . .{ u d f.g.",
"f.G > { e.2.s 6 a w.f.y.o.4 + $ $ + o o O + + + O $ k ' @.@. . .{ { { { M 3 7.g.",
"e.t 3 >.0.{ 0 3 ] a.i.3.u @ $ + + + + + . O O + + $ ; G  .@. . .{ _ ] ^ P 3 ^ g.",
">.5 a 7.7.A 5 0 3.e.8.) ; + + + + = 0 h f 2 X O % $ X u { ..{ { { ^ ^ ^ Q 0 h f.",
" .2 v 7.5.f 3 d 5.6.<.l O + + o = f v A K R 3 X O X X < T [ { ^ ( ! ! Q W t q p.",
"! , H 7.;.a 3 x 3.3.-.9 O O + X q n D ] ^ ] W $ X O O & L ^ ^ ^ ~ ~ ! Q W f 3 w.",
"R , R 6.*.q 3 m 1.3.+.4   O + + f A ]  .*.#.;.- X O X # V ~ ! Q W W W E W h 2 6.",
"K 2 R 6.%.q 3 v >.1.&.8 X X O O a R ] 3.6.;.%.% O X . & C Q ! E W E E E W h > 6.",
"R 2 K 5.*.r 2 x >.;.$.i X O O X > ^ #.*.*.3.h O + X X ; I U W E E E E P K d , 6.",
"^ 3 A 3.1.H t Q ;.;.;.C @ X + O X 3 ! *. .f $ + + O   8 I P E E P K K K J t 1 q.",
"@.5 f 1.>.;.%.*.*.*.&.` 1   O + X X + = $ O X O + X @ N P K P P K K J F F 6 6 a.",
"6.q 0 *.>.;.*.%.*.%.%.O.V # O O X + O o + + o o O X w I K P G K J J J J M , f f.",
"u.f , { ;.;.*.*.%.%.#.@.| k +   + O O o X + o X o 4 L K K G G F J D D H c & Q g.",
"g.R > M *.*.%.%.#.#.@.@.X.} l ;     o o X X X @ 8 L P K J J J F D D D D q > 6.g.",
"g.7.5 6 X.*.%.#.#.@.@.@.X. .} L i 1 * # % : 8 N U P F V F F F F D D D n > t d.g.",
"g.g.! - M %.#.#.@.@. . . .{ { ( / Y L V Z I Y W P F b h M F D F D D D t %  .g.g.",
"g.g.s.A 0 ^ #.@.X.X. . .{ { ] ] ~ Q Q Y W E R K M g g v S F F S D D l > e s.g.g.",
"g.g.g.f.D s  .@. . . .{ { ] ^ ^ ! Q W W E E K J j v M F F D D S D M 6 > ;.g.g.g.",
"g.g.g.g.q.r v  . .{ { { ] ] ^ ! ! W W U P E K K J J D D h d c S M q % J g.g.g.g.",
"g.g.g.g.g.&.6 m { { ] ] ^ ^ ^ Q Q W R W K K K F F F D w > - > 5 2 = v s.g.g.g.g.",
"g.g.g.g.g.g.X.5 x ^ { ^ ^ Q Q W W W R P P K K F F F b > = - ; = % h p.g.g.g.g.g.",
"g.g.g.g.g.g.g.@.5 t K ^ ! W W W E E R U K J F F F F c - - > > > M a.g.g.g.g.g.g.",
"g.g.g.g.g.g.g.g.1.q 3 h R W W W W W K K K F F G F F h - - - 6  .f.g.g.g.g.g.g.g.",
"g.g.g.g.g.g.g.g.g.r.H 1 3 d A K K U K K K K G G V c 5 & - v 8.g.g.g.g.g.g.g.g.g.",
"g.g.g.g.g.g.g.g.g.g.f.6.m 3 > 5 w f x v x l d q 5 > > t #.f.g.g.g.g.g.g.g.g.g.g.",
"g.g.g.g.g.g.g.g.g.g.g.g.f.0.{ h 5 > - ; > > : 3 e H >.s.g.g.g.g.g.g.g.g.g.g.g.g.",
"g.g.g.g.g.g.g.g.g.g.g.g.g.g.g.f.e.3.X. . .X.>.w.s.g.g.g.g.g.g.g.g.g.g.g.g.g.g.g."
};
