/* XPM */
static char *_89e806a87094600cc19692672709ea9IH90bs4D2EFgHAkc[] = {
/* columns rows colors chars-per-pixel */
"40 40 146 2 ",
"   c #0F0F0F",
".  c #11120F",
"X  c #0F0E11",
"o  c #110F12",
"O  c #0F1013",
"+  c #121113",
"@  c #191612",
"#  c #1D1B16",
"$  c #161619",
"%  c #1B1B1C",
"&  c #201E1F",
"*  c #22231D",
"=  c #1F1F21",
"-  c #232324",
";  c #2D2C24",
":  c #262628",
">  c #282728",
",  c #2B2B2C",
"<  c #36352D",
"1  c #2F2F31",
"2  c #333334",
"3  c #3B3A32",
"4  c #373739",
"5  c #3B3A3C",
"6  c #403E36",
"7  c #404137",
"8  c #47443B",
"9  c #4A473C",
"0  c #46483B",
"q  c #4C4A3E",
"w  c #3F3F41",
"e  c #434244",
"r  c #464648",
"t  c #4B4B4C",
"y  c #514E44",
"u  c #565449",
"i  c #5C5B4B",
"p  c #4F4F50",
"a  c #535354",
"s  c #585657",
"d  c #575759",
"f  c #585758",
"g  c #5B5A5C",
"h  c #615D53",
"j  c #646254",
"k  c #68675A",
"l  c #656858",
"z  c #6E6A5E",
"x  c #5F5F60",
"c  c #615F60",
"v  c #646365",
"b  c #686667",
"n  c #676768",
"m  c #6B6B6C",
"M  c #726D62",
"N  c #706E6F",
"B  c #737163",
"V  c #787763",
"C  c #71716F",
"Z  c #797568",
"A  c #7D7A6E",
"S  c #6F6F71",
"D  c #716F70",
"F  c #747374",
"G  c #787776",
"H  c #7E7F72",
"J  c #777779",
"K  c #797778",
"L  c #7C7A7B",
"P  c #807D70",
"I  c #807E7F",
"U  c #848274",
"Y  c #85837B",
"T  c #89857C",
"R  c #8E897D",
"E  c #7F7E81",
"W  c #817F80",
"Q  c #848384",
"!  c #898583",
"~  c #8E8A84",
"^  c #868688",
"/  c #88848A",
"(  c #8B8B8C",
")  c #928E8C",
"_  c #939487",
"`  c #9A968B",
"'  c #9C998C",
"]  c #8F8E91",
"[  c #918F97",
"{  c #939394",
"}  c #9A9795",
"|  c #9C9991",
" . c #979799",
".. c #9B9B9D",
"X. c #A5A49B",
"o. c #ACA79C",
"O. c #9E9EA0",
"+. c #A3A3A5",
"@. c #A9A6A2",
"#. c #A6A6A9",
"$. c #A8A7AC",
"%. c #ABAAAC",
"&. c #B6B5AD",
"*. c #BDBAAF",
"=. c #AEAEB1",
"-. c #B0AFB4",
";. c #B1AFBB",
":. c #B3B3B4",
">. c #BBBDB6",
",. c #B6B5BA",
"<. c #B9B5BC",
"1. c #BBBABD",
"2. c #C1C2BB",
"3. c #CCC8BF",
"4. c #BEBEC0",
"5. c #C3C3C4",
"6. c #CDCBC1",
"7. c #C6C7C9",
"8. c #CACACC",
"9. c #CECFD0",
"0. c #D0CFD0",
"q. c #D4D4D5",
"w. c #DCDAD3",
"e. c #D7D7D9",
"r. c #DAD9DA",
"t. c #DBDBDD",
"y. c #DDDDDF",
"u. c #E1DED9",
"i. c #DEDEE0",
"p. c #E1E1E1",
"a. c #E5E5E0",
"s. c #E7E6E4",
"d. c #E7E7E8",
"f. c #E6E4EC",
"g. c #EAEAEA",
"h. c #EAEAED",
"j. c #EEEFEE",
"k. c #E8E6F0",
"l. c #EEEDF1",
"z. c #F0EFF2",
"x. c gray95",
"c. c #F3F3F3",
"v. c #F2F2F4",
"b. c gray97",
"n. c #F9F9F9",
"m. c white",
/* pixels */
"m.m.m.m.m.m.m.m.m.m.m.m.m.m.x.r.5.%... ...+.:.q.j.m.m.m.m.m.m.m.m.m.m.m.m.m.m.m.",
"m.m.m.m.m.m.m.m.m.m.m.b.9...F a e 2 , , , 2 4 r F O.9.b.m.m.m.m.m.m.m.m.m.m.m.m.",
"m.m.m.m.m.m.m.m.m.n.7.L e , : 2 t n K Q Q K v e : w t F 1.x.m.m.m.m.m.m.m.m.m.m.",
"m.m.m.m.m.m.m.m.p.{ t > 1 g { ,.9.e.y.i.i.p.i.9.d - 5 w r F 5.n.m.m.m.m.m.m.m.m.",
"m.m.m.m.m.m.m.5.n 2 , n %.7.q.q.q.8.7.5.5.7.q.i.4.e $ = - - e { g.m.m.m.m.m.m.m.",
"m.m.m.m.m.n.$.a , t ..5.7.7.:.{ F x a a a d v E +.=.] Q ..( 5 , F r.m.m.m.m.m.m.",
"m.m.m.m.n.+.r , v :.5.5.%.F t 5 5 5 5 4 4 5 w e r d ^ 7.p.p.1.p > m r.m.m.m.m.m.",
"m.m.m.m.:.e , S ,.1.:.Q r 4 2 2 e a v n g t 5 2 2 5 e d ..e.y.7.d > F p.m.m.m.m.",
"m.m.m.e.t > n :.,.=.n 5 2 2 p ^ 1.r.g.j.h.i.7...v 4 2 w r Q 8.t.7.t , Q x.m.m.m.",
"m.m.m.E : a %.:.:. .4 2 w L :.5.8.r.f.l.z.l.d.i.e.:.v 2 5 e J 8.r.:.2 5 $.m.m.m.",
"m.m.p.e 4  .=.=.=.#.v a { ,.1.1.5.2.>.&.*.3.w.a.p.p.i.{ 5 5 w E 9.q.( : a r.m.m.",
"m.m.5.: m %.%.%.%.%.%.%.:.,.<.&._ l 0 3 3 q M ' 6.s.j.z.=.w 4 e  .9.7.p : ^ m.m.",
"m.m.+.e  .$.$.$.$.$.%.%.-.:.X.i * + + + $ $ % , h o.u.j.v.$.5 4 a ,.8.{ : e e.m.",
"m.j.g v +.+.+.+.#.$.$.%.=.' 8 o   + + + $ $ $ $ # 6 ' e.k.d.Q 2 4 Q 7.1.r ,  .m.",
"m.5.5 ^ +.O.+.+.+.+.#.$.X.q X o + + + + + + + @ @ @ 7 X.0.r.5.r 2 p :.5.K - n x.",
"m.( e  .......O.+.+.+.X.B @ + + + + o @ @ + + + @ @ @ j &.5.5.S 2 5 { 5.O., t e.",
"b.v a  . . .......O...| 3 X + + + $ 5 d d e % + + + + ; ` 1.1.{ 2 2 F 1.:.w 5 :.",
"s.r v  .{  . . .......T # X + + + p L m v n g # X o + @ Z :.<.+.w , x ,.1.a 2 { ",
"e.5 S { { { { {  . ...B . + + X - ^ L ] ] J K 5 X o o o h %.;.%.r , a =.1.n , Q ",
"7.2 F { { { { { { { } k . + + X 2 #...$...] Q t X + + X u @.=.%.v 1 v =.,.F , F ",
"5.2 m ( ( [ ] { { { { M + o + X : :.%.7.1.{ { 5 X + +   i @.=.%.+.( +.=.:.F > n ",
"7.2 v ^ ^ ^ ( ( ( ] ) A # X O + + m 1.%.=.,.^ # + % $ @ z +.$.#.#.$.$.%.:.m > m ",
"e.2 g ^ ^ ^ ^ ^ ^ ( ( R < X O + + $ d { +.F - O + @ $ - U +.#.+.+.+.#.$.%.g > J ",
"s.e t ^ ^ ^ ^ ^ ^ ^ ^ ~ j + o + + + + @ $ + X + + X   y ` +.+.+.+.+.+.$.+.r , ..",
"n.x 4 L Q Q Q ^ ^ ^ ^ ! T 3 X + + + + + + + O + + X ; T ..O.O.O.+.+.+.#. .2 w e.",
"m.( > D Q Q Q Q Q Q Q Q ! U <   X + + + + + O + X > V {  . .......O.O.+.L % ^ m.",
"m.7.> a W I W W Q Q Y Q Q Y U 9 @ X X X X X o @ 3 A ) [ {  . . . .......d n h.m.",
"m.x.t 2 F L L I I I I L L E Q ! M q ; * * ; 8 z T ~ ( ] { { { {  . ...^ e 5.m.m.",
"m.m.{ - f L L L L L L L L K K L Y Y Y P H U T T ! / ^ ( ( { { { {  . .d g x.m.m.",
"m.m.s.e , m K K K K K K K n d m G K L L L L I Q Q ^ ^ ^ ^ ( ( ( { { K 2 %.m.m.m.",
"m.m.m.$.: e F K G G G G J F c s g n J K K L L I W Q Q ^ ^ ^ ^ ( { ^ 5 v x.m.m.m.",
"m.m.m.n.F - a G G G G G F G F m v b G J K L L L L I Q Q ^ ^ ^ ^ ^ t 5 8.m.m.m.m.",
"m.m.m.m.p.a : a F G F G F N F G F F G G G J K K L L I Q Q Q ^ Q t , +.m.m.m.m.m.",
"m.m.m.m.m.e.r : a C F v 5 2 e n F F F F G G G J K L L L I Q K r : { n.m.m.m.m.m.",
"m.m.m.m.m.m.e.a - 2 5 > & - - 5 F F F F F F F G J K K L L n 5 > { n.m.m.m.m.m.m.",
"m.m.m.m.m.m.m.s.F : = - : : - , n F F F F F F F G K J m t : 5 %.m.m.m.m.m.m.m.m.",
"m.m.m.m.m.m.m.m.n.%.p : : , : - a F F F F F F F N c e > : n e.m.m.m.m.m.m.m.m.m.",
"m.m.m.m.m.m.m.m.m.m.j.:.v 2 = % : e a d d a t 5 , % : d :.b.m.m.m.m.m.m.m.m.m.m.",
"m.m.m.m.m.m.m.m.m.m.m.m.n.8.^ a 2 : - - - % - 2 a ^ 7.b.m.m.m.m.m.m.m.m.m.m.m.m.",
"m.m.m.m.m.m.m.m.m.m.m.m.m.m.m.x.r.,.+.{ { ..:.r.x.m.m.m.m.m.m.m.m.m.m.m.m.m.m.m."
};
