/* XPM */
static char *result[] = {
/* columns rows colors chars-per-pixel */
"40 40 133 2 ",
"   c #0E0E0F",
".  c #120E0F",
"X  c #10100E",
"o  c #0F0E11",
"O  c #100F12",
"+  c #0F1013",
"@  c #111113",
"#  c #1A1614",
"$  c #1B1A16",
"%  c #161618",
"&  c #1C1C1C",
"*  c #201E19",
"=  c #1F201B",
"-  c #23221D",
";  c #1F1F21",
":  c #232324",
">  c #2E2B24",
",  c #262628",
"<  c #2B2A2C",
"1  c #3A372F",
"2  c #37392F",
"3  c #2F2F31",
"4  c #312F30",
"5  c #333335",
"6  c #3B3B31",
"7  c #363738",
"8  c #393738",
"9  c #3B3B3C",
"0  c #423F37",
"q  c #403F3F",
"w  c #44443A",
"e  c #4A473C",
"r  c #4B4A3E",
"t  c #3E3E41",
"y  c #434344",
"u  c #474749",
"i  c #4B4B4C",
"p  c #524F46",
"a  c #515343",
"s  c #555549",
"d  c #5C594D",
"f  c #4E4E50",
"g  c #504F50",
"h  c #545455",
"j  c #585657",
"k  c #575759",
"l  c #595758",
"z  c #5A5A5B",
"x  c #625E52",
"c  c #605E5F",
"v  c #62615F",
"b  c #6C695B",
"n  c #5F5F60",
"m  c #636364",
"M  c #686667",
"N  c #676769",
"B  c #686768",
"V  c #6B6B6C",
"C  c #726D62",
"Z  c #737162",
"A  c #777569",
"S  c #7D7A6C",
"D  c #757474",
"F  c #787676",
"G  c #7A7A75",
"H  c #777779",
"J  c #797778",
"K  c #7C7B7C",
"L  c #807C6F",
"P  c #817E72",
"I  c #807E7F",
"U  c #7F8073",
"Y  c #838376",
"T  c #82817C",
"R  c #89847C",
"E  c #8A897D",
"W  c #7F7E80",
"Q  c #817F80",
"!  c #848384",
"~  c #8B8984",
"^  c #868588",
"/  c #898789",
"(  c #8B8B8C",
")  c #938F8A",
"_  c #939487",
"`  c #96938D",
"'  c #99978A",
"]  c #9B998D",
"[  c #8F8F90",
"{  c #928F92",
"}  c #929294",
"|  c #9C9892",
" . c #969699",
".. c #9B9B9D",
"X. c #A09D97",
"o. c #A29F9A",
"O. c #9EA194",
"+. c #A9A499",
"@. c #9F9FA0",
"#. c #A3A3A4",
"$. c #ACA9A4",
"%. c #A7A7A9",
"&. c #ABAAAD",
"*. c #B3AEAC",
"=. c #B5B6AD",
"-. c #AFAFB1",
";. c #B0AEB8",
":. c #B3B3B5",
">. c #BAB5B2",
",. c #B9BAB2",
"<. c #B6B4BA",
"1. c #B9B6BC",
"2. c #BBBBBC",
"3. c #C0BDB3",
"4. c #C1C2BC",
"5. c #BFBFC1",
"6. c #C2C2C4",
"7. c #CDCAC0",
"8. c #C6C7C9",
"9. c #CBCBCD",
"0. c #CECED0",
"q. c #D3D3D4",
"w. c #DDDBD4",
"e. c #D7D7D9",
"r. c #DBDBDD",
"t. c #DFDFE1",
"y. c #E3E3E3",
"u. c #E5E5EB",
"i. c #E8E7EF",
"p. c #EBEBEC",
"a. c #EEEEF2",
"s. c #F2F2F3",
"d. c #FFFFFF",
/* pixels */
"d.d.d.d.d.d.d.d.d.d.d.d.d.d.d.a.q.:...} | ..:.q.p.d.d.d.d.d.d.d.d.d.d.d.d.d.d.d.",
"d.d.d.d.d.d.d.d.d.d.d.d.d.0.[ h 5 , : , , , , 5 i K 2.s.d.d.d.d.d.d.d.d.d.d.d.d.",
"d.d.d.d.d.d.d.d.d.d.a.:.M 5 ; ; , u c v v z j u 7 : : h :.s.d.d.d.d.d.d.d.d.d.d.",
"d.d.d.d.d.d.d.d.d.5.z , : < : : s D G G G K K K G V h 4 , z 9.d.d.d.d.d.d.d.d.d.",
"d.d.d.d.d.d.d.p.! < ; ; , : * : M D F F G F J K W W U G l 3 7 #.d.d.d.d.d.d.d.d.",
"d.d.d.d.d.d.y.z ; 4 t < : : : 8 D D F F F F K I W W ! ! ! F u < ( s.d.d.d.d.d.d.",
"d.d.d.d.d.r.f - i V D M y 5 q M D J J J K K I Q Q ! ! ! ! ^ R k < ^ s.d.d.d.d.d.",
"d.d.d.d.p.k ; i A V D D D D D F D J J K K I I Q Q ! ! ! ~ ^ ( ( m 3 ..d.d.d.d.d.",
"d.d.d.d.K & u A D D D D D D D V M M F K Q K T ! ! ^ ^ / / ( ( ` [ z 9 5.d.d.d.d.",
"d.d.d.<.: 8 V F D D D D F V c j j m K K ! T ! ! ^ ^ ( / ( [ [ [ } } f k u.d.d.d.",
"d.d.p.s , m D D D D D J F V m V F K I ! ! T R ^ ^ / ( ( [ [ } } }  .^ 9  .d.d.d.",
"d.d.%.; i D D D D J J J J J F G I R R G S Y E ~ ~ / ( } [ }  . . . .@.N f y.d.d.",
"d.s.j < B F F F J J J I J J K R C e > - = - 1 x R ) [ }  . . . . .@.@.} y &.d.d.",
"d.q.< u F F K J J J J J I I P r #   o . +   O @ > Z `  . . .....@.@.@.#.m k t.d.",
"d...: m K J K K Q I K I I L 6 X O + + + @ + + .   $ b | @.@.O.@.#.@.#.%.[ , W d.",
"d.V < D K I I I Q Q Q I Y e . @ @ o @ @ + + + + @ o $ G ..@.@.#.#.#.%.%.#.t t q.",
"a.f y U K ! W ! / Q ! R b #   @ @ + o % % + + + + +   6 | #.#.#.%.%.&.&.&.z < @.",
"y.9 f T ! ! ! ! ! Q / R 0 O + @ @ % j } #.W 3 o + + + # L $.&.%.%.%.&.-.-.D < W ",
"e.5 l ! ^ ! ! / / / / P - O + + + M 6.&.-.-.[ ; + + +   d %.&.&.&.-.-.-.<.U < V ",
"0.5 z / ^ / / ( ( { ) A $ O @ o ; &.&.6.5.} ( u o + @   r $.-.-.%.} #.<.<.^ < N ",
"w.7 n ( ( ( ( ` { { { Z % O O   < &...%.@.[ H h + o o o r $.:.-.H 5 z -.2.^ 3 V ",
"y.y z [ ( ` } } } }  .S $ O @ o & W ! ( [ D V t @ @ o   a *.<.:.z 5 y &.5.K 3 K ",
"s.k h ` } } }  . .....~ > O & % o t ! D N n z ; o @ O . b >.5.-.f 5 h <.5.V 3 } ",
"d.G y }  . . . .......' e % % O + @ 7 z k y ; o @ @ o - ) 1.5.@.t 5 V 5.5.h 9 :.",
"d.%.9 ( ..@...@.@.@.#.@.S & O O o @   @ % @ @ @ @ @ @ s =.6.6.! 5 9 [ 8.-.7 f q.",
"d.r.y D ..O.@.@.@.#.#.%.X.d @ O O O O @ @ O % @ % % 2 O.9.w.9.h 7 u -.9.} , V a.",
"d.s.H z @.@.@.@.#.#.%.%.&.] p # O @ @ % @ % % % % 1 _ q.i.u.[ 5 9 H 8.8.n < @.d.",
"d.d.6.t ( #.#.#.#.#.%.%.&.-.o.b > # @ @ % # * > d +.w.s.s.<.t 9 f :.0.-.3 u q.d.",
"d.d.q., k %.%.%.%.%.#.#.-.-.;.=.' C a 0 w a C ' 7.u.a.a.,.y 9 y [ q.0.m , ( d.d.",
"d.d.u.y < ! &.&.%.#.z y Q :.<.2.3.6.4.,.4.4.w.y.y.t.t...t 7 t H 9.r.@., h q.d.d.",
"d.d.d.^ : y @.;.-...9 3 5 N #.5.0.e.u.i.a.p.u.r.e.:.N 3 7 y D 9.r.5.y 7 #.d.d.d.",
"d.d.d.t.f , h %.:.-.H 9 3 3 t D -.q.y.p.u.e.5. .m 7 5 t u K 9.r.0.k , ! p.d.d.d.",
"d.d.d.d.1.y , z &.2.<.( f 7 5 5 7 i z n k u 9 3 5 t y k ..q.t.0.m , V y.d.d.d.d.",
"d.d.d.d.d.&.u < g #.5.2.&.U f t 7 7 7 5 7 9 t t u k ^ 6.t.t.6.z , N q.d.d.d.d.d.",
"d.d.d.d.d.d.1.j < 7 ! 1.5.6.;...H m z h k n N W #.-.[ W  .} t < D r.d.d.d.d.d.d.",
"d.d.d.d.d.d.d.9.V 5 , f } 2.8.9.0.9.8.6.6.9.q.t.5.u % ; : , t [ y.d.d.d.d.d.d.d.",
"d.d.d.d.d.d.d.d.y. .u , , u H %.6.0.e.r.r.t.r.9.n ; 7 t i H 2.s.d.d.d.d.d.d.d.d.",
"d.d.d.d.d.d.d.d.d.d.0.W u < : < 9 k V D H V z 9 ; 7 h H 2.a.d.d.d.d.d.d.d.d.d.d.",
"d.d.d.d.d.d.d.d.d.d.d.d.r.#.H k y 7 5 5 5 5 q h H #.e.s.d.d.d.d.d.d.d.d.d.d.d.d.",
"d.d.d.d.d.d.d.d.d.d.d.d.d.d.s.u.9.<.$.#.#.:.6.r.s.d.d.d.d.d.d.d.d.d.d.d.d.d.d.d."
};
