/* XPM */
static char *abbea98505ae42cfc106a77d342ff261PPJO6Tqfyht4ji6Y[] = {
/* columns rows colors chars-per-pixel */
"40 40 218 2 ",
"   c #0B3B58",
".  c #0D4667",
"X  c #144968",
"o  c #1B516C",
"O  c #17506E",
"+  c #0D4B72",
"@  c #124D73",
"#  c #145174",
"$  c #1D5574",
"%  c #1B5A76",
"&  c #17567A",
"*  c #1A557B",
"=  c #1D5B7C",
"-  c #175E7E",
";  c #24536A",
":  c #225675",
">  c #235B75",
",  c #255C7A",
"<  c #2B5B7C",
"1  c #2B617B",
"2  c #2D6073",
"3  c #326177",
"4  c #34647C",
"5  c #3E6373",
"6  c #1B5580",
"7  c #1D5D83",
"8  c #235D83",
"9  c #2B5F83",
"0  c #245D8A",
"q  c #1D6285",
"w  c #246384",
"e  c #2B6583",
"r  c #24628A",
"t  c #2B658A",
"y  c #2C6B8D",
"u  c #296A87",
"i  c #336584",
"p  c #396684",
"a  c #346B83",
"s  c #3B6C83",
"d  c #32668D",
"f  c #336B8B",
"g  c #3C6F8A",
"h  c #33708A",
"j  c #3C748D",
"k  c #2A6791",
"l  c #2C6D92",
"z  c #346C92",
"x  c #2F7194",
"c  c #357495",
"v  c #3B7493",
"b  c #347499",
"n  c #3A759E",
"m  c #367B9B",
"M  c #3C7D9B",
"N  c #3C75A1",
"B  c #416B84",
"V  c #43748C",
"C  c #4A7C8D",
"Z  c #4B7283",
"A  c #527E8E",
"S  c #467996",
"D  c #43769A",
"F  c #487B97",
"G  c #417CA2",
"H  c #3A819F",
"J  c #3E83A2",
"K  c #4C849C",
"L  c #4D8293",
"P  c #55859A",
"I  c #5A8499",
"U  c #5C8A9C",
"Y  c #528596",
"T  c #678B9E",
"R  c #688D9D",
"E  c #69959E",
"W  c #4582A5",
"Q  c #4A8AA3",
"!  c #4282A9",
"~  c #4986AB",
"^  c #4A86A7",
"/  c #5987A2",
"(  c #578DA4",
")  c #5B91AA",
"_  c #5D95B0",
"`  c #678DA3",
"'  c #6692A3",
"]  c #6395AC",
"[  c #6B9DAD",
"{  c #6B95A6",
"}  c #7295AC",
"|  c #749CAD",
" . c #7A98A6",
".. c #6A9CB2",
"X. c #7A9EB2",
"o. c #729DB4",
"O. c #7DA2B4",
"+. c #78A5BA",
"@. c #7AA3A9",
"#. c #6AA0C4",
"$. c #79ADC3",
"%. c #7FB3C1",
"&. c #879A9E",
"*. c #819EAF",
"=. c #889FAD",
"-. c #84A4B5",
";. c #8BA7B4",
":. c #85A7B9",
">. c #8BAABC",
",. c #86ABBD",
"<. c #96AEB6",
"1. c #8BB3BF",
"2. c #96B2BE",
"3. c #A6B8BC",
"4. c #82ABC1",
"5. c #8BB3C5",
"6. c #92B6CA",
"7. c #95BBC9",
"8. c #9DBBCB",
"9. c #9AB8C3",
"0. c #99BDD0",
"q. c #A4BCCB",
"w. c #A7BBC9",
"e. c #B1BEC6",
"r. c #A4C3CF",
"t. c #ACC1CE",
"y. c #A9C3C6",
"u. c #B0C2CE",
"i. c #A4C4D3",
"p. c #AFC3D1",
"a. c #AACAD7",
"s. c #BBCCD4",
"d. c #B7CCD6",
"f. c #AAD1DE",
"g. c #BBD2DC",
"h. c #B8D2D9",
"j. c #88C6EB",
"k. c #B6D6E6",
"l. c #BAE1EC",
"z. c #C8CDCD",
"x. c #C4CFD4",
"c. c #C2CFD8",
"v. c #C9D6D4",
"b. c #C4D3DC",
"n. c #CED5DA",
"m. c #CDDBDB",
"M. c #C5D8D7",
"N. c #D5DCDB",
"B. c #D6E0DF",
"V. c #C3D5E2",
"C. c #C5DCE5",
"Z. c #C9DAE2",
"A. c #C2DEEB",
"S. c #CDDAEA",
"D. c #D3DCE3",
"F. c #D8DEE5",
"G. c #CDE1E3",
"H. c #CCE2EB",
"J. c #C7E0E5",
"K. c #D4E2E4",
"L. c #DCE3E3",
"P. c #DEE9E5",
"I. c #D4E2EB",
"U. c #DCE5EC",
"Y. c #DFEBEE",
"T. c #D5E8EC",
"R. c #CBE6F2",
"E. c #C9EAF9",
"W. c #D4EBF3",
"Q. c #DBECF3",
"!. c #DCE5F3",
"~. c #D6F1FC",
"^. c #DBF4FF",
"/. c #E2E4E3",
"(. c #E4E8E6",
"). c #E5E5EA",
"_. c #E5EAE9",
"`. c #ECEDED",
"'. c #EFE5E4",
"]. c #F2EDED",
"[. c #F0E8E6",
"{. c #EBF1EF",
"}. c #F2F4EE",
"|. c #E4ECF3",
" X c #ECEDF1",
".X c #E1EAF4",
"XX c #F2EEF2",
"oX c #E4F1F4",
"OX c #EDF3F2",
"+X c #E4F4FC",
"@X c #EDF5FB",
"#X c #E6FDFF",
"$X c #ECFBFF",
"%X c #F3F5F4",
"&X c #FBF5F4",
"*X c #F5F9F5",
"=X c #FCFCF6",
"-X c #F3F5FA",
";X c #FBF6F9",
":X c #F5FBFC",
">X c #FEFAFA",
",X c #FFFFF8",
"<X c #FFFDFB",
"1X c #FFFFFB",
"2X c #FDFEFA",
"3X c #FEFBFE",
"4X c #F9FFFF",
"5X c #FBFFFF",
"6X c #F9FEFE",
"7X c #FFFFFD",
"8X c #FFFDFF",
"9X c #FCFFFF",
"0X c #FEFEFE",
"qX c #FFFEFF",
"wX c white",
"eX c #FEFFFF",
"rX c #FDFDFD",
"tX c #FDFEFD",
/* pixels */
",X,X,X,X,X,X,X9X5X@X4X5X5X:X9X`.9X-X5X4X:X5X*X9X;X9X9X9X3X3X9X9X9X9X9X9X9X9X9X9X",
",X,X,X,X,X,X,X9X:X5X5X4X5X9X9X&X9X:X5X4X4X5X2X9X9X9X3X3X9X9X9X9X9X9X9X9X9X9X9X9X",
"5X9X9X,X,X,X,X9X9X9X:X9X9X9X[.&X3X&X9X*X*X2X*X*X,X9X<X9X9X9X5X5X9X9X9X9X9X9X9X9X",
"5X5X9X9X,X,X,X,X<X;X X9X9X;X'.<X;X;X<X&X*X*X}.}.&X<X,X9X9X9X5X9X9X9X9X9X9X9X9X9X",
"5X5X9X9X9X,X,X,X<XXX%X3X9X].].].&X3X9X9X;X*X=X=X,X,X,X=X=X=X:X2X9X9X9X9X9X9X9X9X",
"4X5X9X9X9X,X,X9X<X;X9XOX-X XOXF.XX3X9X3X%X{.*X}.,X=X].].*X,X*X*X9X9X9X9X9X9X9X9X",
"5X5X9X9X3X<X,X,XXX%X|.U.+XT.Z.D.D.|.|.Q.U.K.Y.L.%XOX`.}.*X=X=X*X9X9X9X<X9X9X9X9X",
"5X9X9X9X9X,X,X9X9X4XZ.R.R.r. .i.p.V.g.C.C.C.Q.G.m.).*X9X;X*X=X,X9X9X;X;X;X9X9X9X",
"9X9X9X,X=X=X,X5X$XH.8.6.+...] o.` 6.} | 1. .9.g.H.@XD.3XXX3X3X%X*X;X9X9X9X9X9X9X",
"9X,X,X,X,X%X{.oXC.i.I V v e . f V ..] ] C C ' 7.2.V.5X-X3X).9X3X&X9X9X9X9X9X9X9X",
",X,X,X,X,X%XoXW.E.P o e c m q y W ( Q Q u K L | :.q.!..X-X;X;X].<X9X9X;X;X9X9X9X",
"=X,X,X,X*XOXW.A.0.i w y q b l r y J J m w M K +.5.q.S.!.).9X;X9X3X9X9X9X9X9X9X9X",
"=X,X,XOX@X+Xk.,./ ^ ~ 7 r ! x w w m 7 - H Q Q ] O.*.V.U.:X3X).%X;X;X<X9X9X9X9X9X",
",X9X:X@X4X$Xa.I V e b r 7 y t = * ! b w b u v ..5.-.w.c.n.).N.=X*X*X*X<X9X9X9X9X",
"9X5X:X:X:X^.6.V D * n ! 8 . < i z n t 7 u y > V I -.V.:XK.L.z.%X=X*X*X;X9X9X9X9X",
"9X5X:X$X^.k.} p t r r r n 9 i < n t f f 8 D , S ( } a.h.T.v._.2X9X*X*X;X9X9X9X9X",
",X2X-XoX$Xk.B i v 8 G c * e i p i , p i v 9 #.f j $.[ f.h.s.:X X%X5X9X9X9X9X9X9X",
",X=X_.$X#X6.s S z e b y # $ > $ ,   X   < d z * 8 v ( %.i.p.4X-X-X*XOX`.%X9X9X;X",
"&X%XL.$X~.T ; f G y & = 8 t f , o o i : 9 z * r w % j Y R ;.Q.@X-X%X`._.OX9X9X5X",
",X,X:X4X#X:.4 j v W l l 8 @ f f $ > $ $ d t * @ & = , s 5  .g.oX-X%X*X:X5X9X9X9X",
"=X&X;X+X~.7.3 $ = b k b r + d z f t f * r 8 b l # h > 4 Z  .w.b.4XOX%X9X9X9X2X9X",
",X<X9X|.^.k.C , w w + r r 0 G b 8 w ^ # @ * r M & u > ; R *.w.s.:X(./.%X9X5X*X;X",
";X]. X|.#Xk.' j v y w k 7 6 N n z ~ W * 7 t 7 t = $ 1 3 { >.t.I.U./._.OX:X;X;X;X",
"<X&X).@X^.9.A 2 h % = c k k n 0 n j.~ t 7 # = y v e U { T ;.=.b.x./.:X:X%X:X9X9X",
"<X;X9X:XQ.W.i.A s a f y w 6 0 r z c r r x ~ c u F ] ` X.i.q.w.s.n.L._.`.*X9X9X:X",
";X;X;X-X$X$XR.a.C P K o # W N 6 @ = = # y W Q ) F 4.X.8.A.p.H.Z.N.N./.%X2X;X9X9X",
"<X<X`.`.:X@XQ.^.f.{ C F , t W & 8 . w % % f ) ( o.,.i.w.t.b.s.K.4XOX{.5X9X9X2X9X",
"9X<X%X%X-X|.Y.Q.H.6.X.B > v @ = 9 > : X 1 4 V U >.a.q.b.e.b.D.m._.OXOX_.`.9X9X2X",
"9X;X3X9X*X3X:XU.I.V.8.| 4 g v , p X : s > L [ O.<.u.c.D.n.L.oXB.N.%X5X(./.*X9X9X",
"9X%X<X9X%X9X9X`.5XoXW.0.| ] > _ p p 4 V C U E r.h.e.OXz.L.`.(.P.:X:X%X{.*X9X9X;X",
":X*X*X&X&X<X,X&X9X@X+XA.| $.) K / V P [ { { @.9.+X:X%X/.`./.2X{.;X_.L.`.9X9X9X9X",
":X5X&X&X,X,X<X9X;X_.$XH.2.l.5.| O.} :.7.l.a.y.M.oX@X:X;X/.,X(.9X9X5X9X9X9X9X9X9X",
"9X9X;X<X,X9X9X9X&X;XOX@X|.K.D.3.&.<.y.G.M.M.M.oXOX_./.`.%X%X9X9X9X9X9X9X9X9X9X9X",
"9X9X9X9X9X9X9X9X9X;X%X9X;X%X;X/.v.N.v.B.P.4X{.B.5X*XOXOX%X*X;X9X9X9X9X9X9X9X9X9X",
"9X9X9X9X9X9X9X9X&X].`.9X9X;X9X9X5XOXP.OX*X5XOX{.:X5X2X*X&X<X9X9X9X9X9X9X9X9X9X9X",
"9X9X9X9X9X9X9X9X`.`.%X9X9X;X9X9X:XOX@X5X4X{.{.2X%X5X9X2X<X9X9X9X9X9X9X9X9X9X9X9X",
"9X9X9X9X9X9X9X9X*X;X9X9X9X9X;X2XOX-X5X*X:X9X5X%X*X9X9X9X<X9X9X3X9X9X9X9X9X9X9X9X",
"9X9X9X9X9X9X9X9X9X9X9X;X9X9X*X9X9X:X5X;X9X2X9X;X;X9X9X9X9X9X9X3X9X9X9X9X9X9X9X9X",
"9X9X9X9X9X9X9X9X9X9X9X;X9X9X`.9X9X:X9X9X9X%X;X9X9X;X;X9X9X9X9X9X9X9X9X9X9X9X9X9X",
"9X9X9X9X<X<X9X9X9X;X9X9X9X9X`.9X9X5X9X:X9X9X9X*X9X9X;X9X9X9X9X9X9X9X9X9X9X9X9X9X"
};
