/* XPM */
static char *_5fbfc48a9d948e89750df2bedab25bdTLMbwcsFjF1O5eAS[] = {
/* columns rows colors chars-per-pixel */
"40 40 131 2 ",
"   c white",
".  c #FFFEFE",
"X  c #FFFCFC",
"o  c snow",
"O  c #FFCACA",
"+  c #FF9393",
"@  c #FF6767",
"#  c #FF4B4B",
"$  c #FF3A3A",
"%  c #FF3232",
"&  c #FF6868",
"*  c #FF9494",
"=  c #FFE4E4",
"-  c #FF9292",
";  c #FF4D4D",
":  c #FF2D2D",
">  c #FF2626",
",  c #FF2828",
"<  c #FF2C2C",
"1  c #FF2F2F",
"2  c #FF3131",
"3  c #FFEEEE",
"4  c #FF8484",
"5  c #FF2121",
"6  c #FF2A2A",
"7  c #FF3333",
"8  c #FFFDFD",
"9  c #FFB7B7",
"0  c #FF3D3D",
"q  c #FF2222",
"w  c #FF3030",
"e  c #FF3535",
"r  c #FF8686",
"t  c #FF2323",
"y  c #FF6C6C",
"u  c #FF2020",
"i  c #FF3434",
"p  c #FF3636",
"a  c #FF8585",
"s  c #FF2525",
"d  c #FF2424",
"f  c #FF2E2E",
"g  c #FFB5B5",
"h  c #FFC2C2",
"j  c #FFA8A8",
"k  c #FFA1A1",
"l  c #FF9C9C",
"z  c #FF9B9B",
"x  c #FF9F9F",
"c  c #FFA7A7",
"v  c #FFACAC",
"b  c #FFB2B2",
"n  c #FFB6B6",
"m  c #FF4848",
"M  c #FF3C3C",
"N  c #FFEFEF",
"B  c #FF5858",
"V  c #FF8383",
"C  c #FFAEAE",
"Z  c #FFF9F9",
"A  c #FFF5F5",
"S  c #FFEAEA",
"D  c #FFEBEB",
"F  c #FFECEC",
"G  c #FFEDED",
"H  c #FFF7F7",
"J  c #FF4E4E",
"K  c #FFE3E3",
"L  c #FF5C5C",
"P  c #FFA3A3",
"I  c #FF4040",
"U  c #FF3E3E",
"Y  c #FF3F3F",
"T  c #FF5353",
"R  c #FFE7E7",
"E  c #FF4949",
"W  c #FF2B2B",
"Q  c #FF5252",
"!  c #FF1F1F",
"~  c #FF1C1C",
"^  c #FF8C8C",
"/  c #FFD8D8",
"(  c #FFFBFB",
")  c #FF8F8F",
"_  c #FF8E8E",
"`  c #FFCBCB",
"'  c #FF5D5D",
"]  c #FF6060",
"[  c #FF8B8B",
"{  c #FF1E1E",
"}  c #FF4242",
"|  c #FFBEBE",
" . c #FF4A4A",
".. c #FFE5E5",
"X. c #FFCFCF",
"o. c #FFD1D1",
"O. c #FFD6D6",
"+. c #FF9E9E",
"@. c #FFB8B8",
"#. c #FF7676",
"$. c #FF8888",
"%. c #FFAFAF",
"&. c #FFA5A5",
"*. c #FF1313",
"=. c #FF2727",
"-. c #FFE8E8",
";. c #FFBFBF",
":. c #FF3737",
">. c #FF9090",
",. c #FF5050",
"<. c #FF9797",
"1. c #FF7575",
"2. c #FF9595",
"3. c #FF5656",
"4. c #FF1B1B",
"5. c #FFF1F1",
"6. c #FF5F5F",
"7. c #FFC4C4",
"8. c #FF4444",
"9. c #FF4F4F",
"0. c #FF5151",
"q. c #FF5757",
"w. c #FFC0C0",
"e. c #FF9696",
"r. c #FFA6A6",
"t. c #FF8D8D",
"y. c #FFB4B4",
"u. c #FF6A6A",
"i. c #FF6B6B",
"p. c #FFF0F0",
"a. c #FF8787",
/* pixels */
"                  . X     o O + @ # $ % % $ # & * O o     X .                   ",
"                X     = - ; : > , < 1 2 2 1 < , > : ; - =     X                 ",
"            . X   3 4 % 5 6 % 7 7 % 2 2 2 2 % 7 7 % 6 5 % 4 3   X .             ",
"          8     9 0 q w e % 2 2 2 2 2 2 2 2 2 2 2 2 % e w q 0 9     8           ",
"        8     r t : e 2 2 2 2 2 2 2 2 2 2 2 2 2 2 2 2 2 2 e : t r     8         ",
"      8     y u i 7 2 2 2 2 2 2 2 2 2 2 2 2 2 2 2 2 2 2 2 2 7 i u y     8       ",
"    .     y u p 2 2 2 2 7 i i i i i i i i i i i i i i % 2 2 2 2 p u y     .     ",
"    X   a u p 2 2 2 2 2 s q t q q q q q q q q t t d d f % 2 2 2 2 p u a   X     ",
"  X   g t i 2 2 2 2 w 7 g h j k l l l z z z x c v b n m < % 2 2 2 2 i t g   X   ",
".   3 M : % 2 2 2 2 2 1 9 N                           B , 7 2 2 2 2 % : M 3   . ",
"X   V q e 2 2 2 2 2 2 2 , t C   Z 8 A S D F G N .   H J 6 7 2 2 2 2 2 e q V   X ",
"  K % w 2 2 2 2 2 2 2 2 e > L   o   P 1 I U Y I T R   E W % 2 2 2 2 2 2 w % K   ",
"  - 5 e 2 2 2 2 2 2 2 2 7 6 Q   X   - ! 2 f : w ~ ^ / U : % 2 2 2 2 2 2 e 5 -   ",
"( J 6 % 2 2 2 2 2 2 2 2 7 6 J 8 8   ) t e % % i e : W w 2 2 2 2 2 2 2 2 % 6 J ( ",
"O : % 2 2 2 2 2 2 2 2 2 7 6 J 8 8   _ t e 2 7 , , 7 % 2 2 2 2 2 2 2 2 2 2 % : ` ",
"* > 7 2 2 2 2 2 2 2 2 2 7 6 J 8 8   _ t e % , ' ] : % 2 2 2 2 2 2 2 2 2 2 7 > * ",
"& , 7 2 2 2 2 2 2 2 2 2 7 6 J 8 X   [ { w : } . | 5 i 2 2 2 2 2 2 2 2 2 2 7 , & ",
" .< % 2 2 2 2 2 2 2 2 2 7 6 J 8     ..X.o.O.3   +.q i 2 2 2 2 2 2 2 2 2 2 % < # ",
"$ 1 2 2 2 2 2 2 2 2 2 2 7 6 J 8   8             +.q i 2 2 2 2 2 2 2 2 2 2 2 1 $ ",
"% 2 2 2 2 2 2 2 2 2 2 2 7 6 J 8 .   @.#.r $.%.  &.q i 2 2 2 2 2 2 2 2 2 2 2 2 % ",
"7 2 2 2 2 2 2 2 2 2 2 2 7 6 J 8 X   r *.=.q 5 -.;.q i 2 2 2 2 2 2 2 2 2 2 2 2 7 ",
"$ 1 2 2 2 2 2 2 2 2 2 2 7 6 J 8 8   ) > :.e 2 # J f 2 2 2 2 2 2 2 2 2 2 2 2 1 $ ",
" .< % 2 2 2 2 2 2 2 2 2 7 6 J 8 8   _ q i 2 % W W 2 7 i 2 2 2 2 2 2 2 2 2 % < # ",
"& , 7 2 2 2 2 2 2 2 2 2 7 6 J 8 8   >.q i 2 2 % % % =.q 2 2 2 2 2 2 2 2 2 7 , & ",
"* > 7 2 2 2 2 2 2 2 2 2 7 6 ,.. X   <.d p 7 7 7 p 6 1.2.i w 2 2 2 2 2 2 2 7 > * ",
"` : % 2 2 2 2 2 2 2 2 2 7 6 3.  X   +.4.f 6 6 6 q 1 Z 5.w 2 2 2 2 2 2 2 2 % f ` ",
"( J 6 % 2 2 2 2 2 2 2 2 i 5 6.  (   7.8.9.; 0.q.@ w.  w.=.7 2 2 2 2 2 2 % 6 J ( ",
"  - 5 e 2 2 2 2 2 2 2 2 f i |   o (   o Z Z ( .       v t i 2 2 2 2 2 2 e 5 -   ",
"  K % w 2 2 2 2 2 2 2 w `                             e.5 e 2 2 2 2 2 2 w % =   ",
"X   V q e 2 2 2 2 2 w 7 x r.>.r V 4 V V V V 4 $.t.- x Q W % 2 2 2 2 2 e q 4   X ",
".   3 M : % 2 2 2 2 2 2 t 5 q t t t t t t t t q q q 5 < % 2 2 2 2 2 % : M 3   . ",
"  X   y.t i 2 2 2 2 2 2 i i i i i i i i i i i i i i e % 2 2 2 2 2 2 i t g   X   ",
"    X   V u p 2 2 2 2 2 2 2 2 2 2 2 2 2 2 2 2 2 2 2 2 2 2 2 2 2 2 p u V   X     ",
"    .     u.5 p 2 2 2 2 2 2 2 2 2 2 2 2 2 2 2 2 2 2 2 2 2 2 2 2 p 5 i.    .     ",
"      8     y u i 7 2 2 2 2 2 2 2 2 2 2 2 2 2 2 2 2 2 2 2 2 7 i u y     8       ",
"        8     a t : e % 2 2 2 2 2 2 2 2 2 2 2 2 2 2 2 2 % e : t a     8         ",
"          8     9 U q w e % 2 2 2 2 2 2 2 2 2 2 2 2 % e w q U 9     8           ",
"            . X   p.a.7 5 6 % 7 7 % 2 2 2 2 % 7 7 % 6 5 7 a.p.  X .             ",
"                X     ..- J : > , < 1 2 2 1 < , > f J - ..    X                 ",
"                  . X     ( ` + @ # $ % % $ # @ + ` (     ( .                   "
};
