/* XPM */
static char *_8cbac4b18674676aa43e1c2725efb0bLL4ccdEUNW5zai7O[] = {
/* columns rows colors chars-per-pixel */
"40 40 177 2 ",
"   c white",
".  c #FDFFFE",
"X  c #FBFEFC",
"o  c #F9FDFB",
"O  c #BEEFD7",
"+  c #7ADEAE",
"@  c #43D08C",
"#  c #20C777",
"$  c #0BC26A",
"%  c #01BF64",
"&  c #44D08C",
"*  c #DDF6EA",
"=  c #77DDAC",
"-  c #23C878",
";  c #00BE60",
":  c #00BC5B",
">  c #00BC5C",
",  c #00BE5F",
"<  c #00BE62",
"1  c #00BF63",
"2  c #78DDAC",
"3  c #FEFFFE",
"4  c #FCFEFD",
"5  c #EAFAF2",
"6  c #66D9A2",
"7  c #00BA57",
"8  c #00BD5E",
"9  c #03C065",
"0  c #02C064",
"q  c #01BF63",
"w  c #02BF64",
"e  c #67D9A2",
"r  c #EBFAF2",
"t  c #FDFEFE",
"y  c #A6E9C9",
"u  c #0FC36C",
"i  c #04C066",
"p  c #FDFEFD",
"a  c #69D9A3",
"s  c #00BB58",
"d  c #05C066",
"f  c #6ADAA4",
"g  c #49D190",
"h  c #00BA56",
"j  c #04C065",
"k  c #4AD190",
"l  c #48D18F",
"z  c #06C067",
"x  c #49D18F",
"c  c #00BB5A",
"v  c #00BA58",
"b  c #00BB59",
"n  c #00BE61",
"m  c #68D9A3",
"M  c #A3E8C7",
"N  c #00BF62",
"B  c #A4E8C7",
"V  c #B3ECD1",
"C  c #93E4BD",
"Z  c #8BE2B8",
"A  c #84E0B4",
"S  c #85E0B4",
"D  c #83E0B3",
"F  c #88E1B6",
"G  c #92E4BC",
"H  c #99E5C0",
"J  c #9FE7C5",
"K  c #A5E8C8",
"L  c #1CC674",
"P  c #00BD5F",
"I  c #0EC26B",
"U  c #EBFAF3",
"Y  c #30CB81",
"T  c #0EC26C",
"R  c #66D9A1",
"E  c #00BC5D",
"W  c #9AE6C1",
"Q  c #F7FDFA",
"!  c #F2FCF7",
"~  c #E5F8EF",
"^  c #E7F9F0",
"/  c #E8F9F1",
"(  c #E9F9F1",
")  c #FEFFFF",
"_  c #F5FDF9",
"`  c #24C879",
"'  c #35CC84",
"]  c #F9FEFB",
"[  c #8EE3BA",
"{  c #13C46E",
"}  c #10C36D",
"|  c #12C36E",
" . c #13C46F",
".. c #2BCA7D",
"X. c #E1F7EC",
"o. c #1DC675",
"O. c #29C97C",
"+. c #FBFEFD",
"@. c #00B955",
"#. c #00B853",
"$. c #71DBA8",
"%. c #CEF3E1",
"&. c #10C36C",
"*. c #F9FEFC",
"=. c #23C879",
"-. c #74DCAA",
";. c #FAFEFC",
":. c #73DCA9",
">. c #36CD84",
",. c #3ACE87",
"<. c #7BDEAE",
"1. c #6FDBA7",
"2. c #00B954",
"3. c #15C470",
"4. c #AFEBCE",
"5. c #44D08D",
"6. c #1FC776",
"7. c #DFF7EC",
"8. c #C4F0DB",
"9. c #C6F1DC",
"0. c #CCF2E0",
"q. c #87E1B6",
"w. c #20C776",
"e. c #0BC269",
"r. c #87E1B5",
"t. c #A7E9C9",
"y. c #56D497",
"u. c #6BDAA5",
"i. c #9CE6C2",
"p. c #8FE3BB",
"a. c #00B64C",
"s. c #E2F8ED",
"d. c #75DCAA",
"f. c #08C168",
"g. c #76DDAB",
"h. c #26C97A",
"j. c #7EDFB0",
"k. c #06C167",
"l. c #55D497",
"z. c #7CDEAF",
"x. c #02C065",
"c. c #2DCA7F",
"v. c #00B852",
"b. c #00BD5D",
"n. c #EEFBF4",
"m. c #BEEFD8",
"M. c #3ACD86",
"N. c #B7EDD3",
"B. c #18C572",
"V. c #25C87A",
"C. c #28C97B",
"Z. c #2FCB80",
"A. c #B1EBCF",
"S. c #B1ECD0",
"D. c #AEEBCE",
"F. c #F8FDFB",
"G. c #98E5C0",
"H. c #78DDAD",
"J. c #BFEFD8",
"K. c #7DDEAF",
"L. c #89E1B7",
"P. c #91E3BC",
"I. c #75DCAB",
"U. c #66D8A1",
"Y. c #65D8A1",
"T. c #6CDAA5",
"R. c #72DCA9",
"E. c #A3E8C6",
"W. c #47D18E",
"Q. c #47D18F",
"!. c #68D9A2",
"~. c #A5E9C8",
"^. c #A6E9C8",
"/. c #ECFAF4",
"(. c #EDFAF4",
"). c #DFF7EB",
"_. c #79DDAD",
/* pixels */
"                  . X     o O + @ # $ % % $ # & + O o     X .                   ",
"                X     * = - ; : > , < 1 1 < , > : ; - 2 *     X                 ",
"            3 4   5 6 % 7 8 % 9 0 % 1 1 1 1 % 0 9 q 8 7 w e r   4 3             ",
"          t     y u 7 1 i w 1 1 1 1 1 1 1 1 1 1 1 1 w i 1 7 u y     t           ",
"        p     a s ; d q 1 1 1 1 1 1 1 1 1 1 1 1 1 1 1 1 q d ; s f     p         ",
"      t     g h j w 1 1 1 1 1 1 1 1 1 1 1 1 1 1 1 1 1 1 1 1 w j h k     t       ",
"    3     l h z 1 1 1 1 9 j j i i i i i i i i j j j j q 1 1 1 1 z h x     3     ",
"    4   e h z 1 1 1 1 1 c 7 s v v v v v v v v s s b b n q 1 1 1 1 z h m   4     ",
"  X   M s j 1 1 1 1 N 9 B V C Z A S A D D D F G H J K L P % 1 1 1 1 j s B   X   ",
".   5 I ; w 1 1 1 1 1 < y U                           Y > 0 1 1 1 1 w ; T 5   . ",
"X   R v d 1 1 1 1 1 1 1 E b W   Q 4 ! ~ ^ / ( U )   _ ` 8 w 1 1 1 1 1 d v R   X ",
"  * % 1 q 1 1 1 1 1 1 1 d c '   ]   [ n { } |  ...X.  o.8 w 1 1 1 1 1 q N % *   ",
"  2 7 i 1 1 1 1 1 1 1 1 0 8 O.) +.  2 @.1 ; ; N #.$.%.&.; % 1 1 1 1 1 1 i 7 2   ",
"*.=.8 w 1 1 1 1 1 1 1 1 w 8 ` 4 4   -.s d % % j d ; P 1 1 1 1 1 1 1 1 1 w 8 ` ;.",
"O ; q 1 1 1 1 1 1 1 1 1 w 8 ` 4 4   :.s i 1 0 > > 0 % 1 1 1 1 1 1 1 1 1 1 q ; O ",
"+ : 9 1 1 1 1 1 1 1 1 1 w 8 ` 4 4   :.s d % E >.,.; % 1 1 1 1 1 1 1 1 1 1 9 : <.",
"& > 0 1 1 1 1 1 1 1 1 1 w 8 ` 4 4   1.2.N ; 3.3 4.7 j 1 1 1 1 1 1 1 1 1 1 0 > 5.",
"6., % 1 1 1 1 1 1 1 1 1 w 8 ` 4     7.8.9.0.5   q.v i 1 1 1 1 1 1 1 1 1 1 % , w.",
"e.< 1 1 1 1 1 1 1 1 1 1 w 8 ` 4   4             r.v i 1 1 1 1 1 1 1 1 1 1 1 < $ ",
"w 1 1 1 1 1 1 1 1 1 1 1 w 8 ` 4 3   t.y.a u.i.  p.v i 1 1 1 1 1 1 1 1 1 1 1 1 w ",
"w 1 1 1 1 1 1 1 1 1 1 1 w 8 ` 4 4   a a.: 7 7 s.4.v j 1 1 1 1 1 1 1 1 1 1 1 1 0 ",
"$ < 1 1 1 1 1 1 1 1 1 1 w 8 ` 4 4   d.c f.d 1 # =.n q 1 1 1 1 1 1 1 1 1 1 1 < $ ",
"6.; % 1 1 1 1 1 1 1 1 1 w 8 ` 4 4   :.v i 1 % P 8 1 9 j 1 1 1 1 1 1 1 1 1 % , # ",
"& > 0 1 1 1 1 1 1 1 1 1 w 8 ` 4 4   g.v i 1 1 w % w : v 1 1 1 1 1 1 1 1 1 0 > 5.",
"<.: 9 1 1 1 1 1 1 1 1 1 0 8 h.3 4   j.b k.w 0 0 z 8 l.z.j N 1 1 1 1 1 1 1 9 : <.",
"O ; q 1 1 1 1 1 1 1 1 1 x.8 c.  X   q.v.n 8 b.b.v n Q n.N 1 q 1 1 1 1 1 1 q ; m.",
";.` 8 w 1 1 1 1 1 1 1 1 9 7 M.  ;.  N.B.V.=.C.Z.@ A.  S.> 9 1 1 1 1 1 1 w 8 ` ;.",
"  2 7 i 1 1 1 1 1 1 1 1 n j D.  F.X   o Q F.;.3       G.s j 1 1 1 1 1 1 d 7 H.  ",
"  * % N q 1 1 1 1 1 1 N J.                            K.7 i 1 1 1 1 1 q N w *   ",
"X   R v d 1 1 1 1 1 N 9 L.P.I.a R 6 R U.U.Y.e T.R.2 F O.8 w 1 1 1 1 1 d v 6   X ",
".   5 I ; w 1 1 1 1 1 1 s 7 v s s s s s s s s v v v 7 P % 1 1 1 1 1 w ; T 5   . ",
"  X   E.v i 1 1 1 1 1 1 9 i i j j j j j j j j j i i i w 1 1 1 1 1 1 i s M   X   ",
"    4   Y.h z 1 1 1 1 1 1 1 1 1 1 1 1 1 1 1 1 1 1 1 1 1 1 1 1 1 1 z h Y.  4     ",
"    3     W.7 z 1 1 1 1 1 1 1 1 1 1 1 1 1 1 1 1 1 1 1 1 1 1 1 1 z 7 Q.    3     ",
"      t     x h j w 1 1 1 1 1 1 1 1 1 1 1 1 1 1 1 1 1 1 1 1 w j h g     t       ",
"        4     !.s ; d q 1 1 1 1 1 1 1 1 1 1 1 1 1 1 1 1 q d ; s m     4         ",
"          t     ~.} 7 N d w 1 1 1 1 1 1 1 1 1 1 1 1 w d N 7 } ^.    t           ",
"            3 4   /.f 9 7 8 q 9 0 % 1 1 1 1 % 0 9 q 8 7 9 f (.  4 3             ",
"                X     ).H.` ; : > , < 1 1 < , > : ; ` H.).    X                 ",
"                  . X     ;.O _.@ # $ % % $ # @ _.O ;.    X .                   "
};
