/* XPM */
static char *b0b367a07b9d4091de0fe4cc7f8489f0Iof4JH388or6oNAm[] = {
/* columns rows colors chars-per-pixel */
"40 40 13 1 ",
"  c #59514E",
". c #5A524F",
"X c #5B5350",
"o c #5C5451",
"O c #5D5552",
"+ c #5E5653",
"@ c #5F5754",
"# c #605855",
"$ c #615956",
"% c #625A57",
"& c #635B58",
"* c #645C59",
"= c #655D5A",
/* pixels */
"+%%@+%@XX+@%@@%& X+%%%%@+++@@+++%%%@@%%%",
"+%%@+%%X+%%@+++%X++@%%%@@@@@@@@@%%@@+@%%",
"+%%@+%%X%%%%++++@@++++@%%%@@@%%%%%@@++%%",
"+%%++%%+@%%%+++@%%++++@%=&@@@%&=%%%%%%%%",
"+%%++%%+++%%@+%%%%@+++%%==%@@%==%%&==&%%",
"X%%+@%%+X+@%@@%%%%@@@@%%&&%%%%&=%%====%%",
"X%%+@%%++@%%+++%++%%%%%%%%%%%%%%+@%&&%++",
"X@%+@%%+%%%%++++X+%%&&%%@%%%%%%@X+@%%@X ",
"++++++++%@@++++X++++++@%%%%%%%%@%@++%%%+",
"++++++++%%%%@@++@@+@@%%%++++++++%@++%%%+",
"@@@@@@@@%%%%%%%%@@%%%%%%++++++++%@++%%%+",
"@@@@@@@@%%%%%%%%++%%%%%%%%%%%%%%%@++%%%+",
"%%@@@@%%+++++@@@X++%%%@+@@@%%%%%%@++%%%+",
"%%%%@@%%+++++++@ ++%%@+++++++@%%%+++%%%+",
"%%%%@@@%+++@@%%%X+@%%%++X++++@%%%+++%%@+",
"%%%%@@%%@+%@%%%%++%&=&%+++@%%%&=%+++%%@+",
"@%&==&%+&%%%@%@@&%%%%%%& +%==%+X%@++%%%+",
"+%%==%%+%%%@+@@+%%%%%%%%@@%%%@++%@++%%%+",
"++%%%%@+%%++++++%%@++@%%&%%++++@%@++%%%+",
"+++@%@+++++++X++@++++++@=%%+++++%@++%%%+",
"X++++@@@++++XX++@++++++@%%%%%++X%+++%%%+",
"+++++@%%@+++X+++@++++++@@%%%%@+X%+++%%%+",
"++++@%%%%@++++++%@++++@%%%@++@@%%+++%%%+",
"+++++%%&%%@+++++%%@@@@%%&%+ X+%=%+++%%@+",
"@@%@@@@@%+++@%++%%@@%%%%%%%%%%%%%%%&%%++",
"@+@@@%%%%+++@%++%@@@%%%%++++++++%%%%%%@+",
"+++@%%%%%+++%%++%%@@%%%%++++++++%%%@@@%%",
"+++@%%%%%@++@%++%%@@@@%%%%%%%%%%%%@+++%%",
"+++@%%%%%@+@%%%+@@@@@@@@%%%%%%@@%%++++%%",
"+++@%%%%%%+@%%%+@@@@@@@@%%@+++++@++++@%@",
"@@@@+@%%%%@@%%%@++++++++%%@++++ +++@@@++",
"%%%++++@%%@@%%%@++++++++=&%%@+++ ++%%%++",
"+++++@@@%%%%%%%%+++++++++@@@+++++%%++%%+",
"+++++++@+++++++++++++++++@@@+++++%%++%%+",
"+++++++++++++++++++++++++@@@@++++%%++%%+",
"@@@+++++@@@@@@@@+++++++++@@@@++++%%++%%+",
"++++++++@@@@@@@@+++++++++@@@@++++%%++%%+",
"+++++@@@+++++++++++++++++@@@@++++%%++%%+",
"XX++@%%%++++++++XXXX+++++@@@@++++%%++%%+",
"  X+@%%&%%%%%%%%XXXXX++++@@@@++++%%++%%+"
};
